<?xml version="1.0" encoding="utf-8"?>
<!-- Generator: Adobe Illustrator 26.2.1, SVG Export Plug-In . SVG Version: 6.00 Build 0)  -->
<svg version="1.1" id="Layer_1" xmlns="http://www.w3.org/2000/svg" xmlns:xlink="http://www.w3.org/1999/xlink" x="0px" y="0px"
	 viewBox="0 0 1400 500" style="enable-background:new 0 0 1400 500;" xml:space="preserve">
<style type="text/css">
	.st0{clip-path:url(#SVGID_00000091010801586965469130000002615255680397580160_);}
	.st1{fill:url(#SVGID_00000029745422124047780460000000499866554357684142_);}
	.st2{fill:url(#SVGID_00000127756706794897984160000007647863217487302027_);}
	.st3{fill:url(#SVGID_00000026875064719499470550000009890429393216799159_);}
	.st4{fill:url(#SVGID_00000122711228311322492040000011368176708834837655_);}
	.st5{fill:url(#SVGID_00000093171815266636655380000000975820467876967062_);}
	.st6{fill:url(#SVGID_00000084514699939658820140000018428293509802878884_);}
	.st7{fill:url(#SVGID_00000089552522427650396890000010123559553484078258_);}
	.st8{fill:url(#SVGID_00000095338132970841276160000010784570673334392762_);}
	.st9{fill:url(#SVGID_00000116943901100409462660000013667453535090198932_);}
	.st10{fill:url(#SVGID_00000156575436549156513050000000424629336998613425_);}
	.st11{fill:url(#SVGID_00000048479496111622070590000005041712725244621982_);}
	.st12{fill:url(#SVGID_00000169545451212209386060000008764007000608596627_);}
	.st13{fill:url(#SVGID_00000173879833302221752900000011303509598697341361_);}
	.st14{fill:url(#SVGID_00000027592238227586045670000005917134819601662391_);}
	.st15{fill:url(#SVGID_00000106855731416833667250000016930211779062850202_);}
	.st16{fill:url(#SVGID_00000181051045102109586300000004011639537138704027_);}
	.st17{fill:url(#SVGID_00000163754956217117343570000017279989123580850867_);}
	.st18{fill:url(#SVGID_00000114785775755847308940000016856103077576685698_);}
	.st19{fill:url(#SVGID_00000017485387417865459430000011919739896823655311_);}
	.st20{fill:url(#SVGID_00000167392097418726778080000015116473093133144722_);}
	.st21{fill:url(#SVGID_00000121966243301367648780000003855844765081229730_);}
	.st22{fill:url(#SVGID_00000151537215969825952170000015029903656019365301_);}
	.st23{fill:url(#SVGID_00000134217544706943828180000007863221713235744658_);}
	.st24{fill:url(#SVGID_00000070832503270611249160000017369956410590613178_);}
	.st25{fill:url(#SVGID_00000000217831122816836980000009036044500822140314_);}
	.st26{fill:url(#SVGID_00000140705481894424972340000003751883214316572575_);}
	.st27{fill:url(#SVGID_00000055688579894480487810000003947364085331408316_);}
	.st28{fill:url(#SVGID_00000105423034128474565400000014184724495569607837_);}
	.st29{fill:url(#SVGID_00000001633775007026198220000001082044092531400837_);}
	.st30{fill:url(#SVGID_00000164514626806497016150000009295076647708520624_);}
	.st31{fill:url(#SVGID_00000085248758806926958970000006600324943008407680_);}
	.st32{fill:url(#SVGID_00000139984731510580125180000016940177000193805720_);}
	.st33{fill:url(#SVGID_00000016045249241535297660000000473769438707647119_);}
	.st34{fill:url(#SVGID_00000092454346741262950560000006543946522875429309_);}
	.st35{fill:url(#SVGID_00000142883441312260251970000017699448230165369261_);}
	.st36{fill:url(#SVGID_00000024691756584439461530000011479437028694252990_);}
	.st37{fill:url(#SVGID_00000082362059740658933260000004372349763579644829_);}
	.st38{fill:url(#SVGID_00000125576882786726519010000014368380837188088973_);}
	.st39{fill:url(#SVGID_00000135673557880735570270000010919110446853681031_);}
	.st40{fill:url(#SVGID_00000127755816769053906070000008899737149532714685_);}
	.st41{fill:url(#SVGID_00000124840235019694877890000007116707693162254261_);}
</style>
<g>
	<g>
		<defs>
			<rect id="SVGID_1_" x="0.2" y="0.1" width="1400.2" height="499.9"/>
		</defs>
		<clipPath id="SVGID_00000158739274300403276480000005786254168544396700_">
			<use xlink:href="#SVGID_1_"  style="overflow:visible;"/>
		</clipPath>
		<g style="clip-path:url(#SVGID_00000158739274300403276480000005786254168544396700_);">
			
				<linearGradient id="SVGID_00000161609969055588713710000001837509047793423803_" gradientUnits="userSpaceOnUse" x1="796.5497" y1="201.6992" x2="1288.4723" y2="384.3542" gradientTransform="matrix(1 0 0 1 0 2)">
				<stop  offset="5.275000e-02" style="stop-color:#D2DDF1;stop-opacity:0.3"/>
				<stop  offset="0.1647" style="stop-color:#B8C7DD;stop-opacity:0.3326"/>
				<stop  offset="0.3193" style="stop-color:#6E89A4;stop-opacity:0.4238"/>
				<stop  offset="0.4167" style="stop-color:#305575;stop-opacity:0.5"/>
				<stop  offset="0.8352" style="stop-color:#243750"/>
				<stop  offset="0.8543" style="stop-color:#243750;stop-opacity:0"/>
			</linearGradient>
			<circle style="fill:url(#SVGID_00000161609969055588713710000001837509047793423803_);" cx="989.8" cy="275.4" r="168.1"/>
			
				<linearGradient id="SVGID_00000171703239500801102300000003500579584367475358_" gradientUnits="userSpaceOnUse" x1="1036.8439" y1="62.1043" x2="927.0475" y2="487.407" gradientTransform="matrix(1 0 0 1 0 2)">
				<stop  offset="5.275000e-02" style="stop-color:#D2DDF1"/>
				<stop  offset="0.1054" style="stop-color:#CCD8EC"/>
				<stop  offset="0.1784" style="stop-color:#BAC9DE"/>
				<stop  offset="0.2632" style="stop-color:#9CB0C8"/>
				<stop  offset="0.3569" style="stop-color:#738EA9"/>
				<stop  offset="0.4568" style="stop-color:#406281"/>
				<stop  offset="0.4843" style="stop-color:#305575"/>
				<stop  offset="0.6434" style="stop-color:#243750"/>
				<stop  offset="0.7961" style="stop-color:#243750;stop-opacity:0"/>
			</linearGradient>
			<path style="fill:url(#SVGID_00000171703239500801102300000003500579584367475358_);" d="M1163,254.1
				c0-96.7-78.4-175.2-175.2-175.2s-175.2,78.4-175.2,175.2c0,49.7,18.7,84.9,52,116.8c52.5-2.7,210.1,4.4,251.3,2.7
				C1146.2,341.1,1163,298.4,1163,254.1z"/>
			
				<linearGradient id="SVGID_00000044147980537463077010000014736513000063630729_" gradientUnits="userSpaceOnUse" x1="1040.179" y1="468.472" x2="982.2618" y2="175.7247" gradientTransform="matrix(1 0 0 1 0 2)">
				<stop  offset="0.1434" style="stop-color:#F4D4C5;stop-opacity:0"/>
				<stop  offset="0.2395" style="stop-color:#276180;stop-opacity:0.1"/>
				<stop  offset="0.3751" style="stop-color:#6C8897;stop-opacity:0.4023"/>
				<stop  offset="0.6486" style="stop-color:#F4D4C5"/>
				<stop  offset="0.7338" style="stop-color:#F5DACD"/>
				<stop  offset="0.8633" style="stop-color:#F9E9E2"/>
				<stop  offset="1" style="stop-color:#FFFFFF"/>
			</linearGradient>
			<circle style="fill:url(#SVGID_00000044147980537463077010000014736513000063630729_);" cx="1014.1" cy="338.6" r="183"/>
			
				<linearGradient id="SVGID_00000088851091568206231210000014286540523135269762_" gradientUnits="userSpaceOnUse" x1="1006.3583" y1="479.3547" x2="1153.194" y2="285.6303" gradientTransform="matrix(1 0 0 1 0 2)">
				<stop  offset="0.1812" style="stop-color:#28607F;stop-opacity:0"/>
				<stop  offset="0.3189" style="stop-color:#275E7D;stop-opacity:6.904000e-02"/>
				<stop  offset="0.5161" style="stop-color:#245977;stop-opacity:0.2617"/>
				<stop  offset="0.749" style="stop-color:#20506E;stop-opacity:0.5777"/>
				<stop  offset="1" style="stop-color:#1A4462"/>
			</linearGradient>
			<circle style="fill:url(#SVGID_00000088851091568206231210000014286540523135269762_);" cx="1078.2" cy="386.6" r="121.2"/>
			
				<linearGradient id="SVGID_00000092450448240436998500000010127505179861251511_" gradientUnits="userSpaceOnUse" x1="1040.781" y1="57.9392" x2="1040.781" y2="368.0779" gradientTransform="matrix(1 0 0 1 0 2)">
				<stop  offset="3.588000e-02" style="stop-color:#FFFFFF"/>
				<stop  offset="8.609000e-02" style="stop-color:#FCFDFE"/>
				<stop  offset="0.122" style="stop-color:#F3F6FB"/>
				<stop  offset="0.1534" style="stop-color:#E3EAF6"/>
				<stop  offset="0.1767" style="stop-color:#D2DDF1"/>
				<stop  offset="0.253" style="stop-color:#ABB8CD"/>
				<stop  offset="0.3498" style="stop-color:#8090A7"/>
				<stop  offset="0.4483" style="stop-color:#5D6F87"/>
				<stop  offset="0.5472" style="stop-color:#41556E"/>
				<stop  offset="0.6469" style="stop-color:#2E435C"/>
				<stop  offset="0.7476" style="stop-color:#223852"/>
				<stop  offset="0.8512" style="stop-color:#1E344E"/>
			</linearGradient>
			<path style="fill:url(#SVGID_00000092450448240436998500000010127505179861251511_);" d="M920.2,285.1c0,0,47.3-31.3,45.7-77.2
				c-1.2-35.3-22.8-44.3-8.8-89.2c6.4-20.5,36-40.6,66.4-36.2c35.5,5.2,93.3,37.5,119.7,90.6c8.9,17.8,14.7,39.7,17.3,51.8
				c9,42.8-49.1,230.6-167.4,133.1C978.7,346.2,920.2,285.1,920.2,285.1z"/>
			
				<linearGradient id="SVGID_00000064351892477696485160000010448097911655211171_" gradientUnits="userSpaceOnUse" x1="1183.5862" y1="114.1836" x2="1107.8927" y2="190.3719" gradientTransform="matrix(1 0 0 1 0 2)">
				<stop  offset="0" style="stop-color:#CFD9E6"/>
				<stop  offset="0.1495" style="stop-color:#B7C3D1"/>
				<stop  offset="0.4661" style="stop-color:#79899C"/>
				<stop  offset="0.8862" style="stop-color:#1E344E"/>
			</linearGradient>
			<path style="fill:url(#SVGID_00000064351892477696485160000010448097911655211171_);" d="M1071.9,143.1
				c23.2-11.3,41.5,5.2,54,18.3c24,25.2,34.6,63.5,34.6,63.5c-10-6.7-27.7-15.5-27.7-15.5c-4.7-2.9-7-4.6-14.3-10.9
				c-25.5-22-49.1-42.2-49.1-42.2S1072.5,153.3,1071.9,143.1z"/>
			
				<linearGradient id="SVGID_00000146493117994546598710000004736042336211526798_" gradientUnits="userSpaceOnUse" x1="1097.3414" y1="198.8619" x2="1076.0907" y2="186.7969" gradientTransform="matrix(1 0 0 1 0 2)">
				<stop  offset="0" style="stop-color:#F19B7F;stop-opacity:0"/>
				<stop  offset="4.277000e-02" style="stop-color:#F09A7F;stop-opacity:5.639000e-02"/>
				<stop  offset="0.309" style="stop-color:#EA987C;stop-opacity:0.3879"/>
				<stop  offset="0.5472" style="stop-color:#E6957A;stop-opacity:0.6508"/>
				<stop  offset="0.749" style="stop-color:#E39379;stop-opacity:0.8404"/>
				<stop  offset="0.9063" style="stop-color:#E19278;stop-opacity:0.9569"/>
				<stop  offset="1" style="stop-color:#E09278"/>
			</linearGradient>
			<path style="fill:url(#SVGID_00000146493117994546598710000004736042336211526798_);" d="M1065.7,158.5l4-2.2
				c1.2,1,12.9,11.3,16.8,14.5c6.4,5.5,13.8,11.9,13.8,11.9c-3.3,6.1-6.1,12.4-8.2,19c-3.3,11.1-7.3,20.7-7.3,20.7s-3.8-3.7-9.6-9.2
				c-2.4-2.3-8.1-7.1-8.1-7.1s4.5-11.7,4.1-22.8C1070.7,172.3,1065.7,158.5,1065.7,158.5z"/>
			
				<linearGradient id="SVGID_00000050659454757371873340000006747359166464306322_" gradientUnits="userSpaceOnUse" x1="906.2591" y1="224.6399" x2="906.2591" y2="280.6245" gradientTransform="matrix(1 0 0 1 0 2)">
				<stop  offset="3.323000e-02" style="stop-color:#FFFFFF"/>
				<stop  offset="0.2456" style="stop-color:#D2DDF1"/>
				<stop  offset="0.3364" style="stop-color:#BAC6DB"/>
				<stop  offset="0.5285" style="stop-color:#7C8CA3"/>
				<stop  offset="0.7914" style="stop-color:#1E344E"/>
			</linearGradient>
			<path style="fill:url(#SVGID_00000050659454757371873340000006747359166464306322_);" d="M916.3,317.2v-92.9l0,0
				c-21.6,26.1-26.1,62.4-11.5,93L916.3,317.2z"/>
			
				<linearGradient id="SVGID_00000051385632115988268190000015044088748099351459_" gradientUnits="userSpaceOnUse" x1="926.2849" y1="181.6632" x2="926.2849" y2="311.0209" gradientTransform="matrix(1 0 0 1 0 2)">
				<stop  offset="0" style="stop-color:#FFFFFF"/>
				<stop  offset="8.947000e-02" style="stop-color:#FDFDFE"/>
				<stop  offset="0.1328" style="stop-color:#F5F8FC"/>
				<stop  offset="0.1661" style="stop-color:#E8EEF8"/>
				<stop  offset="0.1943" style="stop-color:#D6E0F2"/>
				<stop  offset="0.199" style="stop-color:#D2DDF1"/>
				<stop  offset="0.236" style="stop-color:#C0CCE1"/>
				<stop  offset="0.3467" style="stop-color:#8F9EB4"/>
				<stop  offset="0.4564" style="stop-color:#667890"/>
				<stop  offset="0.5633" style="stop-color:#475A73"/>
				<stop  offset="0.6665" style="stop-color:#30455E"/>
				<stop  offset="0.7643" style="stop-color:#233852"/>
				<stop  offset="0.8512" style="stop-color:#1E344E"/>
			</linearGradient>
			<path style="fill:url(#SVGID_00000051385632115988268190000015044088748099351459_);" d="M929.8,312.7
				c12.2-29.7,7-63.8-13.5-88.5l0,0v88.5H929.8z"/>
			
				<linearGradient id="SVGID_00000152260285072096425330000004306127562567872424_" gradientUnits="userSpaceOnUse" x1="827.2839" y1="253.1376" x2="888.0459" y2="323.014" gradientTransform="matrix(1 0 0 1 0 2)">
				<stop  offset="2.500000e-03" style="stop-color:#FFFFFF"/>
				<stop  offset="8.728000e-02" style="stop-color:#D2DDF1"/>
				<stop  offset="0.1899" style="stop-color:#BAC6DB"/>
				<stop  offset="0.4072" style="stop-color:#7C8CA3"/>
				<stop  offset="0.7047" style="stop-color:#1E344E"/>
			</linearGradient>
			<path style="fill:url(#SVGID_00000152260285072096425330000004306127562567872424_);" d="M873.5,370.3V221.4l0,0
				c-27.4,33-42.4,74.5-42.4,117.4c0,10.7-1.6-2.3,0.1,7.9l15.6,15.4L873.5,370.3z"/>
			
				<linearGradient id="SVGID_00000087389021350474859840000011171482670235376011_" gradientUnits="userSpaceOnUse" x1="894.7335" y1="156.9524" x2="894.7335" y2="305.5275" gradientTransform="matrix(1 0 0 1 0 2)">
				<stop  offset="0" style="stop-color:#FFFFFF"/>
				<stop  offset="8.947000e-02" style="stop-color:#FDFDFE"/>
				<stop  offset="0.1328" style="stop-color:#F5F8FC"/>
				<stop  offset="0.1661" style="stop-color:#E8EEF8"/>
				<stop  offset="0.1943" style="stop-color:#D6E0F2"/>
				<stop  offset="0.199" style="stop-color:#D2DDF1"/>
				<stop  offset="0.236" style="stop-color:#C0CCE1"/>
				<stop  offset="0.3467" style="stop-color:#8F9EB4"/>
				<stop  offset="0.4564" style="stop-color:#667890"/>
				<stop  offset="0.5633" style="stop-color:#475A73"/>
				<stop  offset="0.6665" style="stop-color:#30455E"/>
				<stop  offset="0.7643" style="stop-color:#233852"/>
				<stop  offset="0.8512" style="stop-color:#1E344E"/>
			</linearGradient>
			<path style="fill:url(#SVGID_00000087389021350474859840000011171482670235376011_);" d="M914.5,362.2c1-7.8,1.5-15.6,1.5-23.4
				c0-42.9-15-84.4-42.4-117.4l0,0v140.8H914.5z"/>
			
				<linearGradient id="SVGID_00000158733731471576086440000014960184270305912235_" gradientUnits="userSpaceOnUse" x1="1112.7094" y1="299.37" x2="1033.1519" y2="218.2" gradientTransform="matrix(1 0 0 1 0 2)">
				<stop  offset="0" style="stop-color:#ECD6C8"/>
				<stop  offset="0.2946" style="stop-color:#EEC7B5"/>
				<stop  offset="0.972" style="stop-color:#F2A68D"/>
			</linearGradient>
			<path style="fill:url(#SVGID_00000158733731471576086440000014960184270305912235_);" d="M1067.3,206.9c0,0,24.9,20.8,24.6,26.7
				c0,0.6-23.9,23.7-43.7,43c-15.1,14.7-27.6,27-27.6,27l-14.5,13.9l11.1,8.6c0,0,13.1,3.2,23.2,8c6.1-4.4,20.1-16.8,25.7-20.8
				c1.9-1.4,3.8-2.6,5.7-3.8c27.7-17,46.7-7.5,58.5-14.6c25.7-15.4,30.7-69.3,30.7-69.3s-11.7-8.2-17.5-11.1
				c-15.8-7.9-24.4-15.3-35-24.4c-26.7-23-45.6-39.2-45.6-39.2L1067.3,206.9z"/>
			
				<linearGradient id="SVGID_00000139277161702065790280000000977955230944174755_" gradientUnits="userSpaceOnUse" x1="1123.3374" y1="220.7142" x2="1140.8132" y2="377.9976" gradientTransform="matrix(1 0 0 1 0 2)">
				<stop  offset="0" style="stop-color:#D2DDF1"/>
				<stop  offset="0.1526" style="stop-color:#BAC6DB"/>
				<stop  offset="0.4756" style="stop-color:#7C8CA3"/>
				<stop  offset="0.9178" style="stop-color:#1E344E"/>
			</linearGradient>
			<path style="fill:url(#SVGID_00000139277161702065790280000000977955230944174755_);" d="M1076.6,248.9c0,0,6.6,53.3,40.5,33.9
				c22.4-12.9,43.4-57.8,43.4-57.8s36.8,23.7,57.8,69.3c2.9,6.3-1.2,51.3-1.2,51.3s-4.9,32.1-17.3,30.4c-12.4-1.7-48.8,3.1-48.8,3.1
				l-8.1,2.1l-86.3,7.3l10.2-53.4l5-26.2l-29.3-27.4L1076.6,248.9z"/>
			
				<linearGradient id="SVGID_00000071551420259603738830000001370963359488302252_" gradientUnits="userSpaceOnUse" x1="1073.127" y1="287.3517" x2="1097.4005" y2="358.9173" gradientTransform="matrix(1 4.850000e-03 -4.850000e-03 1 19.0498 2.4009)">
				<stop  offset="0" style="stop-color:#FFFFFF"/>
				<stop  offset="7.541000e-02" style="stop-color:#F0F3F9"/>
				<stop  offset="0.2173" style="stop-color:#DBE2F0"/>
				<stop  offset="0.3554" style="stop-color:#CED8EB"/>
				<stop  offset="0.4844" style="stop-color:#CAD4E9"/>
				<stop  offset="0.5627" style="stop-color:#B6C2D7"/>
				<stop  offset="0.7226" style="stop-color:#8392A9"/>
				<stop  offset="0.9482" style="stop-color:#324660"/>
				<stop  offset="1" style="stop-color:#1E344E"/>
			</linearGradient>
			<path style="fill:url(#SVGID_00000071551420259603738830000001370963359488302252_);" d="M1120.8,389.2l0.3-66.7l0,0
				c-13.2,14.4-21.1,32.8-21.2,53c0,4.6,0.4,9.2,1.2,13.7L1120.8,389.2z"/>
			
				<linearGradient id="SVGID_00000083782414216479577320000015259981642956711595_" gradientUnits="userSpaceOnUse" x1="789.5641" y1="298.9696" x2="997.3226" y2="358.6733" gradientTransform="matrix(1 4.850000e-03 -4.850000e-03 1 19.0498 2.4009)">
				<stop  offset="0.3083" style="stop-color:#1E344E"/>
				<stop  offset="0.8862" style="stop-color:#1E344E"/>
			</linearGradient>
			<polygon style="fill:url(#SVGID_00000083782414216479577320000015259981642956711595_);" points="1024.2,383.8 956.7,381 
				840.8,360.8 842.4,314.8 1024.5,323 			"/>
			
				<radialGradient id="SVGID_00000134245026932046187170000007652867159224551054_" cx="1214.1514" cy="352.2596" r="53.8931" gradientTransform="matrix(0.8125 3.940000e-03 -4.850000e-03 1 -126.257 1.6978)" gradientUnits="userSpaceOnUse">
				<stop  offset="0" style="stop-color:#D2DDF1"/>
				<stop  offset="0.2515" style="stop-color:#8E9DB3"/>
				<stop  offset="0.6405" style="stop-color:#1E344E"/>
			</radialGradient>
			<path style="fill:url(#SVGID_00000134245026932046187170000007652867159224551054_);" d="M884.4,358.5c-0.1,13.5-4.4,22.5-8.7,26
				c-1.1,0.6-2.3,1-3.5,1.2c-4.9,0.2-15.8,0.9-18.1,0.3c-7.9-2.2-11.9-15.1-11.8-27.7c0.1-10.6,3.2-18.7,9.2-23.7
				c1-0.8,2.2-1.4,3.5-1.7c5.1-0.9,16.6-0.5,19.4,2C880.4,340.1,884.5,348,884.4,358.5z"/>
			
				<radialGradient id="SVGID_00000016794048160660810710000009473008361934484926_" cx="1119.8693" cy="363.6127" r="68.0675" gradientTransform="matrix(0.9236 4.480000e-03 -4.850000e-03 1 -49.1964 2.0717)" gradientUnits="userSpaceOnUse">
				<stop  offset="0" style="stop-color:#D2DDF1"/>
				<stop  offset="0.2827" style="stop-color:#8E9DB3"/>
				<stop  offset="0.7199" style="stop-color:#1E344E"/>
			</radialGradient>
			<path style="fill:url(#SVGID_00000016794048160660810710000009473008361934484926_);" d="M1013.6,369.5
				c-0.1,16.9-6.2,28.1-12.3,32.5c-1.5,0.8-3.2,1.3-5,1.5c-6.9,0.3-18.8,1.5-22.1,1c-15-2-21.4-19.5-21.3-35.3
				c0.1-13.3,5.5-23.5,14-29.8c1.5-1,3.2-1.7,4.9-2.2c7.3-1.1,23.6-0.6,27.5,2.6C1008.6,346.9,1013.9,357.9,1013.6,369.5z"/>
			
				<linearGradient id="SVGID_00000032620468370543767290000006174033244568688513_" gradientUnits="userSpaceOnUse" x1="968.5747" y1="372.9394" x2="971.4504" y2="218.5547" gradientTransform="matrix(1 4.850000e-03 -4.850000e-03 1 19.0498 2.4009)">
				<stop  offset="7.531000e-02" style="stop-color:#1E344E"/>
				<stop  offset="0.1894" style="stop-color:#52657D"/>
				<stop  offset="0.3061" style="stop-color:#7F8FA6"/>
				<stop  offset="0.4181" style="stop-color:#A3B1C7"/>
				<stop  offset="0.5226" style="stop-color:#BDC9DE"/>
				<stop  offset="0.6166" style="stop-color:#CDD8EC"/>
				<stop  offset="0.6914" style="stop-color:#D2DDF1"/>
			</linearGradient>
			<path style="fill:url(#SVGID_00000032620468370543767290000006174033244568688513_);" d="M841.8,361l-2.7-0.4
				c0,0-2.6-7.6-1.8-14.2c0.2-2,0.9-3.9,2.1-5.5c0,0,0.3-21.7,0.3-22.7c-0.1-1,1.7-7.4,3.7-10.4c1.5-2.1,3.1-4,5-5.7
				c0,0,6.3-9.5,10.7-14.8c2.2-2.8,4.8-5.4,7.7-7.6c4.7-3.4,12.6-6.5,18.6-8.7c22.9-8.7,56.1-8.1,62.9-8c9.5,0.1,37.7-0.4,63,3.9
				c6.2,1.1,12.2,3,17.9,5.6c5.3,2.4,48.7,28,48.7,28s6.6,1.9,16.7,3.7c10.1,1.8,23.8,5.7,28.2,11c4.4,5.4,4,4.9,7.3,11.6
				c2.1,4.6,4,9.2,5.6,14c0.5,1.4-0.1,4.7-0.1,4.7l-7.6,32.6l-0.7,1.8c0,0-56.4,4.6-61.4,5c-5.1,0.4-18.3,1.3-23.6,1.4
				s-37.7-1-37.7-1s-0.9-20.2-3.2-30.1c-2.1-9.6-6.6-17.3-12.7-22.9c-4.9-4.5-8.6-5.5-11.9-5.6c-5-0.3-9.9,1.3-13.7,4.5
				c-10.8,9.2-9.6,24.8-9.4,28.1c-1.7,15.4,0.1,21.2,0.1,21.2l-83.6-11.2c0,0,1.4-12.9,0.1-21.2c-1.3-8.2-6.8-15.9-8.6-17.5
				c-2.1-2.2-5.2-3.2-8.1-2.5c-3.8,0.8-6.3,3.9-7.9,8.1C840.6,350.6,841.8,361,841.8,361z"/>
			
				<linearGradient id="SVGID_00000099634588671618462590000008651881078456234898_" gradientUnits="userSpaceOnUse" x1="819.6785" y1="308.9477" x2="1099.9651" y2="323.2417" gradientTransform="matrix(1 4.850000e-03 -4.850000e-03 1 19.0498 2.4009)">
				<stop  offset="0.2919" style="stop-color:#D2DDF1;stop-opacity:0.3"/>
				<stop  offset="0.5753" style="stop-color:#D2DDF1;stop-opacity:0.2005"/>
				<stop  offset="0.5767" style="stop-color:#D2DDF1;stop-opacity:0.2"/>
			</linearGradient>
			<path style="fill:url(#SVGID_00000099634588671618462590000008651881078456234898_);" d="M954,333.7c0,0-58.6-5.9-72.3-4.2
				c-4.3,0.5-8.4,2-12,4.3c0,0-6.3-10.8-13.1-11.2c-12.7-0.7-15.7,17.4-15.7,17.4l-1.4,0.9l0.3-23.1c0,0,6.6-5.3,6.3-7.1
				c-0.3-1.8-2.6-3-2.6-3c1.5-1.9,3.1-3.8,4.9-5.4c1.6-2.6,9-13,12.9-17.3c4-4.5,6.9-6,11-8.3c6-3.4,22.4-10.1,43.4-11.9
				c14.2-1.2,30.2-1.5,38.7-1.4c51.7,0.3,61.8,4.4,67.3,6.4c5.5,1.9,20.5,10,25.7,13c5.1,3,30.7,18.1,30.7,18.1s8.4,2.3,13.2,3
				c4.8,0.7,16.2,3.3,21.4,5.6c5.1,2.3,6.9,2.9,9,4.9c2.1,1.9,3.9,4.2,5.3,6.6c1.4,2.4,5.1,10.3,6.4,13.4c0.9,2.2,1.7,4.5,2.3,6.8
				c0.4,1.4,0.1,4.7,0.1,4.7l-5.2,21.9l-7.5-10.6l-58.4,3.2l-55.8,24.5c0,0,3.7-40.1-17.5-57.2c-4.5-3.7-10.1-5.7-16-5.9
				C961.9,321,954,333.7,954,333.7z"/>
			
				<linearGradient id="SVGID_00000053513657547519064830000013684652107677441410_" gradientUnits="userSpaceOnUse" x1="1133.0262" y1="359.941" x2="1055.3728" y2="304.8145" gradientTransform="matrix(1 0 0 1 0 2)">
				<stop  offset="0.1997" style="stop-color:#D2DDF1"/>
				<stop  offset="0.3601" style="stop-color:#DAE3F4"/>
				<stop  offset="0.6093" style="stop-color:#F0F4FA"/>
				<stop  offset="0.7462" style="stop-color:#FFFFFF"/>
			</linearGradient>
			<polygon style="fill:url(#SVGID_00000053513657547519064830000013684652107677441410_);" points="1051.7,333.2 1059.3,320.5 
				1089.9,320 1090.7,320.9 1099.3,320.9 1100,319.8 1123.5,319.6 1129.7,333.2 1123.5,344.5 1062.5,347.5 			"/>
			
				<linearGradient id="SVGID_00000096763405740789055540000016487680654235460517_" gradientUnits="userSpaceOnUse" x1="1037.1305" y1="326.0871" x2="1110.1986" y2="326.0871" gradientTransform="matrix(1 4.850000e-03 -4.850000e-03 1 19.0498 2.4009)">
				<stop  offset="0.3083" style="stop-color:#1E344E"/>
				<stop  offset="0.8862" style="stop-color:#1E344E"/>
			</linearGradient>
			<polygon style="fill:url(#SVGID_00000096763405740789055540000016487680654235460517_);" points="1060.9,322.9 1054.6,333.1 
				1063.6,345.7 1122.5,343 1127.7,333.2 1122.6,321.7 1101,322.1 1100.2,323.1 1089.6,323.3 1088.8,322.3 			"/>
			
				<linearGradient id="SVGID_00000047780919801194477830000016018003104477964449_" gradientUnits="userSpaceOnUse" x1="828.6165" y1="353.5206" x2="848.0468" y2="353.5206" gradientTransform="matrix(1 4.850000e-03 -4.850000e-03 1 19.0498 2.4009)">
				<stop  offset="0.3083" style="stop-color:#1E344E"/>
				<stop  offset="0.8862" style="stop-color:#1E344E"/>
			</linearGradient>
			<path style="fill:url(#SVGID_00000047780919801194477830000016018003104477964449_);" d="M865.4,360.4c-0.1,12-4.6,21-10.1,20.9
				c-5.5,0-9.4-9.1-9.3-21.1s4-21.6,9.5-21.6C861,338.7,865.4,348.4,865.4,360.4z"/>
			
				<linearGradient id="SVGID_00000156574344913664593930000017461335269682200985_" gradientUnits="userSpaceOnUse" x1="940.3451" y1="363.8726" x2="975.8607" y2="363.8726" gradientTransform="matrix(1 4.850000e-03 -4.850000e-03 1 19.0498 2.401)">
				<stop  offset="0.3083" style="stop-color:#1E344E"/>
				<stop  offset="0.8862" style="stop-color:#1E344E"/>
			</linearGradient>
			<path style="fill:url(#SVGID_00000156574344913664593930000017461335269682200985_);" d="M957.6,370.8
				c0.1-14.8,8.1-26.8,17.9-26.8c9.8,0,17.7,12.1,17.6,27c-0.1,14.8-8.1,26.8-17.9,26.8C965.4,397.8,957.5,385.7,957.6,370.8z"/>
			
				<linearGradient id="SVGID_00000180368452478291154390000005264826132281946533_" gradientUnits="userSpaceOnUse" x1="1080.722" y1="342.2739" x2="1081.7178" y2="395.7071" gradientTransform="matrix(1 4.850000e-03 -4.850000e-03 1 19.0498 2.4009)">
				<stop  offset="3.731000e-02" style="stop-color:#FFFFFF"/>
				<stop  offset="0.1536" style="stop-color:#E7EDF8"/>
				<stop  offset="0.2414" style="stop-color:#D2DDF1"/>
				<stop  offset="0.3486" style="stop-color:#BAC6DB"/>
				<stop  offset="0.5756" style="stop-color:#7C8CA3"/>
				<stop  offset="0.8862" style="stop-color:#1E344E"/>
			</linearGradient>
			<path style="fill:url(#SVGID_00000180368452478291154390000005264826132281946533_);" d="M1125,380.1
				c-9.2,15.5-29.2,20.5-44.7,11.3c-3.1-1.8-5.8-4.2-8.2-6.9"/>
			
				<linearGradient id="SVGID_00000110446930773392571900000014414694365396222095_" gradientUnits="userSpaceOnUse" x1="959.0869" y1="302.1142" x2="1105.1768" y2="302.1142" gradientTransform="matrix(1 4.850000e-03 -4.850000e-03 1 19.0498 2.4009)">
				<stop  offset="3.731000e-02" style="stop-color:#FFFFFF;stop-opacity:0.2"/>
				<stop  offset="0.2435" style="stop-color:#E7EDF8;stop-opacity:0.3056"/>
				<stop  offset="0.4022" style="stop-color:#D2DDF1;stop-opacity:0.4"/>
			</linearGradient>
			<path style="fill:url(#SVGID_00000110446930773392571900000014414694365396222095_);" d="M976.7,302.7c0,0,19.5,1.7,44.4,6.2
				c16.6,3.1,37.4,8.7,37.4,8.7l30.5-0.4l0.9,1l8.5,0l0.7-1.2l23.5-0.2c-1.5-1.6-3.2-3-5-4.4c-3-2.3-15.2-5.5-22.4-7
				c-10.5-2.2-17.9-4.1-19.4-4.5C1023.5,302.1,976.7,302.7,976.7,302.7z"/>
			
				<linearGradient id="SVGID_00000101810387669286046660000004253069721832268712_" gradientUnits="userSpaceOnUse" x1="837.9557" y1="316.1695" x2="1052.5928" y2="243.7771" gradientTransform="matrix(1 0 0 1 0 2)">
				<stop  offset="2.695000e-02" style="stop-color:#CFD9E6"/>
				<stop  offset="5.896000e-02" style="stop-color:#C1CCDA"/>
				<stop  offset="0.1668" style="stop-color:#96A4B5"/>
				<stop  offset="0.28" style="stop-color:#718195"/>
				<stop  offset="0.3977" style="stop-color:#53657B"/>
				<stop  offset="0.5211" style="stop-color:#3B4F67"/>
				<stop  offset="0.653" style="stop-color:#2B4059"/>
				<stop  offset="0.799" style="stop-color:#213751"/>
				<stop  offset="0.9871" style="stop-color:#1E344E"/>
			</linearGradient>
			<path style="fill:url(#SVGID_00000101810387669286046660000004253069721832268712_);" d="M860.4,296c-0.2,0.4,11.6,4.2,11.6,4.2
				c1.6,0.4,3.3,0.8,5,1c1.4,0.1,70.8,1.1,73.4,1.1c12.2,0.2,15.8-0.3,15.8-0.3s-17.1-22-26.8-28c-7.3-4.5-11.8-4.8-19-4.7
				c-27,0.8-41.9,8.4-46.1,10.9C868,283.7,862.7,291.5,860.4,296z"/>
			
				<linearGradient id="SVGID_00000172429927985732818250000015754822240562531464_" gradientUnits="userSpaceOnUse" x1="902.6977" y1="243.1964" x2="1082.5459" y2="320.8498" gradientTransform="matrix(1 0 0 1 0 2)">
				<stop  offset="0" style="stop-color:#CFD9E6"/>
				<stop  offset="0.2817" style="stop-color:#94A2B3"/>
				<stop  offset="0.7057" style="stop-color:#3F536B"/>
				<stop  offset="0.8993" style="stop-color:#1E344E"/>
				<stop  offset="0.9871" style="stop-color:#1E344E"/>
			</linearGradient>
			<path style="fill:url(#SVGID_00000172429927985732818250000015754822240562531464_);" d="M975.3,301.1c0,0-11.9-13-17.8-19.1
				c-5.9-6-15.8-13.6-15.8-13.6s21.7-1.7,39.2-0.9c16.1,0.7,34.5,1.7,45.7,6.6c2.2,1,46,25.4,46,25.4L975.3,301.1z"/>
			
				<linearGradient id="SVGID_00000164472437522998587910000012718380158987755948_" gradientUnits="userSpaceOnUse" x1="888.0865" y1="278.3114" x2="904.1775" y2="281.5107" gradientTransform="matrix(1 4.850000e-03 -4.850000e-03 1 19.0498 2.4009)">
				<stop  offset="0.3083" style="stop-color:#1E344E"/>
				<stop  offset="0.8862" style="stop-color:#1E344E"/>
			</linearGradient>
			<polygon style="fill:url(#SVGID_00000164472437522998587910000012718380158987755948_);" points="909.4,301.7 900.9,301.5 
				910.2,269.9 915.4,269.5 			"/>
			
				<linearGradient id="SVGID_00000155857871782997485800000014442203981618775460_" gradientUnits="userSpaceOnUse" x1="859.8895" y1="279.5809" x2="867.3379" y2="282.1331" gradientTransform="matrix(1 4.850000e-03 -4.850000e-03 1 19.0498 2.4009)">
				<stop  offset="0.3083" style="stop-color:#1E344E"/>
				<stop  offset="0.8862" style="stop-color:#1E344E"/>
			</linearGradient>
			<path style="fill:url(#SVGID_00000155857871782997485800000014442203981618775460_);" d="M883.1,276l-12.6,23.6
				c1.7,0.6,3.4,1.1,5.2,1.4c1.3,0.2,2.7,0.2,4,0.3l8.7-27.2L883.1,276z"/>
			
				<linearGradient id="SVGID_00000006672260270431300230000016025650385188762784_" gradientUnits="userSpaceOnUse" x1="977.9299" y1="338.6388" x2="1049.2343" y2="309.824" gradientTransform="matrix(1 0 0 1 0 2)">
				<stop  offset="0.1997" style="stop-color:#D2DDF1"/>
				<stop  offset="0.3601" style="stop-color:#DAE3F4"/>
				<stop  offset="0.6093" style="stop-color:#F0F4FA"/>
				<stop  offset="0.7462" style="stop-color:#FFFFFF"/>
			</linearGradient>
			<path style="fill:url(#SVGID_00000006672260270431300230000016025650385188762784_);" d="M997.9,315.5l10.4,15.7
				c0.3,0.6,1,0.9,1.6,0.9l36.2,0.1c0.6,0,1.2-0.4,1.5-0.9l5.6-8c0.5-0.9,0.1-2-0.7-2.5c-0.2-0.1-0.5-0.2-0.7-0.2l-52.1-7.9
				c-1-0.1-1.9,0.6-2,1.6C997.7,314.8,997.7,315.2,997.9,315.5z"/>
			
				<linearGradient id="SVGID_00000083068865880803268110000015428629972062962574_" gradientUnits="userSpaceOnUse" x1="-2196.1304" y1="357.4019" x2="-2188.2969" y2="358.4185" gradientTransform="matrix(-0.9998 2.113000e-02 2.113000e-02 0.9998 -1069.3134 13.6198)">
				<stop  offset="0.1997" style="stop-color:#D2DDF1"/>
				<stop  offset="0.3601" style="stop-color:#DAE3F4"/>
				<stop  offset="0.6093" style="stop-color:#F0F4FA"/>
				<stop  offset="0.7462" style="stop-color:#FFFFFF"/>
			</linearGradient>
			<path style="fill:url(#SVGID_00000083068865880803268110000015428629972062962574_);" d="M1132.3,331.3c-0.6,0-1.2-0.4-1.5-0.9
				l-4.4-7.8c-0.6-1.1-1.6-3.3-0.3-3.4c0,0,2.2,3.7,3,5.3C1129.9,326.1,1132.3,331.3,1132.3,331.3z"/>
			
				<linearGradient id="SVGID_00000145741923855811250610000002199113612019348377_" gradientUnits="userSpaceOnUse" x1="1063.9546" y1="377.0824" x2="1091.1255" y2="377.0824" gradientTransform="matrix(1 4.850000e-03 -4.850000e-03 1 19.0498 2.4009)">
				<stop  offset="0.3083" style="stop-color:#1E344E"/>
				<stop  offset="0.8862" style="stop-color:#1E344E"/>
			</linearGradient>
			<path style="fill:url(#SVGID_00000145741923855811250610000002199113612019348377_);" d="M1108.4,381.6c-3.9,4-9.3,6.3-14.9,6.4
				c-4.4,0-8.8-1.5-12.3-4.3"/>
			
				<linearGradient id="SVGID_00000042728577414268963610000018037425501872794289_" gradientUnits="userSpaceOnUse" x1="864.6278" y1="287.9564" x2="927.9959" y2="316.1607" gradientTransform="matrix(1 0 0 1 0 2)">
				<stop  offset="0.1517" style="stop-color:#D2DDF1;stop-opacity:0"/>
				<stop  offset="0.2546" style="stop-color:#D2DDF1;stop-opacity:0.1002"/>
				<stop  offset="0.4726" style="stop-color:#D2DDF1;stop-opacity:0.358"/>
				<stop  offset="0.7856" style="stop-color:#D2DDF1;stop-opacity:0.7674"/>
				<stop  offset="0.8826" style="stop-color:#D2DDF1;stop-opacity:0.9"/>
			</linearGradient>
			<path style="fill:url(#SVGID_00000042728577414268963610000018037425501872794289_);" d="M852.1,311c0,0,0.6-3.6,7-4.9
				c7.7-1.2,115.1,6,115.1,6L852.1,311z"/>
			
				<linearGradient id="SVGID_00000005980140319794427400000014066924844074325911_" gradientUnits="userSpaceOnUse" x1="856.9777" y1="304.905" x2="859.6982" y2="378.3616" gradientTransform="matrix(1 0 0 1 0 2)">
				<stop  offset="0" style="stop-color:#ECD6C8"/>
				<stop  offset="0.2456" style="stop-color:#EEC7B5"/>
				<stop  offset="0.8103" style="stop-color:#F2A68D"/>
			</linearGradient>
			<path style="fill:url(#SVGID_00000005980140319794427400000014066924844074325911_);" d="M839.6,334.1c0,0,2.9,3.9,12.5,1.3
				c7.4-2,18.6-2.4,19.9-2.4c0.6,0,0.9,3.7-1.6,5.2c-1.7,1-11.4,3.6-14.1,5.2c-1.1,0.7-1.1,1,0,1.7c2.1,1.3,12.1,3.3,13.7,3.2
				c5.6-0.4,12.9-2.8,15.8-2.3c1,0.2,2,0.7,2.9,1.4c0,0,4.3-0.7,5.3,2.2c0.2,0.7-2.2,1.9-2.2,1.9s1.9,1.2,1.4,1.9
				c-0.6,0.8-1.3,1.1-3.2,2.5c0,0,1.1,0.7,0.8,1c-2.2,1.9-6.5,3.9-7.3,4.3c-3.7,2-7.2,2.5-11.4,3.4c-1.9,0.4-23.6,1.3-27,0
				c-9-3.6-19.7-19.1-21.7-23.1c-4.8-9.9,16.2-21.7,16.2-21.7L839.6,334.1z"/>
			
				<linearGradient id="SVGID_00000052065950027272544950000003850248969585271483_" gradientUnits="userSpaceOnUse" x1="1207.2479" y1="310.7368" x2="1151.032" y2="391.0455" gradientTransform="matrix(1 0 0 1 0 2)">
				<stop  offset="2.500000e-03" style="stop-color:#FFFFFF"/>
				<stop  offset="9.053001e-02" style="stop-color:#D2DDF1"/>
				<stop  offset="0.332" style="stop-color:#CED9EE"/>
				<stop  offset="0.3938" style="stop-color:#C5D1E6"/>
				<stop  offset="0.4945" style="stop-color:#ADBAD0"/>
				<stop  offset="0.6218" style="stop-color:#8595AC"/>
				<stop  offset="0.7689" style="stop-color:#4F627A"/>
				<stop  offset="0.8862" style="stop-color:#1E344E"/>
			</linearGradient>
			<path style="fill:url(#SVGID_00000052065950027272544950000003850248969585271483_);" d="M1168.2,305L1168.2,305l-0.1,94.5
				c0,0,31.8-6.3,31.8-13.9C1200,355,1188.1,326.9,1168.2,305z"/>
			
				<linearGradient id="SVGID_00000140707417545087225180000016866241584648727976_" gradientUnits="userSpaceOnUse" x1="1129.1741" y1="280.7473" x2="1159.9668" y2="371.5336" gradientTransform="matrix(1 0 0 1 0 2)">
				<stop  offset="0" style="stop-color:#FFFFFF"/>
				<stop  offset="0.1248" style="stop-color:#F9FAFC"/>
				<stop  offset="0.294" style="stop-color:#E8ECF5"/>
				<stop  offset="0.4878" style="stop-color:#CBD5EA"/>
				<stop  offset="0.4955" style="stop-color:#CAD4E9"/>
				<stop  offset="0.7249" style="stop-color:#75859D"/>
				<stop  offset="0.9119" style="stop-color:#364B64"/>
				<stop  offset="1" style="stop-color:#1E344E"/>
			</linearGradient>
			<path style="fill:url(#SVGID_00000140707417545087225180000016866241584648727976_);" d="M1168.1,403.1v-98l-0.1-0.1
				c-19.9,21.9-31.8,50-31.8,80.6c0,7.1,0.7,9.5,1.9,16.2L1168.1,403.1z"/>
			
				<linearGradient id="SVGID_00000143588003326875164010000016012118962703389866_" gradientUnits="userSpaceOnUse" x1="1107.9857" y1="270.0596" x2="1102.0187" y2="405.3114" gradientTransform="matrix(1 0 0 1 0 2)">
				<stop  offset="0" style="stop-color:#ECD6C8"/>
				<stop  offset="0.2946" style="stop-color:#EEC7B5"/>
				<stop  offset="0.972" style="stop-color:#F2A68D"/>
			</linearGradient>
			<path style="fill:url(#SVGID_00000143588003326875164010000016012118962703389866_);" d="M1198.5,368.7
				c0,0-113.9,12.2-146.4,12.6c-4.5,0.1-4.6-3.6-14-6.9c-8.3-2.9-15.1-2.9-22.8-6.3c-4-1.8-11.2-4.6-12.5-5.1
				c-0.2-0.1-0.5,0-0.6,0.2c-0.8,1.5-0.8,3.3,0.1,4.8c1.6,2.5,10.6,8.2,13.9,10.2c0.4,0.3,1.3,0.9,0.8,0.9
				c-3.9,0.3-13.7,0.7-16.1,0.6c-3-0.2-12.3-1.3-16.1-2c-2-0.4-7.1,0.3-6.7,4.6c-0.9,0.1-1.8,0.5-2.5,1.1c-1.1,1-2,2.9-1.5,3.3
				c1.6,0.9,3.3,1.6,5.1,2.2c-0.9,0-1.8,0.5-2.3,1.3c-0.6,0.9-1,2.1-0.5,2.4c1,0.5,6,2.6,6,2.6s-1,1.3-0.6,1.5
				c1.4,0.7,5.6,2.5,7.7,3.3c2.8,1,18.8,3.9,27.1,4.3c4.6,0.2,39.1-4.1,47.5-3.6c8.5,0.4,45.8,3.1,67.7,4.4s85.7,0.5,91.4-0.6
				c5.7-1.1,11.4-22.7,8-61.8c-2.6-30.1-15.4-52.8-15.4-52.8s-6.6,2.7-19.4,12.3c-12,9-18.1,16.2-18.1,16.2
				c5,6.9,9.1,14.3,12.3,22.2C1197.3,356.9,1198.5,368.7,1198.5,368.7z"/>
			
				<linearGradient id="SVGID_00000016777463199471136430000003488392515154316727_" gradientUnits="userSpaceOnUse" x1="1019.0614" y1="365.3299" x2="1049.595" y2="325.8158" gradientTransform="matrix(1 0 0 1 0 2)">
				<stop  offset="0.2869" style="stop-color:#D2DDF1;stop-opacity:0"/>
				<stop  offset="0.4284" style="stop-color:#D2DDF1;stop-opacity:9.993000e-02"/>
				<stop  offset="0.7257" style="stop-color:#D2DDF1;stop-opacity:0.355"/>
				<stop  offset="0.8826" style="stop-color:#D2DDF1;stop-opacity:0.5"/>
			</linearGradient>
			<polygon style="fill:url(#SVGID_00000016777463199471136430000003488392515154316727_);" points="1048.3,336.2 1063.7,356.8 
				1006.9,335.8 			"/>
			
				<linearGradient id="SVGID_00000130632047334568018160000004888622047592345984_" gradientUnits="userSpaceOnUse" x1="1138.8314" y1="366.9428" x2="1123.4473" y2="329.8254" gradientTransform="matrix(1 0 0 1 0 2)">
				<stop  offset="0.3434" style="stop-color:#D2DDF1;stop-opacity:0"/>
				<stop  offset="0.4714" style="stop-color:#D2DDF1;stop-opacity:9.993000e-02"/>
				<stop  offset="0.7405" style="stop-color:#D2DDF1;stop-opacity:0.355"/>
				<stop  offset="0.8826" style="stop-color:#D2DDF1;stop-opacity:0.5"/>
			</linearGradient>
			<path style="fill:url(#SVGID_00000130632047334568018160000004888622047592345984_);" d="M1132.2,335.3l-8.4,18.8l11.1-5
				c0,0,1.3-4.3,1.2-6.5c-0.1-2.2-2.4-7.5-2.4-7.5L1132.2,335.3z"/>
			
				<linearGradient id="SVGID_00000157267530562770240770000004229239555570584961_" gradientUnits="userSpaceOnUse" x1="1016.5204" y1="230.2743" x2="1020.5982" y2="129.9605" gradientTransform="matrix(1 0 0 1 0 2)">
				<stop  offset="0" style="stop-color:#ECD6C8"/>
				<stop  offset="0.2456" style="stop-color:#EEC7B5"/>
				<stop  offset="0.8103" style="stop-color:#F2A68D"/>
			</linearGradient>
			<path style="fill:url(#SVGID_00000157267530562770240770000004229239555570584961_);" d="M967.9,135.4c0,0-3.7,24.6,10,49.2
				c1.8,3.1,10.4,5.4,12.4,5.9c0.3,0.1,0.5,0.2,0.7,0.4c1.3,1.4,6.4,7.5,10.1,21.5c1.1,4.1,7.2,0.6,11.4,2.6c9.7,4.5,7,3.5,22.9,11
				c4.7,2.2,17.3-1,25.9-11.4c7.5-9.2,8.3-14.2,9.6-26.4c1.3-12.2-5.3-29.7-5.3-29.7s6.7,0.4,6.7-12.5c0-3.6-0.2-2.9-0.2-2.9
				s-27.4,15.3-47.2,16.2C996.4,160.6,967.9,135.4,967.9,135.4z"/>
			
				<linearGradient id="SVGID_00000057834871178499886690000005999688593696624059_" gradientUnits="userSpaceOnUse" x1="1026.443" y1="196.5222" x2="1017.9493" y2="183.9333" gradientTransform="matrix(1 0 0 1 0 2)">
				<stop  offset="0" style="stop-color:#F19B7F;stop-opacity:0"/>
				<stop  offset="9.630000e-02" style="stop-color:#F19B7F;stop-opacity:2.511000e-02"/>
				<stop  offset="0.226" style="stop-color:#F19B7F;stop-opacity:9.620000e-02"/>
				<stop  offset="0.3747" style="stop-color:#F19B7F;stop-opacity:0.2132"/>
				<stop  offset="0.5376" style="stop-color:#F19B7F;stop-opacity:0.3764"/>
				<stop  offset="0.712" style="stop-color:#F19B7F;stop-opacity:0.5858"/>
				<stop  offset="0.8933" style="stop-color:#F19B7F;stop-opacity:0.8372"/>
				<stop  offset="1" style="stop-color:#F19B7F"/>
			</linearGradient>
			<path style="fill:url(#SVGID_00000057834871178499886690000005999688593696624059_);" d="M1006.9,186.2c0,0,3.9-0.6,8.9-4.2
				c2.6-1.9,4.7-4.3,6.3-7.1c0,0,2.8,1.5,3.2,2.6c1.1,3-1.2,7.5-6.2,11.9s-9.7,3.8-10,2.5C1008.1,187,1006.9,186.2,1006.9,186.2z"/>
		</g>
	</g>
</g>
</svg>
