<?xml version="1.0" encoding="utf-8"?>
<!-- Generator: Adobe Illustrator 26.2.1, SVG Export Plug-In . SVG Version: 6.00 Build 0)  -->
<svg version="1.1" id="Layer_1" xmlns="http://www.w3.org/2000/svg" xmlns:xlink="http://www.w3.org/1999/xlink" x="0px" y="0px"
	 viewBox="0 0 414.00003 736" style="enable-background:new 0 0 414.00003 736;" xml:space="preserve">
<style type="text/css">
	.st0{fill:url(#SVGID_1_);}
	.st1{fill:url(#SVGID_00000069380256060044439330000016242090087966510469_);}
	.st2{fill:url(#SVGID_00000000912547599649515390000010370685996134239125_);}
	.st3{fill:url(#SVGID_00000044156935325923512320000009327879744530196386_);}
	.st4{fill:url(#SVGID_00000087390021589177654930000007303741383948915627_);}
	.st5{fill:url(#SVGID_00000124136334208379320460000016297254163360733358_);}
	.st6{fill:url(#SVGID_00000149365537059985765560000004532675564318006660_);}
	.st7{fill:url(#SVGID_00000135670387343070899530000008064973969583857803_);}
	.st8{fill:url(#SVGID_00000167364799080171352540000004636975520202990722_);}
	.st9{fill:url(#SVGID_00000122703821349047124560000002148846823334734518_);}
	.st10{fill:url(#SVGID_00000033326787774790416200000015596633445957149629_);}
	.st11{fill:url(#SVGID_00000098921703739807825300000016396965749126541239_);}
	.st12{fill:url(#SVGID_00000177465451790298697730000003887487976771849650_);}
	.st13{fill:url(#SVGID_00000067934486468792436550000007646317374107272347_);}
	.st14{fill:url(#SVGID_00000160907907882303624730000008898493471847846803_);}
	.st15{fill:url(#SVGID_00000023272504468422711050000007510377465160598704_);}
	.st16{fill:url(#SVGID_00000083795131101564371420000012002197353771564456_);}
	.st17{fill:url(#SVGID_00000086653785278471353880000005647521903563060373_);}
	.st18{fill:url(#SVGID_00000155123367919511807200000003305781968472096941_);}
	.st19{fill:url(#SVGID_00000090979047666484532900000000194432183020976551_);}
	.st20{fill:url(#SVGID_00000059277147386764128050000008657308555171581884_);}
	.st21{fill:url(#SVGID_00000180351484785564785470000004287684558468167099_);}
	.st22{fill:url(#SVGID_00000030465677141402163810000009744788051384918428_);}
	.st23{fill:url(#SVGID_00000085215003430084801580000011748536076856761520_);}
	.st24{fill:url(#SVGID_00000106121246521902962990000010370269114638392750_);}
	.st25{fill:url(#SVGID_00000151503790623700836700000012769774109093773497_);}
	.st26{fill:url(#SVGID_00000022561210595007285190000009207613436868905407_);}
	.st27{fill:url(#SVGID_00000084515875429998264800000015966714311839466172_);}
	.st28{fill:url(#SVGID_00000057866469487731201740000001518785852151148197_);}
	.st29{fill:url(#SVGID_00000146473414555041419620000018272215228550272141_);}
	.st30{fill:url(#SVGID_00000137823428887684261790000012567355555830001335_);}
	.st31{fill:url(#SVGID_00000178178344260565479110000003469224113107826090_);}
	.st32{fill:url(#SVGID_00000157303936143354331390000014125279120782593958_);}
	.st33{fill:url(#SVGID_00000130611806094897765330000008721206271626093217_);}
	.st34{fill:url(#SVGID_00000098203113411892392980000016259365429698077832_);}
	.st35{fill:url(#SVGID_00000074415441645050854240000009816225435399799681_);}
	.st36{fill:url(#SVGID_00000103962789522223127190000001503769876722724516_);}
	.st37{fill:url(#SVGID_00000041274583642210892690000001907111825272962216_);}
	.st38{fill:url(#SVGID_00000109013352433696089830000009189414525987057800_);}
	.st39{fill:url(#SVGID_00000119100539993908009690000013924574891052063399_);}
	.st40{fill:url(#SVGID_00000005957835049499314660000017305551120628535721_);}
</style>
<g>
	
		<linearGradient id="SVGID_1_" gradientUnits="userSpaceOnUse" x1="-8.76694" y1="355.13342" x2="462.81317" y2="530.23511" gradientTransform="matrix(1 0 0 1 0 2)">
		<stop  offset="0.05275" style="stop-color:#D2DDF1;stop-opacity:0.3"/>
		<stop  offset="0.16474" style="stop-color:#B8C7DD;stop-opacity:0.33257"/>
		<stop  offset="0.31932" style="stop-color:#6E89A4;stop-opacity:0.42381"/>
		<stop  offset="0.41672" style="stop-color:#305575;stop-opacity:0.5"/>
		<stop  offset="0.83517" style="stop-color:#243750"/>
		<stop  offset="0.85432" style="stop-color:#243750;stop-opacity:0"/>
	</linearGradient>
	<circle class="st0" cx="176.45108" cy="425.90646" r="161.11159"/>
	
		<linearGradient id="SVGID_00000060752972170163350900000005576024930390688659_" gradientUnits="userSpaceOnUse" x1="221.59032" y1="221.31117" x2="116.33444" y2="629.02631" gradientTransform="matrix(1 0 0 1 0 2)">
		<stop  offset="0.05275" style="stop-color:#D2DDF1"/>
		<stop  offset="0.10544" style="stop-color:#CCD8EC"/>
		<stop  offset="0.17839" style="stop-color:#BAC9DE"/>
		<stop  offset="0.2632" style="stop-color:#9CB0C8"/>
		<stop  offset="0.3569" style="stop-color:#738EA9"/>
		<stop  offset="0.45682" style="stop-color:#406281"/>
		<stop  offset="0.4843" style="stop-color:#305575"/>
		<stop  offset="0.64342" style="stop-color:#243750"/>
		<stop  offset="0.79612" style="stop-color:#243750;stop-opacity:0"/>
	</linearGradient>
	<path style="fill:url(#SVGID_00000060752972170163350900000005576024930390688659_);" d="M342.50366,405.42569
		c0-92.74393-75.1839-167.92776-167.9278-167.92776S6.64811,312.68173,6.64811,405.42569
		c0,47.63474,17.96983,81.38669,49.8294,111.94913c50.33868-2.58868,201.43787,4.20367,240.92133,2.5694
		C326.43604,488.88757,342.5629,447.94244,342.50366,405.42569z"/>
	
		<linearGradient id="SVGID_00000179618595743316507390000008177620922777018289_" gradientUnits="userSpaceOnUse" x1="224.78751" y1="610.87433" x2="169.26538" y2="330.23306" gradientTransform="matrix(1 0 0 1 0 2)">
		<stop  offset="0.14338" style="stop-color:#F4D4C5;stop-opacity:0"/>
		<stop  offset="0.23952" style="stop-color:#276180;stop-opacity:0.1"/>
		<stop  offset="0.37506" style="stop-color:#6C8897;stop-opacity:0.4023"/>
		<stop  offset="0.64861" style="stop-color:#F4D4C5"/>
		<stop  offset="0.73379" style="stop-color:#F5DACD"/>
		<stop  offset="0.86329" style="stop-color:#F9E9E2"/>
		<stop  offset="1" style="stop-color:#FFFFFF"/>
	</linearGradient>
	
		<circle style="fill:url(#SVGID_00000179618595743316507390000008177620922777018289_);" cx="199.7758" cy="486.45056" r="175.4025"/>
	
		<linearGradient id="SVGID_00000023993516883723424570000016677850673408902316_" gradientUnits="userSpaceOnUse" x1="192.36546" y1="621.30701" x2="333.12906" y2="435.59375" gradientTransform="matrix(1 0 0 1 0 2)">
		<stop  offset="0.18116" style="stop-color:#28607F;stop-opacity:0"/>
		<stop  offset="0.31887" style="stop-color:#275E7D;stop-opacity:0.06904"/>
		<stop  offset="0.51606" style="stop-color:#245977;stop-opacity:0.2617"/>
		<stop  offset="0.74903" style="stop-color:#20506E;stop-opacity:0.57766"/>
		<stop  offset="1" style="stop-color:#1A4462"/>
	</linearGradient>
	
		<circle style="fill:url(#SVGID_00000023993516883723424570000016677850673408902316_);" cx="261.24371" cy="532.43402" r="116.16655"/>
	
		<linearGradient id="SVGID_00000003062761382853372140000007523704706791193994_" gradientUnits="userSpaceOnUse" x1="225.36467" y1="217.31836" x2="225.36467" y2="514.6319" gradientTransform="matrix(1 0 0 1 0 2)">
		<stop  offset="0.03588" style="stop-color:#FFFFFF"/>
		<stop  offset="0.08609" style="stop-color:#FCFDFE"/>
		<stop  offset="0.12202" style="stop-color:#F3F6FB"/>
		<stop  offset="0.1534" style="stop-color:#E3EAF6"/>
		<stop  offset="0.17673" style="stop-color:#D2DDF1"/>
		<stop  offset="0.25302" style="stop-color:#ABB8CD"/>
		<stop  offset="0.34976" style="stop-color:#8090A7"/>
		<stop  offset="0.44826" style="stop-color:#5D6F87"/>
		<stop  offset="0.54724" style="stop-color:#41556E"/>
		<stop  offset="0.64686" style="stop-color:#2E435C"/>
		<stop  offset="0.74759" style="stop-color:#223852"/>
		<stop  offset="0.85119" style="stop-color:#1E344E"/>
	</linearGradient>
	<path style="fill:url(#SVGID_00000003062761382853372140000007523704706791193994_);" d="M109.73326,435.19745
		c0,0,45.32961-29.96884,43.81216-74.03601c-1.16618-33.86832-21.87292-42.45798-8.46832-85.49988
		c6.1129-19.62848,34.55214-38.94098,63.67339-34.68323c33.99762,4.97073,89.48389,35.95667,114.79605,86.86673
		c8.49182,17.07947,14.13873,38.03625,16.57678,49.62152c8.64163,41.06662-47.03665,221.07217-160.51257,127.60818
		C165.87086,493.75812,109.73326,435.19745,109.73326,435.19745z"/>
	
		<linearGradient id="SVGID_00000010297283891983465690000012414854854535483790_" gradientUnits="userSpaceOnUse" x1="362.26437" y1="271.23688" x2="289.70105" y2="344.2746" gradientTransform="matrix(1 0 0 1 0 2)">
		<stop  offset="0" style="stop-color:#CFD9E6"/>
		<stop  offset="0.14954" style="stop-color:#B7C3D1"/>
		<stop  offset="0.46615" style="stop-color:#79899C"/>
		<stop  offset="0.88624" style="stop-color:#1E344E"/>
	</linearGradient>
	<path style="fill:url(#SVGID_00000010297283891983465690000012414854854535483790_);" d="M255.23181,299.02536
		c22.2326-10.82458,39.74594,4.94208,51.74951,17.56058c23.00247,24.18106,33.14188,60.88068,33.14188,60.88068
		c-9.58142-6.40826-26.54697-14.84418-26.54697-14.84418c-4.51123-2.77911-6.67661-4.42319-13.67242-10.45624
		c-24.48669-21.11652-47.04416-40.48514-47.04416-40.48514S255.75595,308.82117,255.23181,299.02536z"/>
	
		<linearGradient id="SVGID_00000085210786571690491630000011493701504772656558_" gradientUnits="userSpaceOnUse" x1="279.58615" y1="352.41345" x2="259.2142" y2="340.84741" gradientTransform="matrix(1 0 0 1 0 2)">
		<stop  offset="0" style="stop-color:#F19B7F;stop-opacity:0"/>
		<stop  offset="0.04277" style="stop-color:#F09A7F;stop-opacity:0.05639"/>
		<stop  offset="0.309" style="stop-color:#EA987C;stop-opacity:0.38787"/>
		<stop  offset="0.54721" style="stop-color:#E6957A;stop-opacity:0.6508"/>
		<stop  offset="0.74895" style="stop-color:#E39379;stop-opacity:0.84042"/>
		<stop  offset="0.90629" style="stop-color:#E19278;stop-opacity:0.95688"/>
		<stop  offset="1" style="stop-color:#E09278"/>
	</linearGradient>
	<path style="fill:url(#SVGID_00000085210786571690491630000011493701504772656558_);" d="M249.22307,313.79517l3.85693-2.06393
		c1.15993,0.99207,12.41408,10.80637,16.06108,13.94376c6.12708,5.27106,13.20468,11.36276,13.20468,11.36276
		c-3.20428,5.81668-5.83145,11.93307-7.84387,18.26166c-3.15717,10.62897-7.02487,19.87271-7.02487,19.87271
		s-3.63858-3.58472-9.21176-8.86691c-2.3127-2.19189-7.72697-6.77606-7.72697-6.77606s4.34995-11.22687,3.93663-21.86542
		C254.06158,327.02521,249.22307,313.79517,249.22307,313.79517z"/>
	
		<linearGradient id="SVGID_00000020358866644533188510000002791737401508730807_" gradientUnits="userSpaceOnUse" x1="96.40563" y1="377.12549" x2="96.40563" y2="430.79492" gradientTransform="matrix(1 0 0 1 0 2)">
		<stop  offset="0.03323" style="stop-color:#FFFFFF"/>
		<stop  offset="0.24562" style="stop-color:#D2DDF1"/>
		<stop  offset="0.33636" style="stop-color:#BAC6DB"/>
		<stop  offset="0.52845" style="stop-color:#7C8CA3"/>
		<stop  offset="0.79142" style="stop-color:#1E344E"/>
	</linearGradient>
	<path style="fill:url(#SVGID_00000020358866644533188510000002791737401508730807_);" d="M106.00441,465.90756V376.8085
		l-0.01504-0.01825c-20.72279,25.0184-25.04156,59.78955-11.06897,89.11734L106.00441,465.90756z"/>
	
		<linearGradient id="SVGID_00000152958398590279964300000017348171075842345914_" gradientUnits="userSpaceOnUse" x1="115.60326" y1="335.92603" x2="115.60326" y2="459.93436" gradientTransform="matrix(1 0 0 1 0 2)">
		<stop  offset="0" style="stop-color:#FFFFFF"/>
		<stop  offset="0.08947" style="stop-color:#FDFDFE"/>
		<stop  offset="0.13281" style="stop-color:#F5F8FC"/>
		<stop  offset="0.16611" style="stop-color:#E8EEF8"/>
		<stop  offset="0.19429" style="stop-color:#D6E0F2"/>
		<stop  offset="0.19899" style="stop-color:#D2DDF1"/>
		<stop  offset="0.23603" style="stop-color:#C0CCE1"/>
		<stop  offset="0.34665" style="stop-color:#8F9EB4"/>
		<stop  offset="0.45643" style="stop-color:#667890"/>
		<stop  offset="0.56331" style="stop-color:#475A73"/>
		<stop  offset="0.6665" style="stop-color:#30455E"/>
		<stop  offset="0.76432" style="stop-color:#233852"/>
		<stop  offset="0.85119" style="stop-color:#1E344E"/>
	</linearGradient>
	<path style="fill:url(#SVGID_00000152958398590279964300000017348171075842345914_);" d="M118.96931,461.67426
		c11.68351-28.51578,6.70503-61.14914-12.94987-84.884l-0.01503,0.01822v84.86578H118.96931z"/>
	
		<linearGradient id="SVGID_00000060017568930730751700000010196727599550803639_" gradientUnits="userSpaceOnUse" x1="20.69629" y1="404.44473" x2="78.94562" y2="471.43149" gradientTransform="matrix(1 0 0 1 0 2)">
		<stop  offset="0.0025" style="stop-color:#FFFFFF"/>
		<stop  offset="0.08728" style="stop-color:#D2DDF1"/>
		<stop  offset="0.18992" style="stop-color:#BAC6DB"/>
		<stop  offset="0.40722" style="stop-color:#7C8CA3"/>
		<stop  offset="0.70469" style="stop-color:#1E344E"/>
	</linearGradient>
	<path style="fill:url(#SVGID_00000060017568930730751700000010196727599550803639_);" d="M65.02886,516.8067V374.06738
		l-0.03183-0.03864c-26.28919,31.62143-40.66363,71.45691-40.62372,112.5791c-0.0055,10.29565-1.54317-2.22189,0.14288,7.59161
		l14.98939,14.74799L65.02886,516.8067z"/>
	
		<linearGradient id="SVGID_00000093870747353103847260000010909294014039778460_" gradientUnits="userSpaceOnUse" x1="85.35662" y1="312.237" x2="85.35662" y2="454.66809" gradientTransform="matrix(1 0 0 1 0 2)">
		<stop  offset="0" style="stop-color:#FFFFFF"/>
		<stop  offset="0.08947" style="stop-color:#FDFDFE"/>
		<stop  offset="0.13281" style="stop-color:#F5F8FC"/>
		<stop  offset="0.16611" style="stop-color:#E8EEF8"/>
		<stop  offset="0.19429" style="stop-color:#D6E0F2"/>
		<stop  offset="0.19899" style="stop-color:#D2DDF1"/>
		<stop  offset="0.23603" style="stop-color:#C0CCE1"/>
		<stop  offset="0.34665" style="stop-color:#8F9EB4"/>
		<stop  offset="0.45643" style="stop-color:#667890"/>
		<stop  offset="0.56331" style="stop-color:#475A73"/>
		<stop  offset="0.6665" style="stop-color:#30455E"/>
		<stop  offset="0.76432" style="stop-color:#233852"/>
		<stop  offset="0.85119" style="stop-color:#1E344E"/>
	</linearGradient>
	<path style="fill:url(#SVGID_00000093870747353103847260000010909294014039778460_);" d="M104.27728,509.0809
		c0.94221-7.45392,1.41216-14.9599,1.40707-22.47308c0.03996-41.12222-14.33453-80.95767-40.62372-112.57907l-0.03183,0.0386
		V509.0809H104.27728z"/>
	
		<linearGradient id="SVGID_00000142883486184285582110000000765387753950297751_" gradientUnits="userSpaceOnUse" x1="294.31857" y1="448.76529" x2="218.05101" y2="370.95184" gradientTransform="matrix(1 0 0 1 0 2)">
		<stop  offset="0" style="stop-color:#ECD6C8"/>
		<stop  offset="0.29461" style="stop-color:#EEC7B5"/>
		<stop  offset="0.97203" style="stop-color:#F2A68D"/>
	</linearGradient>
	<path style="fill:url(#SVGID_00000142883486184285582110000000765387753950297751_);" d="M250.80826,360.16113
		c0,0,23.86765,19.92847,23.57404,25.55801c-0.03113,0.5986-22.87483,22.71524-41.92479,41.22644
		c-14.51521,14.10483-26.48735,25.87094-26.48735,25.87094l-13.93098,13.32993l10.62288,8.24673
		c0,0,12.56416,3.05655,22.213,7.71466c5.81297-4.19537,19.22653-16.09808,24.61682-19.96738
		c1.84392-1.32349,3.65039-2.52621,5.42001-3.60809c26.54277-16.28787,44.77626-7.21057,56.08202-14.01309
		c24.60312-14.80374,29.47055-66.40646,29.47055-66.40646s-11.2338-7.86255-16.81528-10.65036
		c-15.13522-7.55966-23.39359-14.64673-33.55487-23.39172c-25.57993-22.01434-43.6786-37.61261-43.6786-37.61261
		L250.80826,360.16113z"/>
	
		<linearGradient id="SVGID_00000039850978772423485010000009629260034442227848_" gradientUnits="userSpaceOnUse" x1="304.50708" y1="373.36209" x2="321.26022" y2="524.1413" gradientTransform="matrix(1 0 0 1 0 2)">
		<stop  offset="0" style="stop-color:#D2DDF1"/>
		<stop  offset="0.15258" style="stop-color:#BAC6DB"/>
		<stop  offset="0.4756" style="stop-color:#7C8CA3"/>
		<stop  offset="0.91781" style="stop-color:#1E344E"/>
	</linearGradient>
	<path style="fill:url(#SVGID_00000039850978772423485010000009629260034442227848_);" d="M259.68369,400.4444
		c0,0,6.37128,51.11728,38.80051,32.45206c21.48203-12.36438,41.63901-55.42987,41.63901-55.42987
		s35.26562,22.68445,55.40997,66.45035c2.78467,6.05005-1.17993,49.15244-1.17993,49.15244s-4.66721,30.79758-16.54218,29.13089
		c-11.87506-1.66669-46.74036,2.94482-46.74036,2.94482l-7.77274,1.99982l-82.70566,6.98297l9.73206-51.14957l4.78175-25.1322
		l-28.09062-26.26712L259.68369,400.4444z"/>
	
		<linearGradient id="SVGID_00000122713662495844118970000005535116711622464167_" gradientUnits="userSpaceOnUse" x1="255.8013" y1="438.59042" x2="279.07108" y2="507.19659" gradientTransform="matrix(0.99999 0.00485 -0.00485 0.99999 19.61722 4.78829)">
		<stop  offset="0" style="stop-color:#FFFFFF"/>
		<stop  offset="0.07541" style="stop-color:#F0F3F9"/>
		<stop  offset="0.21728" style="stop-color:#DBE2F0"/>
		<stop  offset="0.35541" style="stop-color:#CED8EB"/>
		<stop  offset="0.48442" style="stop-color:#CAD4E9"/>
		<stop  offset="0.56268" style="stop-color:#B6C2D7"/>
		<stop  offset="0.7226" style="stop-color:#8392A9"/>
		<stop  offset="0.94818" style="stop-color:#324660"/>
		<stop  offset="1" style="stop-color:#1E344E"/>
	</linearGradient>
	<path style="fill:url(#SVGID_00000122713662495844118970000005535116711622464167_);" d="M302.06778,534.9679l0.3107-63.97983
		l-0.03394-0.03781c-12.62729,13.76459-20.25751,31.47516-20.33838,50.82666c-0.01825,4.39111,0.35776,8.77509,1.12308,13.09906
		L302.06778,534.9679z"/>
	
		<linearGradient id="SVGID_00000098186008698853150210000004391466914523954079_" gradientUnits="userSpaceOnUse" x1="-16.03543" y1="449.72784" x2="183.13161" y2="506.96271" gradientTransform="matrix(0.99999 0.00485 -0.00485 0.99999 19.61722 4.78829)">
		<stop  offset="0.30834" style="stop-color:#1E344E"/>
		<stop  offset="0.88624" style="stop-color:#1E344E"/>
	</linearGradient>
	<polygon style="fill:url(#SVGID_00000098186008698853150210000004391466914523954079_);" points="209.46484,529.8269 
		144.76326,527.11603 33.68291,507.77679 35.16985,463.66806 209.74828,471.50613 	"/>
	
		<radialGradient id="SVGID_00000183928467793062250190000011101854230948713642_" cx="333.57526" cy="500.81384" r="51.66449" gradientTransform="matrix(0.81254 0.00394 -0.00485 0.99999 -217.91502 3.63742)" gradientUnits="userSpaceOnUse">
		<stop  offset="0" style="stop-color:#D2DDF1"/>
		<stop  offset="0.25154" style="stop-color:#8E9DB3"/>
		<stop  offset="0.64048" style="stop-color:#1E344E"/>
	</radialGradient>
	<path style="fill:url(#SVGID_00000183928467793062250190000011101854230948713642_);" d="M75.49733,505.55896
		c-0.07285,12.98138-4.20579,21.52594-8.29484,24.92542c-1.02102,0.61383-2.1638,0.99707-3.34842,1.12299
		c-4.68277,0.21729-15.14257,0.90283-17.32557,0.28131c-7.55444-2.15051-11.38955-14.49371-11.33081-26.58398
		c0.04939-10.17471,3.09489-17.95535,8.84127-22.76508c1.0013-0.74954,2.12986-1.31198,3.33121-1.66022
		c4.89446-0.8775,15.90579-0.44156,18.56559,1.96262C71.57094,487.93536,75.55379,495.49362,75.49733,505.55896z"/>
	
		<radialGradient id="SVGID_00000116921434568688398290000013354147424638505885_" cx="280.41632" cy="511.69791" r="65.25272" gradientTransform="matrix(0.92356 0.00448 -0.00485 0.99999 -86.23258 4.277)" gradientUnits="userSpaceOnUse">
		<stop  offset="0" style="stop-color:#D2DDF1"/>
		<stop  offset="0.28274" style="stop-color:#8E9DB3"/>
		<stop  offset="0.71994" style="stop-color:#1E344E"/>
	</radialGradient>
	<path style="fill:url(#SVGID_00000116921434568688398290000013354147424638505885_);" d="M199.34563,516.07544
		c-0.09279,16.2345-5.96053,26.91687-11.77034,31.16492c-1.47893,0.77484-3.09593,1.2511-4.75877,1.40149
		c-6.65622,0.26788-18.0164,1.43127-21.18735,1.00159c-14.3875-1.94983-20.50612-18.73029-20.43269-33.85034
		c0.06178-12.72446,5.24834-22.52151,13.41263-28.53177c1.45178-0.94946,3.05165-1.65021,4.73386-2.07352
		c6.95668-1.09335,22.60941-0.53897,26.39221,2.46985C194.52478,494.43353,199.57576,504.97971,199.34563,516.07544z"/>
	
		<linearGradient id="SVGID_00000014598606160793951180000016773884490209001350_" gradientUnits="userSpaceOnUse" x1="155.57256" y1="520.63879" x2="158.32932" y2="372.63843" gradientTransform="matrix(0.99999 0.00485 -0.00485 0.99999 19.61722 4.78829)">
		<stop  offset="0.07531" style="stop-color:#1E344E"/>
		<stop  offset="0.18942" style="stop-color:#52657D"/>
		<stop  offset="0.30607" style="stop-color:#7F8FA6"/>
		<stop  offset="0.41807" style="stop-color:#A3B1C7"/>
		<stop  offset="0.52256" style="stop-color:#BDC9DE"/>
		<stop  offset="0.61665" style="stop-color:#CDD8EC"/>
		<stop  offset="0.6914" style="stop-color:#D2DDF1"/>
	</linearGradient>
	<path style="fill:url(#SVGID_00000014598606160793951180000016773884490209001350_);" d="M34.59948,507.96466l-2.55454-0.34637
		c0,0-2.45876-7.32712-1.68781-13.61673c0.15365-1.91867,0.83852-3.75665,1.97785-5.30804c0,0,0.30291-20.79758,0.24013-21.74057
		c-0.06273-0.9426,1.65007-7.12689,3.54841-9.94455c1.40731-1.97296,3.01801-3.79257,4.80552-5.42896
		c0,0,6.07176-9.12552,10.26672-14.22882c2.14602-2.72818,4.63514-5.16788,7.40588-7.25867
		c4.47681-3.24503,12.05125-6.18661,17.81074-8.36115c21.96802-8.29416,53.7421-7.76398,60.33794-7.67737
		c9.06233,0.11877,36.1787-0.42352,60.43759,3.75375c5.93263,1.09732,11.71002,2.91098,17.20544,5.40115
		c5.03711,2.31332,46.6512,26.8143,46.6512,26.8143s6.31827,1.84839,16.00281,3.57806
		c9.68442,1.72968,22.85947,5.42862,27.0751,10.56485c4.21561,5.13617,3.88116,4.73071,7.01385,11.07315
		c2.04529,4.36584,3.82837,8.84973,5.33984,13.4278c0.44022,1.30164-0.0509,4.52335-0.0509,4.52335l-7.2424,31.20773
		l-0.68213,1.68311c0,0-54.03951,4.41461-58.88774,4.79492s-17.50702,1.26117-22.62323,1.37091
		c-5.11621,0.1098-36.18471-0.98334-36.18471-0.98334s-0.90271-19.36841-3.0204-28.81699
		c-2.0056-9.18222-6.37486-16.63013-12.15483-21.90851c-4.72723-4.31693-8.20724-5.23346-11.43349-5.40659
		c-4.77867-0.32455-9.49542,1.22833-13.1467,4.32825c-10.33752,8.80026-9.1814,23.81735-8.96608,26.89093
		c-1.61859,14.7403,0.10983,20.36707,0.10983,20.36707l-80.1266-10.68927c0,0,1.32715-12.40894,0.05289-20.29041
		c-1.27438-7.88193-6.5649-15.19608-8.19777-16.80045c-1.97153-2.14883-4.94724-3.06995-7.78801-2.41068
		c-3.67193,0.78543-6.05778,3.71536-7.58509,7.7883C33.43073,497.96375,34.59948,507.96466,34.59948,507.96466z"/>
	
		<linearGradient id="SVGID_00000072262832375238555270000009798583395957810343_" gradientUnits="userSpaceOnUse" x1="12.83364" y1="459.29337" x2="281.52957" y2="472.99625" gradientTransform="matrix(0.99999 0.00485 -0.00485 0.99999 19.61722 4.78829)">
		<stop  offset="0.29193" style="stop-color:#D2DDF1;stop-opacity:0.3"/>
		<stop  offset="0.57535" style="stop-color:#D2DDF1;stop-opacity:0.20051"/>
		<stop  offset="0.57666" style="stop-color:#D2DDF1;stop-opacity:0.2"/>
	</linearGradient>
	<path style="fill:url(#SVGID_00000072262832375238555270000009798583395957810343_);" d="M142.12692,481.73386
		c0,0-56.20027-5.64661-69.3396-4.04575c-4.10772,0.4472-8.04821,1.87308-11.49095,4.15796c0,0-6.01969-10.36246-12.53058-10.73438
		c-12.18033-0.69574-15.06083,16.65771-15.06083,16.65771l-1.35219,0.82663l0.25722-22.13168c0,0,6.36894-5.09674,6.07627-6.85245
		c-0.29261-1.75574-2.49515-2.84866-2.49515-2.84866c1.42252-1.86496,3.00812-3.59973,4.73794-5.18378
		c1.56143-2.48056,8.61741-12.44418,12.36271-16.62762c3.83441-4.28281,6.59321-5.77042,10.51849-7.99536
		c5.79705-3.28616,21.43674-9.71317,41.59301-11.41293c13.60057-1.14694,28.95789-1.42691,37.11392-1.38733
		c49.58243,0.24072,59.26321,4.2399,64.51237,6.08966c5.2491,1.84979,19.69855,9.53879,24.6205,12.45993
		c4.92207,2.92117,29.3945,17.31683,29.3945,17.31683s8.06891,2.18069,12.68005,2.84711
		c4.61105,0.66595,15.54431,3.18735,20.47003,5.35718c4.92569,2.17026,6.6395,2.8226,8.66937,4.65634
		c1.99814,1.86655,3.72189,4.00662,5.11993,6.35651c1.38416,2.25995,4.88828,9.89578,6.16183,12.79965
		c0.85577,2.13525,1.59265,4.31622,2.20737,6.53293c0.3877,1.33371,0.11118,4.51828,0.11118,4.51828l-4.99905,20.94836
		l-7.19852-10.1246l-56.00725,3.10175l-53.50038,23.46799c0,0,3.52243-38.4335-16.73859-54.83759
		c-4.35182-3.50595-9.72818-5.49738-15.31384-5.67221C149.76427,469.61945,142.12692,481.73386,142.12692,481.73386z"/>
	
		<linearGradient id="SVGID_00000088827013982610442840000006753743460807316105_" gradientUnits="userSpaceOnUse" x1="313.79529" y1="506.83148" x2="239.35304" y2="453.98459" gradientTransform="matrix(1 0 0 1 0 2)">
		<stop  offset="0.19968" style="stop-color:#D2DDF1"/>
		<stop  offset="0.3601" style="stop-color:#DAE3F4"/>
		<stop  offset="0.60932" style="stop-color:#F0F4FA"/>
		<stop  offset="0.74618" style="stop-color:#FFFFFF"/>
	</linearGradient>
	<polygon style="fill:url(#SVGID_00000088827013982610442840000006753743460807316105_);" points="235.79417,481.32455 
		243.12094,469.14374 272.4368,468.58389 273.20493,469.48828 281.43768,469.48361 282.10248,468.39285 304.70688,468.22137 
		310.63123,481.2948 304.68265,492.14365 246.17323,494.98447 	"/>
	
		<linearGradient id="SVGID_00000036230456121100241820000012536977903933806228_" gradientUnits="userSpaceOnUse" x1="221.29338" y1="475.72397" x2="291.3399" y2="475.72397" gradientTransform="matrix(0.99999 0.00485 -0.00485 0.99999 19.61722 4.78829)">
		<stop  offset="0.30834" style="stop-color:#1E344E"/>
		<stop  offset="0.88624" style="stop-color:#1E344E"/>
	</linearGradient>
	<polygon style="fill:url(#SVGID_00000036230456121100241820000012536977903933806228_);" points="244.63147,471.43335 
		238.60294,481.20709 247.23416,493.29233 303.73981,490.68799 308.65018,481.25955 303.82687,470.22745 283.10782,470.63074 
		282.33429,471.62363 272.19711,471.78958 271.39459,470.84293 	"/>
	
		<linearGradient id="SVGID_00000014601367188372174290000007344674863831585694_" gradientUnits="userSpaceOnUse" x1="21.40205" y1="502.02301" x2="40.0288" y2="502.02301" gradientTransform="matrix(0.99999 0.00485 -0.00485 0.99999 19.61722 4.78829)">
		<stop  offset="0.30834" style="stop-color:#1E344E"/>
		<stop  offset="0.88624" style="stop-color:#1E344E"/>
	</linearGradient>
	<path style="fill:url(#SVGID_00000014601367188372174290000007344674863831585694_);" d="M57.20908,507.35852
		c-0.05588,11.50537-4.4008,20.0954-9.70899,20.06958c-5.30819-0.02576-8.97309-8.72882-8.91722-20.23422
		s3.80785-20.74017,9.11604-20.71439C53.0071,486.50525,57.26495,495.85312,57.20908,507.35852z"/>
	
		<linearGradient id="SVGID_00000070818544362904376150000017903303566174339968_" gradientUnits="userSpaceOnUse" x1="128.51033" y1="511.94693" x2="162.55721" y2="511.94693" gradientTransform="matrix(0.99999 0.00485 -0.00485 0.99999 19.61716 4.78835)">
		<stop  offset="0.30834" style="stop-color:#1E344E"/>
		<stop  offset="0.88624" style="stop-color:#1E344E"/>
	</linearGradient>
	<path style="fill:url(#SVGID_00000070818544362904376150000017903303566174339968_);" d="M145.64326,517.35333
		c0.06911-14.23483,7.7467-25.73743,17.14839-25.6918c9.40169,0.04568,16.96724,11.62225,16.89815,25.85709
		c-0.06911,14.23486-7.7467,25.73743-17.14839,25.69183C153.13971,543.16473,145.57416,531.5882,145.64326,517.35333z"/>
	
		<linearGradient id="SVGID_00000167386080158912436720000002330708388243045822_" gradientUnits="userSpaceOnUse" x1="263.08234" y1="491.24139" x2="264.0369" y2="542.46503" gradientTransform="matrix(0.99999 0.00485 -0.00485 0.99999 19.61722 4.78829)">
		<stop  offset="0.03731" style="stop-color:#FFFFFF"/>
		<stop  offset="0.1536" style="stop-color:#E7EDF8"/>
		<stop  offset="0.24144" style="stop-color:#D2DDF1"/>
		<stop  offset="0.34863" style="stop-color:#BAC6DB"/>
		<stop  offset="0.57557" style="stop-color:#7C8CA3"/>
		<stop  offset="0.88624" style="stop-color:#1E344E"/>
	</linearGradient>
	<path style="fill:url(#SVGID_00000167386080158912436720000002330708388243045822_);" d="M306.06165,526.27405
		c-8.82547,14.81598-27.99057,19.6723-42.80667,10.8468c-2.95773-1.76178-5.60373-4.00061-7.83089-6.62579"/>
	
		<linearGradient id="SVGID_00000102511965323111767110000009316928623347198890_" gradientUnits="userSpaceOnUse" x1="146.47711" y1="452.74246" x2="286.52573" y2="452.74246" gradientTransform="matrix(0.99999 0.00485 -0.00485 0.99999 19.61722 4.78829)">
		<stop  offset="0.03731" style="stop-color:#FFFFFF;stop-opacity:0.2"/>
		<stop  offset="0.24353" style="stop-color:#E7EDF8;stop-opacity:0.30555"/>
		<stop  offset="0.40221" style="stop-color:#D2DDF1;stop-opacity:0.4"/>
	</linearGradient>
	<path style="fill:url(#SVGID_00000102511965323111767110000009316928623347198890_);" d="M163.927,452.06232
		c0,0,18.73317,1.58597,42.60527,5.96942c15.93587,2.92618,35.80801,8.3782,35.80801,8.3782l29.28413-0.36322l0.85297,0.96387
		l8.19357-0.00488l0.70013-1.1503l22.5405-0.19995c-1.48349-1.50137-3.07208-2.89514-4.75369-4.17078
		c-2.91711-2.23544-14.53769-5.30322-21.47815-6.73019c-10.03165-2.06253-17.14413-3.89264-18.55566-4.30338
		C208.75621,451.47708,163.927,452.06232,163.927,452.06232z"/>
	
		<linearGradient id="SVGID_00000013911600598270515260000000311395577029860486_" gradientUnits="userSpaceOnUse" x1="30.9268" y1="464.87003" x2="236.68799" y2="395.47131" gradientTransform="matrix(1 0 0 1 0 2)">
		<stop  offset="0.02695" style="stop-color:#CFD9E6"/>
		<stop  offset="0.05896" style="stop-color:#C1CCDA"/>
		<stop  offset="0.16679" style="stop-color:#96A4B5"/>
		<stop  offset="0.28003" style="stop-color:#718195"/>
		<stop  offset="0.3977" style="stop-color:#53657B"/>
		<stop  offset="0.52113" style="stop-color:#3B4F67"/>
		<stop  offset="0.65298" style="stop-color:#2B4059"/>
		<stop  offset="0.79898" style="stop-color:#213751"/>
		<stop  offset="0.9871" style="stop-color:#1E344E"/>
	</linearGradient>
	<path style="fill:url(#SVGID_00000013911600598270515260000000311395577029860486_);" d="M52.46827,445.61105
		c-0.19514,0.38132,11.08699,3.99152,11.08699,3.99152c1.57664,0.41278,3.17347,0.74466,4.78405,0.99426
		c1.29772,0.10614,67.88349,1.05328,70.32534,1.08682c11.65894,0.16006,15.15656-0.32227,15.15656-0.32227
		s-16.37312-21.08856-25.73485-26.88913c-7.02491-4.35263-11.27827-4.5704-18.24531-4.50327
		c-25.91337,0.76355-40.18922,8.07068-44.22362,10.40936C59.74483,433.78275,54.65255,441.34268,52.46827,445.61105z"/>
	
		<linearGradient id="SVGID_00000023963384206020313220000011903314711865331883_" gradientUnits="userSpaceOnUse" x1="92.99152" y1="394.91464" x2="265.40247" y2="469.35681" gradientTransform="matrix(1 0 0 1 0 2)">
		<stop  offset="0" style="stop-color:#CFD9E6"/>
		<stop  offset="0.28168" style="stop-color:#94A2B3"/>
		<stop  offset="0.70568" style="stop-color:#3F536B"/>
		<stop  offset="0.89928" style="stop-color:#1E344E"/>
		<stop  offset="0.9871" style="stop-color:#1E344E"/>
	</linearGradient>
	<path style="fill:url(#SVGID_00000023963384206020313220000011903314711865331883_);" d="M162.57874,450.50049
		c0,0-11.42886-12.48776-17.05489-18.27017c-5.62608-5.78244-15.16487-13.03998-15.16487-13.03998s20.78819-1.60083,37.6039-0.866
		c15.42606,0.67407,33.0536,1.61276,43.83656,6.34888c2.13414,0.93741,44.12691,24.34592,44.12691,24.34592L162.57874,450.50049z"/>
	
		<linearGradient id="SVGID_00000058568819492591580150000017484825448936100522_" gradientUnits="userSpaceOnUse" x1="78.41286" y1="429.92398" x2="93.83839" y2="432.99091" gradientTransform="matrix(0.99999 0.00485 -0.00485 0.99999 19.61722 4.78829)">
		<stop  offset="0.30834" style="stop-color:#1E344E"/>
		<stop  offset="0.88624" style="stop-color:#1E344E"/>
	</linearGradient>
	<polygon style="fill:url(#SVGID_00000058568819492591580150000017484825448936100522_);" points="99.39539,451.04721 
		91.23232,450.90781 100.21209,420.60071 105.16161,420.18729 	"/>
	
		<linearGradient id="SVGID_00000022519189521053281610000017714008499804553656_" gradientUnits="userSpaceOnUse" x1="51.38183" y1="431.14093" x2="58.52224" y2="433.58762" gradientTransform="matrix(0.99999 0.00485 -0.00485 0.99999 19.61722 4.78829)">
		<stop  offset="0.30834" style="stop-color:#1E344E"/>
		<stop  offset="0.88624" style="stop-color:#1E344E"/>
	</linearGradient>
	<path style="fill:url(#SVGID_00000022519189521053281610000017714008499804553656_);" d="M74.23577,426.39838l-12.0914,22.65887
		c1.61403,0.58823,3.27949,1.02451,4.97468,1.30307c1.28373,0.14935,2.57431,0.23257,3.86659,0.24936l8.37464-26.03748
		L74.23577,426.39838z"/>
	
		<linearGradient id="SVGID_00000176036762577140932550000000573524690446608774_" gradientUnits="userSpaceOnUse" x1="165.11263" y1="486.41013" x2="233.46835" y2="458.78693" gradientTransform="matrix(1 0 0 1 0 2)">
		<stop  offset="0.19968" style="stop-color:#D2DDF1"/>
		<stop  offset="0.3601" style="stop-color:#DAE3F4"/>
		<stop  offset="0.60932" style="stop-color:#F0F4FA"/>
		<stop  offset="0.74618" style="stop-color:#FFFFFF"/>
	</linearGradient>
	<path style="fill:url(#SVGID_00000176036762577140932550000000573524690446608774_);" d="M184.29329,464.35229l9.95865,15.08923
		c0.3299,0.54968,0.93584,0.87292,1.57607,0.84085l34.66353,0.07626c0.60548-0.03036,1.15128-0.37421,1.43997-0.90723
		l5.37085-7.62448c0.45685-0.84332,0.14359-1.89737-0.69968-2.35428c-0.20747-0.1124-0.43567-0.1813-0.67065-0.20261
		l-49.99306-7.54108c-0.95518-0.08652-1.79974,0.61771-1.88622,1.57297C184.01952,463.6687,184.10376,464.03653,184.29329,464.35229
		z"/>
	
		<linearGradient id="SVGID_00000113322306145463710620000017094176142625382076_" gradientUnits="userSpaceOnUse" x1="-2360.29492" y1="498.91705" x2="-2352.7854" y2="499.89157" gradientTransform="matrix(-0.99978 0.02113 0.02113 0.99978 -2055.69849 24.04169)">
		<stop  offset="0.19968" style="stop-color:#D2DDF1"/>
		<stop  offset="0.3601" style="stop-color:#DAE3F4"/>
		<stop  offset="0.60932" style="stop-color:#F0F4FA"/>
		<stop  offset="0.74618" style="stop-color:#FFFFFF"/>
	</linearGradient>
	<path style="fill:url(#SVGID_00000113322306145463710620000017094176142625382076_);" d="M313.08591,479.49353
		c-0.60596-0.01758-1.15887-0.34985-1.4588-0.87662l-4.21048-7.49979c-0.61728-1.08429-1.57278-3.14685-0.33279-3.28568
		c0,0,2.08054,3.53217,2.88074,5.09232C310.76489,474.48395,313.08591,479.49353,313.08591,479.49353z"/>
	
		<linearGradient id="SVGID_00000171705141300260240160000014796531142438417302_" gradientUnits="userSpaceOnUse" x1="247.00816" y1="524.61047" x2="273.05551" y2="524.61047" gradientTransform="matrix(0.99999 0.00485 -0.00485 0.99999 19.61722 4.78829)">
		<stop  offset="0.30834" style="stop-color:#1E344E"/>
		<stop  offset="0.88624" style="stop-color:#1E344E"/>
	</linearGradient>
	<path style="fill:url(#SVGID_00000171705141300260240160000014796531142438417302_);" d="M290.14062,527.62994
		c-3.75195,3.867-8.8985,6.06689-14.28644,6.10669c-4.26486-0.04523-8.3981-1.48242-11.77103-4.0929"/>
	
		<linearGradient id="SVGID_00000001653176418114304340000018109783105266773415_" gradientUnits="userSpaceOnUse" x1="56.49594" y1="437.82361" x2="117.24358" y2="464.86157" gradientTransform="matrix(1 0 0 1 0 2)">
		<stop  offset="0.1517" style="stop-color:#D2DDF1;stop-opacity:0"/>
		<stop  offset="0.25464" style="stop-color:#D2DDF1;stop-opacity:0.10019"/>
		<stop  offset="0.47264" style="stop-color:#D2DDF1;stop-opacity:0.35805"/>
		<stop  offset="0.78559" style="stop-color:#D2DDF1;stop-opacity:0.76736"/>
		<stop  offset="0.88257" style="stop-color:#D2DDF1;stop-opacity:0.9"/>
	</linearGradient>
	<path style="fill:url(#SVGID_00000001653176418114304340000018109783105266773415_);" d="M44.52532,460.01846
		c0,0,0.56586-3.41766,6.71404-4.73602c7.34584-1.16272,110.34667,5.79257,110.34667,5.79257L44.52532,460.01846z"/>
	
		<linearGradient id="SVGID_00000127738477371189457330000002248270441709781920_" gradientUnits="userSpaceOnUse" x1="49.16216" y1="454.07132" x2="51.77024" y2="524.4903" gradientTransform="matrix(1 0 0 1 0 2)">
		<stop  offset="0" style="stop-color:#ECD6C8"/>
		<stop  offset="0.24559" style="stop-color:#EEC7B5"/>
		<stop  offset="0.81032" style="stop-color:#F2A68D"/>
	</linearGradient>
	<path style="fill:url(#SVGID_00000127738477371189457330000002248270441709781920_);" d="M32.46529,482.11426
		c0,0,2.76196,3.76349,12.01767,1.28128c7.07271-1.89676,17.84544-2.27469,19.09541-2.27469
		c0.52911,0,0.88522,3.50217-1.56289,5.00491c-1.59068,0.97647-10.93029,3.42957-13.49256,4.98868
		c-1.03389,0.62912-1.02453,0.96066,0.00585,1.59558c1.97996,1.22009,11.60721,3.19107,13.1199,3.08746
		c5.38396-0.36868,12.39647-2.70148,15.18505-2.19815c1.00393,0.23874,1.94257,0.69684,2.74844,1.34149
		c0,0,4.07893-0.69806,5.11323,2.15396c0.22867,0.63065-2.13115,1.81775-2.13115,1.81775s1.81776,1.19098,1.31627,1.81778
		c-0.61185,0.76477-1.24424,1.08713-3.04095,2.35983c0,0,1.05695,0.68314,0.72285,0.97818
		c-2.0648,1.82343-6.1865,3.72809-6.97781,4.15115c-3.50125,1.87195-6.94797,2.39969-10.95908,3.24353
		c-1.82356,0.38358-22.60415,1.28864-25.92484-0.03409c-8.58148-3.41824-18.90133-18.29913-20.7669-22.16779
		c-4.56165-9.45959,15.57737-20.79291,15.57737-20.79291L32.46529,482.11426z"/>
	
		<linearGradient id="SVGID_00000147916653505727897820000017176465062407911817_" gradientUnits="userSpaceOnUse" x1="384.94772" y1="459.66202" x2="331.05649" y2="536.64966" gradientTransform="matrix(1 0 0 1 0 2)">
		<stop  offset="0.0025" style="stop-color:#FFFFFF"/>
		<stop  offset="0.09053" style="stop-color:#D2DDF1"/>
		<stop  offset="0.33199" style="stop-color:#CED9EE"/>
		<stop  offset="0.39376" style="stop-color:#C5D1E6"/>
		<stop  offset="0.49453" style="stop-color:#ADBAD0"/>
		<stop  offset="0.62178" style="stop-color:#8595AC"/>
		<stop  offset="0.76894" style="stop-color:#4F627A"/>
		<stop  offset="0.88624" style="stop-color:#1E344E"/>
	</linearGradient>
	<path style="fill:url(#SVGID_00000147916653505727897820000017176465062407911817_);" d="M347.51749,454.28622l-0.05173,0.05716
		v90.5376c0,0,30.52142-6.07642,30.52621-13.35223C378.01166,502.17627,366.56885,475.25711,347.51749,454.28622z"/>
	
		<linearGradient id="SVGID_00000116217906763061947460000004179128612000283793_" gradientUnits="userSpaceOnUse" x1="310.10242" y1="430.91266" x2="339.62177" y2="517.94464" gradientTransform="matrix(1 0 0 1 0 2)">
		<stop  offset="0" style="stop-color:#FFFFFF"/>
		<stop  offset="0.12482" style="stop-color:#F9FAFC"/>
		<stop  offset="0.29399" style="stop-color:#E8ECF5"/>
		<stop  offset="0.48784" style="stop-color:#CBD5EA"/>
		<stop  offset="0.49552" style="stop-color:#CAD4E9"/>
		<stop  offset="0.72493" style="stop-color:#75859D"/>
		<stop  offset="0.91187" style="stop-color:#364B64"/>
		<stop  offset="1" style="stop-color:#1E344E"/>
	</linearGradient>
	<path style="fill:url(#SVGID_00000116217906763061947460000004179128612000283793_);" d="M347.46576,548.27533v-93.93198
		l-0.0517-0.05713c-19.05161,20.97086-30.49426,47.89008-30.47461,77.24258c0.00467,6.76508,0.625,9.11383,1.79993,15.57599
		L347.46576,548.27533z"/>
	
		<linearGradient id="SVGID_00000159449758513499623680000017380714187041434759_" gradientUnits="userSpaceOnUse" x1="289.79025" y1="420.6669" x2="284.06998" y2="550.32562" gradientTransform="matrix(1 0 0 1 0 2)">
		<stop  offset="0" style="stop-color:#ECD6C8"/>
		<stop  offset="0.29461" style="stop-color:#EEC7B5"/>
		<stop  offset="0.97203" style="stop-color:#F2A68D"/>
	</linearGradient>
	<path style="fill:url(#SVGID_00000159449758513499623680000017380714187041434759_);" d="M376.52136,515.28271
		c0,0-109.1926,11.70923-140.31703,12.07733c-4.33322,0.05121-4.45117-3.47644-13.42691-6.6413
		c-7.94136-2.80005-14.4976-2.73792-21.83232-6.06049c-3.85677-1.74707-10.71065-4.41199-11.98326-4.88565
		c-0.2052-0.07742-0.43668-0.00348-0.55902,0.17853c-0.79663,1.44339-0.74362,3.20621,0.13832,4.59915
		c1.54961,2.42761,10.17322,7.85229,13.35892,9.74469c0.42807,0.25427,1.2935,0.83441,0.79715,0.87299
		c-3.7381,0.29004-13.17847,0.70807-15.47942,0.54376c-2.91667-0.20837-11.78339-1.26538-15.41278-1.89038
		c-1.95503-0.33673-6.82742,0.31171-6.42722,4.39197c-0.89218,0.12244-1.73158,0.49463-2.42137,1.07361
		c-1.02066,0.96942-1.94977,2.77863-1.39221,3.12488c1.56015,0.86542,3.20888,1.5603,4.91776,2.07281
		c-0.88504,0.04443-1.69717,0.50372-2.19136,1.2392c-0.53743,0.81506-0.96573,2.00568-0.44574,2.26569
		c0.99702,0.49847,5.75468,2.47662,5.75468,2.47662s-0.94255,1.2688-0.56685,1.4472c1.34329,0.63812,5.38138,2.41656,7.4184,3.12042
		c2.68478,0.9278,18.05215,3.77014,26.00745,4.16803c4.38939,0.21954,37.45036-3.8913,45.57545-3.47461
		c8.12497,0.41669,43.8848,3.01373,64.9267,4.26379c21.0419,1.25,82.13831,0.50476,87.64728-0.53693
		c5.50894-1.04169,10.92273-21.80133,7.66483-59.20694c-2.51517-28.87527-14.79877-50.62759-14.79877-50.62759
		s-6.31732,2.57318-18.60468,11.82956c-11.49228,8.65738-17.36505,15.56458-17.36505,15.56458
		c4.80237,6.56952,8.7576,13.71799,11.77243,21.27652C375.44745,504.03464,376.52136,515.28271,376.52136,515.28271z"/>
	
		<linearGradient id="SVGID_00000168101669237330283570000005956148238934225045_" gradientUnits="userSpaceOnUse" x1="204.54326" y1="511.99753" x2="233.81418" y2="474.11746" gradientTransform="matrix(1 0 0 1 0 2)">
		<stop  offset="0.28691" style="stop-color:#D2DDF1;stop-opacity:0"/>
		<stop  offset="0.42838" style="stop-color:#D2DDF1;stop-opacity:0.09993"/>
		<stop  offset="0.72568" style="stop-color:#D2DDF1;stop-opacity:0.35504"/>
		<stop  offset="0.88257" style="stop-color:#D2DDF1;stop-opacity:0.5"/>
	</linearGradient>
	<polygon style="fill:url(#SVGID_00000168101669237330283570000005956148238934225045_);" points="232.54622,484.19199 
		247.38219,503.91412 192.86699,483.75272 	"/>
	
		<linearGradient id="SVGID_00000025442098400557002270000001387919856985493179_" gradientUnits="userSpaceOnUse" x1="319.36035" y1="513.5437" x2="304.61237" y2="477.96124" gradientTransform="matrix(1 0 0 1 0 2)">
		<stop  offset="0.34338" style="stop-color:#D2DDF1;stop-opacity:0"/>
		<stop  offset="0.47144" style="stop-color:#D2DDF1;stop-opacity:0.09993"/>
		<stop  offset="0.74055" style="stop-color:#D2DDF1;stop-opacity:0.35504"/>
		<stop  offset="0.88257" style="stop-color:#D2DDF1;stop-opacity:0.5"/>
	</linearGradient>
	<path style="fill:url(#SVGID_00000025442098400557002270000001387919856985493179_);" d="M313.04541,483.314l-8.07629,18.0253
		l10.64117-4.81525c0,0,1.2099-4.08035,1.12204-6.18723c-0.08777-2.10687-2.28687-7.15707-2.28687-7.15707L313.04541,483.314z"/>
	
		<linearGradient id="SVGID_00000003814912576704122170000017007184201068244136_" gradientUnits="userSpaceOnUse" x1="202.10738" y1="382.52686" x2="206.01651" y2="286.36133" gradientTransform="matrix(1 0 0 1 0 2)">
		<stop  offset="0" style="stop-color:#ECD6C8"/>
		<stop  offset="0.24559" style="stop-color:#EEC7B5"/>
		<stop  offset="0.81032" style="stop-color:#F2A68D"/>
	</linearGradient>
	<path style="fill:url(#SVGID_00000003814912576704122170000017007184201068244136_);" d="M155.5083,291.67157
		c0,0-3.59218,23.55042,9.62602,47.14505c1.69104,3.01859,10.01537,5.1611,11.89369,5.6109
		c0.26025,0.06189,0.4964,0.19937,0.67867,0.39517c1.25214,1.3407,6.14192,7.22247,9.72678,20.65695
		c1.03969,3.89648,6.91649,0.61514,10.93604,2.49576c9.2849,4.34396,6.71432,3.33047,21.96181,10.52347
		c4.50302,2.12436,16.63087-0.9993,24.80383-10.93195c7.21887-8.77332,7.94968-13.60193,9.19971-25.3428
		s-5.11177-28.42896-5.11177-28.42896s6.379,0.34094,6.46162-11.95151c0.02293-3.40497-0.16325-2.8183-0.16325-2.8183
		s-26.31071,14.67502-45.26622,15.52362C182.8614,315.7753,155.5083,291.67157,155.5083,291.67157z"/>
	
		<linearGradient id="SVGID_00000165939253947642900500000004494780333647076281_" gradientUnits="userSpaceOnUse" x1="211.61957" y1="350.17053" x2="203.4771" y2="338.1022" gradientTransform="matrix(1 0 0 1 0 2)">
		<stop  offset="0" style="stop-color:#F19B7F;stop-opacity:0"/>
		<stop  offset="0.0963" style="stop-color:#F19B7F;stop-opacity:0.02511"/>
		<stop  offset="0.22602" style="stop-color:#F19B7F;stop-opacity:0.0962"/>
		<stop  offset="0.37475" style="stop-color:#F19B7F;stop-opacity:0.21325"/>
		<stop  offset="0.53761" style="stop-color:#F19B7F;stop-opacity:0.3764"/>
		<stop  offset="0.71203" style="stop-color:#F19B7F;stop-opacity:0.58583"/>
		<stop  offset="0.89329" style="stop-color:#F19B7F;stop-opacity:0.83722"/>
		<stop  offset="1" style="stop-color:#F19B7F"/>
	</linearGradient>
	<path style="fill:url(#SVGID_00000165939253947642900500000004494780333647076281_);" d="M192.85229,340.32141
		c0,0,3.78322-0.56134,8.52022-4.01416c2.48984-1.79425,4.54288-4.1272,6.006-6.82501c0,0,2.65167,1.44162,3.05879,2.52597
		c1.06853,2.84598-1.16226,7.21194-5.93976,11.44345s-9.31569,3.59937-9.55956,2.38757
		C193.99133,341.13522,192.85229,340.32141,192.85229,340.32141z"/>
</g>
</svg>
