<svg id="Layer_1" data-name="Layer 1" xmlns="http://www.w3.org/2000/svg" xmlns:xlink="http://www.w3.org/1999/xlink" width="146.05mm" height="259.64444mm" viewBox="0 0 414 736"><defs><style>.cls-1{fill:none;}.cls-2{clip-path:url(#clip-path);}.cls-3{fill:url(#New_Gradient_Swatch_14);}.cls-4{fill:url(#linear-gradient);}.cls-5{fill:url(#New_Gradient_Swatch_14-2);}.cls-6{fill:url(#New_Gradient_Swatch_14-3);}.cls-7{fill:url(#New_Gradient_Swatch_14-4);}.cls-8{fill:url(#linear-gradient-2);}.cls-10,.cls-11,.cls-12,.cls-13,.cls-14,.cls-15,.cls-9{opacity:0.88;}.cls-9{fill:url(#New_Gradient_Swatch_13);}.cls-10{fill:url(#New_Gradient_Swatch_13-2);}.cls-11{fill:url(#linear-gradient-3);}.cls-12{fill:url(#linear-gradient-4);}.cls-13{fill:url(#New_Gradient_Swatch_13-3);}.cls-14{fill:url(#New_Gradient_Swatch_13-4);}.cls-15{fill:url(#linear-gradient-5);}</style><clipPath id="clip-path"><rect class="cls-1" width="414" height="736"/></clipPath><linearGradient id="New_Gradient_Swatch_14" x1="63.91951" y1="832.35796" x2="-161.61461" y2="-111.82725" gradientUnits="userSpaceOnUse"><stop offset="0" stop-color="#f6b271"/><stop offset="0.52982" stop-color="#e63f58"/><stop offset="1" stop-color="#131a4b"/></linearGradient><linearGradient id="linear-gradient" x1="360.29283" y1="889.32703" x2="105.02621" y2="279.7177" gradientUnits="userSpaceOnUse"><stop offset="0" stop-color="#f6b271"/><stop offset="0.48134" stop-color="#e63f58"/><stop offset="1" stop-color="#131a4b"/></linearGradient><linearGradient id="New_Gradient_Swatch_14-2" x1="199.2716" y1="149.1478" x2="262.49023" y2="493.83984" xlink:href="#New_Gradient_Swatch_14"/><linearGradient id="New_Gradient_Swatch_14-3" x1="86.43724" y1="324.53395" x2="221.67431" y2="383.2553" gradientTransform="translate(47.22361 10.50153) rotate(6.84836)" xlink:href="#New_Gradient_Swatch_14"/><linearGradient id="New_Gradient_Swatch_14-4" x1="133.27987" y1="304.06305" x2="260.95615" y2="485.90502" xlink:href="#New_Gradient_Swatch_14"/><linearGradient id="linear-gradient-2" x1="217.74957" y1="337.38654" x2="246.5704" y2="542.6471" gradientUnits="userSpaceOnUse"><stop offset="0" stop-color="#f6b271"/><stop offset="0.08909" stop-color="#f2996b"/><stop offset="0.2453" stop-color="#ed7263"/><stop offset="0.38929" stop-color="#e9565d"/><stop offset="0.51518" stop-color="#e74559"/><stop offset="0.6092" stop-color="#e63f58"/><stop offset="0.74039" stop-color="#e63f58" stop-opacity="0.62201"/><stop offset="0.86653" stop-color="#e63f58" stop-opacity="0.28734"/><stop offset="0.95574" stop-color="#e63f58" stop-opacity="0.07978"/><stop offset="1" stop-color="#e63f58" stop-opacity="0"/></linearGradient><linearGradient id="New_Gradient_Swatch_13" x1="157.17743" y1="323.25818" x2="44.00274" y2="371.30404" gradientUnits="userSpaceOnUse"><stop offset="0" stop-color="#e5343a"/><stop offset="0.07522" stop-color="#e5343a" stop-opacity="0.8544"/><stop offset="0.20504" stop-color="#e5343a" stop-opacity="0.63021"/><stop offset="0.3373" stop-color="#e5343a" stop-opacity="0.43698"/><stop offset="0.46957" stop-color="#e5343a" stop-opacity="0.2792"/><stop offset="0.60183" stop-color="#e5343a" stop-opacity="0.15677"/><stop offset="0.73412" stop-color="#e5343a" stop-opacity="0.06956"/><stop offset="0.86668" stop-color="#e5343a" stop-opacity="0.01735"/><stop offset="1" stop-color="#e5343a" stop-opacity="0"/></linearGradient><linearGradient id="New_Gradient_Swatch_13-2" x1="-116.72545" y1="158.70155" x2="-492.72517" y2="592.8211" xlink:href="#New_Gradient_Swatch_13"/><linearGradient id="linear-gradient-3" x1="224.80556" y1="251.87805" x2="87.79576" y2="395.58941" gradientUnits="userSpaceOnUse"><stop offset="0" stop-color="#ed7b62"/><stop offset="0.09091" stop-color="#ec6f5b" stop-opacity="0.82549"/><stop offset="0.21855" stop-color="#ea5f52" stop-opacity="0.60884"/><stop offset="0.34859" stop-color="#e8524b" stop-opacity="0.42214"/><stop offset="0.47858" stop-color="#e74745" stop-opacity="0.26974"/><stop offset="0.60855" stop-color="#e63f40" stop-opacity="0.1515"/><stop offset="0.73861" stop-color="#e6393d" stop-opacity="0.06722"/><stop offset="0.86893" stop-color="#e5353b" stop-opacity="0.01676"/><stop offset="1" stop-color="#e5343a" stop-opacity="0"/></linearGradient><linearGradient id="linear-gradient-4" x1="620.84092" y1="91.08418" x2="326.57764" y2="399.74077" xlink:href="#linear-gradient-3"/><linearGradient id="New_Gradient_Swatch_13-3" x1="363.26437" y1="338.91762" x2="156.93479" y2="371.34084" xlink:href="#New_Gradient_Swatch_13"/><linearGradient id="New_Gradient_Swatch_13-4" x1="252.27518" y1="331.08507" x2="145.52971" y2="365.94073" xlink:href="#New_Gradient_Swatch_13"/><linearGradient id="linear-gradient-5" x1="462.85049" y1="438.07095" x2="259.20667" y2="348.63279" gradientUnits="userSpaceOnUse"><stop offset="0" stop-color="#f1cf8d"/><stop offset="0.09846" stop-color="#f1cf8d" stop-opacity="0.81176"/><stop offset="0.22498" stop-color="#f1cf8d" stop-opacity="0.5988"/><stop offset="0.35393" stop-color="#f1cf8d" stop-opacity="0.41519"/><stop offset="0.48287" stop-color="#f1cf8d" stop-opacity="0.26529"/><stop offset="0.61178" stop-color="#f1cf8d" stop-opacity="0.149"/><stop offset="0.74077" stop-color="#f1cf8d" stop-opacity="0.06611"/><stop offset="0.87001" stop-color="#f1cf8d" stop-opacity="0.01648"/><stop offset="1" stop-color="#f1cf8d" stop-opacity="0"/></linearGradient></defs><title>palkyle-m</title><g class="cls-2"><rect class="cls-3" x="-767" y="-5" width="1440" height="746"/><path class="cls-4" d="M107.41541,366.19019s3.97649,49.05131,13.86491,72.35974,44.997,85.11108,48.80875,91.46792,8.04969,12.00737,8.756,18.01106,36.87974,301.03487,36.87974,301.03487L386,844.89s-87.78752-280.969-93.7912-321.93531c-1.63774-11.17516-5.55706-27.42039-4.32891-36.04342,2.86264-20.09908,7.2188-58.25983,7.2188-58.25983s-10.65937-20.4731-40.32464-38.48416S107.32372,350.04818,107.41541,366.19019Z"/><path class="cls-5" d="M173.4602,313.947s-6.61571-31.76577-11.419-48.71736-15.77177-54.8191-18.90746-70.16441c-1.77324-8.67783-8.87946-42.00589,6.26761-44.91782,17.81122-3.4241,24.46722,17.24067,31.54693,39.90374,8.85063,28.332,13.746,50.6758,15.57633,58.09212s10.20569,40.41333,12.12848,45.25873c3.03565,7.64981,11.48178,10.039,11.48178,10.039s5.6167-31.5032,7.76653-64.30689c2.41964-36.92059,3.48248-44.61484,4.85907-61.40923,1.0446-12.74412,8.89951-26.53285,19.8474-26.53285s15.669,10.446,15.93931,30.96522c.37036,28.11532-1.19179,66.45056-1.19179,70.3353s-.574,66.42715-.574,66.42715,9.18211,53.23655,12.36053,68.7755-105.59424-42.0258-105.59424-42.0258Z"/><path class="cls-6" d="M102.76536,332.99647c6.29324-7.10235,21.12339-7.06689,28.89242,5.24843s28.1172,44.28186,29.44928,47.9988,4.75251,22.62391-11.69913,17.44683-40.91236-28.80657-49.5983-46.08326C93.4932,345.04364,99.06217,337.17577,102.76536,332.99647Z"/><path class="cls-7" d="M144.58875,302.58409c6.41031-3.4517,23.66159-2.82526,34.25633,20.83633s21.48035,56.63275,23.58066,62.9268c3.17334,9.50964,9.46633,29.89651-.395,35.8218-8.37268,5.03084-21.41989-.92384-30.602-16.81595s-36.37527-60.94422-39.20054-75.1466S135.40664,307.52831,144.58875,302.58409Z"/><path class="cls-8" d="M294.00155,532.7394s-6.87229-38.77466-6.12166-45.82813c3.1272-29.38537,7.29612-58.42779,10.59845-83.41565.72621-5.495-5.32066-9.9622-5.88769-10.44931-10.09292-8.67043-48.56795-43.28441-61.90742-55.551-2.67205-2.45713-5.01746-3.04218-7.2528-2.839-3.18485.28953-20.37809,2.47849-29.26656,2.73932-14.50444.42562-33.76712-.08131-41.88975-.43447,0,0-11.75851,21.40832,5.90265,35.32691S214.86719,387.342,214.86719,387.342s2.55831,7.66042,7.17857,12.36053a69.43928,69.43928,0,0,0,9.773,7.76947h0s-24.01475,13.06685-28.25264,29.66527-7.60956,30.72475,3.9647,53.32686c7.40062,14.45189,14.83394,22.55087,19.23249,26.51261,2.48059,2.23425,10.11966,28.0499,10.11966,28.0499"/><polygon class="cls-9" points="318.665 842.218 137.042 858.696 -237.804 -96.576 -61.529 -99.222 318.665 842.218"/><polygon class="cls-10" points="260.588 855.488 -189 841.89 -1003.5 50.125 -690.75 15.25 260.588 855.488"/><polygon class="cls-11" points="636.419 705.357 419.457 747.805 -435.375 59.125 -214.086 -65.533 636.419 705.357"/><polygon class="cls-12" points="639.25 705.357 430.243 847.173 110.355 -7.043 371.645 -15.349 639.25 705.357"/><polygon class="cls-13" points="243.239 849.061 123.826 843.005 40.464 -101.639 256.414 -101.639 243.239 849.061"/><polygon class="cls-14" points="312.782 852.177 182.325 846.862 -78.858 -101.639 88.616 -99.318 312.782 852.177"/><polygon class="cls-15" points="251.06 851.394 123.826 843.005 254.989 -101.639 495 -101.639 251.06 851.394"/></g></svg>