<?xml version="1.0" encoding="utf-8"?>
<!-- Generator: Adobe Illustrator 26.2.1, SVG Export Plug-In . SVG Version: 6.00 Build 0)  -->
<svg version="1.1" id="Layer_1" xmlns="http://www.w3.org/2000/svg" xmlns:xlink="http://www.w3.org/1999/xlink" x="0px" y="0px"
	 viewBox="0 0 414.00003 736" style="enable-background:new 0 0 414.00003 736;" xml:space="preserve">
<style type="text/css">
	.st0{fill:none;}
	.st1{fill:url(#SVGID_1_);}
	.st2{fill:#F7CAB3;}
	.st3{fill:#FFFFFF;}
	.st4{opacity:0.5;fill:url(#SVGID_00000012436130869166071480000011346739604408543420_);enable-background:new    ;}
	.st5{fill:url(#SVGID_00000029041890622417459590000015717224961705652098_);}
	.st6{fill:url(#SVGID_00000088110847461182199830000012306282553224236186_);}
	.st7{fill:url(#SVGID_00000074434177595366910280000004107888090180928938_);}
	.st8{fill:url(#SVGID_00000140727286375954047370000012688404248934230441_);}
	.st9{opacity:0.5;fill:url(#SVGID_00000114049709426682726390000000834564263413657767_);enable-background:new    ;}
	.st10{fill:#B52D25;}
	.st11{fill:#D54327;}
	.st12{fill:#911A1D;}
	.st13{fill:url(#SVGID_00000029744561115631901130000006511327158294218902_);}
	.st14{fill:url(#SVGID_00000072269690128813987080000015183291329102502548_);}
	.st15{opacity:0.5;fill:url(#SVGID_00000155834568025774935380000002049305592014838656_);enable-background:new    ;}
	.st16{opacity:0.5;fill:url(#SVGID_00000114785495090723186330000007737044079906495928_);enable-background:new    ;}
	.st17{fill:url(#SVGID_00000010300766064242969050000009887003233054681789_);}
	.st18{fill:url(#SVGID_00000021108919346987528530000010778920473253106355_);}
</style>
<path class="st0" d="M-830.92535,683.34296"/>
<path class="st0" d="M988.60956,683.34296"/>
<path class="st0" d="M988.60956,33.97179"/>
<linearGradient id="SVGID_1_" gradientUnits="userSpaceOnUse" x1="172.31473" y1="324.83301" x2="390.689" y2="324.83301" gradientTransform="matrix(1 0 0 1 0 -110)">
	<stop  offset="0" style="stop-color:#005663"/>
	<stop  offset="0.04052" style="stop-color:#0E4552"/>
	<stop  offset="1" style="stop-color:#005663"/>
</linearGradient>
<path class="st1" d="M384.92154,143.80769c16.436,44.13367-2.54318,100.90633-53.27872,135.63109
	c-61.70319,42.23123-130.27646,41.05374-159.1615,0.20239c-0.25905-0.36636-0.47221-1.24725,1.44388-1.43985
	c26.04239-2.61768,39.43336-6.55524,99.20636-49.12523c57.59689-41.02025,57.55997-125.22925,94.49435-107.75275
	C375.88242,125.23012,380.95309,133.15166,384.92154,143.80769z"/>
<path class="st2" d="M219.81558,404.28934l34.37308,61.17899c0,0,7.50146-14.27457,8.10129-15.72003
	c0.59973-1.4454-21.73357-56.78461-21.73357-56.78461S215.68512,400.09262,219.81558,404.28934z"/>
<path class="st3" d="M372.65848,740.65814l-24.26263-191.95898l16.24164-93.31076c0,0-20.32733-50.99454-19.95364-59.08029
	c0.55362-12.45593-10.61404-124.25977-10.61404-124.25977c-3.08307,0.44794-6.10687,1.23724-9.01556,2.35336
	c-16.29184,5.67752-46.78534,15.06281-86.15331,10.44913c4.9922,20.14276,17.7151,81.93219,27.95659,121.51425
	c0.81314,3.74799,0.84109,7.62378,0.08212,11.38306c-0.55505,2.99774-5.75549,16.93152-9.72394,26.9996
	c-3.73674,9.48032-3.5851,20.82443-2.67572,32.20078c1.38577,17.33591,3.26715,33.66934,4.65976,45.24869
	c1.24942,10.38879,1.60971,19.81616,1.60971,19.81616L108.07404,739.02271"/>
<linearGradient id="SVGID_00000008142509264018487860000007004320410146319264_" gradientUnits="userSpaceOnUse" x1="240.72505" y1="564.34668" x2="76.76932" y2="906.5152" gradientTransform="matrix(1 0 0 1 0 -110)">
	<stop  offset="0.09462" style="stop-color:#02828F"/>
	<stop  offset="0.35676" style="stop-color:#5EB0B8;stop-opacity:0.85377"/>
	<stop  offset="0.70762" style="stop-color:#D2E9EB;stop-opacity:0.67169"/>
	<stop  offset="0.87194" style="stop-color:#FFFFFF;stop-opacity:0.6"/>
</linearGradient>
<path style="opacity:0.5;fill:url(#SVGID_00000008142509264018487860000007004320410146319264_);enable-background:new    ;" d="
	M209.02391,741.23499l65.29622-197.51642l-20.27502-70.3598c0,0,3.59406,39.36627,5.25964,49.73163
	c0.2998,2.04541-0.02615,18.92297-0.02615,18.92297L0,736"/>
<path class="st3" d="M246.82878,402.73026l-23.9137,13.55283l-6.45654-16.86652c-0.70732-1.33133-0.97572-2.85217-0.76685-4.34515
	c2.25623-16.13486,17.60658-99.49738,26.39227-95.27347c0.73816,5.905,17.16148,44.84128,17.16148,44.84128l-17.88258,44.22006
	L246.82878,402.73026z"/>
<linearGradient id="SVGID_00000008131083586610329880000002818173685316028596_" gradientUnits="userSpaceOnUse" x1="285.08994" y1="408.36758" x2="327.85919" y2="352.07571" gradientTransform="matrix(1 0 0 1 0 -110)">
	<stop  offset="0" style="stop-color:#F7CAB3"/>
	<stop  offset="0.13007" style="stop-color:#F7C5AE"/>
	<stop  offset="0.89688" style="stop-color:#F5AA93"/>
</linearGradient>
<path style="fill:url(#SVGID_00000008131083586610329880000002818173685316028596_);" d="M307.23331,270.65717l8.06369-18.60684
	c0,0-0.05096-2.9453,2.49127-3.30084c2.54214-0.35553,21.79794-3.6653,21.79794-3.6653s-8.58078,0.11534-14.09363-2.49112
	c-3.17313-1.50023-15.1778-9.22659-15.1778-9.22659l-2.07596,12.31752l-26.57263,87.32968c0,0,34.64594-51.55359,47.05573-60.27274
	C321.57892,275.04636,313.80026,274.29205,307.23331,270.65717z"/>
<path class="st2" d="M337.30246,178.09912c0,0,3.13708,10.97966,2.21445,14.20897
	c-0.27679,1.66078-1.44681,8.55592-0.10019,10.73146c1.34671,2.17535,5.65927,6.8452,7.20459,9.75156
	c0.77383,1.45526-4.35953,3.59837-4.35953,3.59837s0.88351,2.81798,1.72995,5.4437c0.1752,0.69507,0.19531,1.42015,0.05899,2.12386
	c-0.12454,0.91788-0.07404,3.62576-0.17426,4.77304c-0.08347,0.95534-2.12607,16.05261-4.35956,16.33107
	c-6.20285,0.47253-12.43466-0.40085-18.26871-2.56039c-6.30472-2.66212-12.10745-6.38338-17.15704-11.00272l1.24316-35.76195
	L337.30246,178.09912z"/>
<linearGradient id="SVGID_00000129916759838249704310000012455261923136316572_" gradientUnits="userSpaceOnUse" x1="176.98601" y1="722.36914" x2="207.30899" y2="722.36914" gradientTransform="matrix(0.99549 0.09487 -0.09487 0.99549 117.98558 -312.31302)">
	<stop  offset="0" style="stop-color:#F7CAB3"/>
	<stop  offset="0.13007" style="stop-color:#F7C5AE"/>
	<stop  offset="0.89688" style="stop-color:#F5AA93"/>
</linearGradient>
<polygon style="fill:url(#SVGID_00000129916759838249704310000012455261923136316572_);" points="238.9003,407.18774 
	244.91364,403.80704 259.04672,440.06326 256.00574,448.10092 "/>
<linearGradient id="SVGID_00000045619625807695591780000008742309775742115467_" gradientUnits="userSpaceOnUse" x1="342.48132" y1="340.88571" x2="341.88165" y2="334.65778" gradientTransform="matrix(1 0 0 1 0 -110)">
	<stop  offset="0.16803" style="stop-color:#F5AA93"/>
	<stop  offset="0.54426" style="stop-color:#E47256"/>
	<stop  offset="0.74147" style="stop-color:#DD593B"/>
</linearGradient>
<path style="fill:url(#SVGID_00000045619625807695591780000008742309775742115467_);" d="M339.44763,227.34612l4.18658-1.10719
	c0,0,1.46466-0.02306,1.17715,1.82666c-0.20181,0.98541-0.5896,1.92334-1.14258,2.7636L339.44763,227.34612z"/>
<linearGradient id="SVGID_00000132060608115395239270000001303434384245879220_" gradientUnits="userSpaceOnUse" x1="342.51639" y1="331.27423" x2="342.00836" y2="336.40479" gradientTransform="matrix(1 0 0 1 0 -110)">
	<stop  offset="0.16803" style="stop-color:#F5AA93"/>
	<stop  offset="0.33157" style="stop-color:#F39F87"/>
	<stop  offset="0.74147" style="stop-color:#ED866C"/>
</linearGradient>
<path style="fill:url(#SVGID_00000132060608115395239270000001303434384245879220_);" d="M343.93332,221.33492
	c0,0-1.3486,4.14278-4.48569,6.08037c1.79926-0.36906,4.35956-1.15332,4.35956-1.15332
	c0.71722-0.37929,0.87695-1.98917,0.94687-2.74301C344.64642,222.73892,344.36597,221.99278,343.93332,221.33492z"/>
<linearGradient id="SVGID_00000078017397968043602890000017054865376363260044_" gradientUnits="userSpaceOnUse" x1="251.07275" y1="446.12009" x2="237.30168" y2="538.79578" gradientTransform="matrix(1 0 0 1 0 -110)">
	<stop  offset="0.09462" style="stop-color:#02828F"/>
	<stop  offset="0.30538" style="stop-color:#02828F;stop-opacity:0.67012"/>
	<stop  offset="0.63464" style="stop-color:#02828F;stop-opacity:0.18926"/>
	<stop  offset="0.78879" style="stop-color:#02828F;stop-opacity:0"/>
</linearGradient>
<polygon style="opacity:0.5;fill:url(#SVGID_00000078017397968043602890000017054865376363260044_);enable-background:new    ;" points="
	243.26659,343.99374 231.61739,389.8071 238.93034,407.12778 247.008,402.82034 241.39751,388.79156 253.91914,357.71844 
	261.73712,341.59424 "/>
<path class="st10" d="M314.05145,156.87796c0,0,21.45352,6.82898,23.15961,25.05734
	c1.25363,13.39424-3.04068,23.73235-12.91806,39.80559c-6.85437,11.15401-75.81932,129.377-75.81932,129.377l-37.22057-8.3811
	c0,0,71.73895-81.7554,55.18918-102.45045c-18.27475-22.85188-21.90677-30.09641-13.65535-50.19267
	C275.05597,135.8576,314.05145,156.87796,314.05145,156.87796z"/>
<path class="st11" d="M332.31955,169.54924c1.32385,1.72777,10.22006,10.72902,9.06311,25.1985
	c-1.68628,21.08914-23.62674,43.60103-23.62674,43.60103s-14.91437,85.72176-15.37088,89.37422
	c-34.39383,37.74188-74.68457,35.9502-74.68457,35.9502L312.94431,236.688
	C312.94431,236.68802,347.48798,191.89801,332.31955,169.54924z"/>
<path class="st12" d="M325.58478,163.5211c0,0,3.728,0.86729,7.36304,6.70128c3.82458,6.13831-2.55801,28.85594-10.45636,41.42149
	c-3.28998,5.23416-16.94675,22.62527-16.94675,22.62527l-84.92494,97.44948l6.21342-43.43317l50.2428-41.45798L325.58478,163.5211z"
	/>
<linearGradient id="SVGID_00000111184241059829167260000012178283207186905496_" gradientUnits="userSpaceOnUse" x1="246.30005" y1="304.52222" x2="322.53998" y2="304.52222" gradientTransform="matrix(1 0 0 1 0 -110)">
	<stop  offset="0.19281" style="stop-color:#005663"/>
	<stop  offset="0.43114" style="stop-color:#058793"/>
</linearGradient>
<path style="fill:url(#SVGID_00000111184241059829167260000012178283207186905496_);" d="M262.38254,236.22667
	c2.46478-1.16536,23.67462-16.28087,36.81235-36.48351c12.83237-19.73332,19.43878-31.63377,23.34509-39.65828
	c-7.74402-4.97221-16.7963-7.26663-26.70969-7.26663c-27.23584-0.11821-49.41103,21.86438-49.53024,49.10019
	C246.29997,217.75639,255.6924,228.88496,262.38254,236.22667z"/>
<linearGradient id="SVGID_00000013180488625299851940000007688937039513879690_" gradientUnits="userSpaceOnUse" x1="172.28917" y1="311.54697" x2="346.71359" y2="311.54697" gradientTransform="matrix(1 0 0 1 0 -110)">
	<stop  offset="0.5051" style="stop-color:#93CFCC"/>
	<stop  offset="0.55582" style="stop-color:#9FD4D2"/>
	<stop  offset="0.85852" style="stop-color:#E4F3F2"/>
	<stop  offset="1" style="stop-color:#FFFFFF"/>
</linearGradient>
<path style="fill:url(#SVGID_00000013180488625299851940000007688937039513879690_);" d="M172.30884,279.33945
	c0,0,0.04637-1.45209,5.77553-1.34399c16.00702,0.30203,60.91866-0.04068,87.25069-17.96414
	c21.95926-14.9471,38.75174-36.35278,56.98004-83.60191c3.96741-10.28372,6.96481-17.9902,9.06598-23.82523
	c8.47226-23.52727,15.33252-28.84969,15.33252-28.84969s-5.96173,4.27412-18.00134,25.68469
	c-6.35968,11.30972-17.66824,27.51247-31.63776,46.92857c-29.93106,41.60095-47.30595,46.56128-78.61069,63.10985
	c-18.79886,9.93768-34.38417,16.3139-39.9915,17.45276c-1.17413,0.23846-4.15582,0.88605-5.18283,1.21033
	C172.06572,278.52725,172.30884,279.33945,172.30884,279.33945z"/>
<linearGradient id="SVGID_00000158713211763612124540000010625664255773806218_" gradientUnits="userSpaceOnUse" x1="269.06802" y1="421.07706" x2="377.7236" y2="1046.55078" gradientTransform="matrix(1 0 0 1 0 -110)">
	<stop  offset="0.09462" style="stop-color:#02828F"/>
	<stop  offset="0.32872" style="stop-color:#5EB0B8;stop-opacity:0.85377"/>
	<stop  offset="0.64205" style="stop-color:#D2E9EB;stop-opacity:0.67169"/>
	<stop  offset="0.78879" style="stop-color:#FFFFFF;stop-opacity:0.6"/>
</linearGradient>
<path style="opacity:0.5;fill:url(#SVGID_00000158713211763612124540000010625664255773806218_);enable-background:new    ;" d="
	M414.00003,736l-65.48132-187.56268l15.3562-88.55789c0,0-18.63779-53.51434-18.26855-65.32422
	c0.45834-14.66534-17.89957-68.646-17.89957-68.646s-3.68948,61.92188-1.98416,83.37314
	c0.57254,7.20291,15.47195,28.11234,17.95078,49.00568c3.05408,25.74097-13.43759,93.3949-13.43759,93.3949l-57.7579,188.39838"/>
<path class="st2" d="M418.3277,518.50702c0,0-7.46088-12.83963-8.91849-15.3154c-0.6424-1.09827-1.57523-1.99808-2.69592-2.6004
	c-0.9567-0.48099-1.88358-1.0191-2.7756-1.61148c-2.79535-1.93747-7.88821-5.50137-11.95407-8.94128
	c-1.97784-1.67319-3.93484-5.08243-5.64038-8.78918l-23.51593-87.59418l-25.59888,10.11505
	c-0.20087,2.68713,0.44342,5.36984,1.84277,7.67264l36.45419,79.7124c0.83334,3.21832,0.3208,4.07404,1.49835,6.33984
	c1.42905,2.74948,8.65149,4.09674,15.36145,6.57977c4.33276,1.60336,5.91202,5.9277,6.66254,7.22318
	c1.00204,2.47449,1.8656,5.00287,2.58664,7.57336c0,0-3.54633,10.14404-3.86111,12.10327
	c-0.3147,1.95929,2.12299,0.99084,3.17331-0.06177c1.05029-1.05267,4.55667-9.16522,5.43283-11.72992
	c0.56085-1.64178-0.3158-6.71173-0.3158-6.71173l3.49323,6.83789c0,0-0.6817,8.67163-1.29858,10.87604
	c-0.61694,2.20441-0.74228,6.06476,0.18042,6.76953c0.92261,0.70477,1.84402,0.35803,2.62064-0.72314
	c0.77652-1.08112,3.62964-13.06805,3.62964-13.06805s2.48523,10.9342,2.93793,12.70068
	c0.50742,1.69574,1.61505,3.14862,3.11584,4.08716c0.79047,0.44775,1.79431,0.16998,2.24203-0.62048
	c0.12381-0.21844,0.19586-0.46228,0.21085-0.71289L418.3277,518.50702z"/>
<path class="st3" d="M343.77478,271.72098c3.90802,1.43729,11.76962,4.38324,12.13867,21.17563
	c0.96204,43.7706,4.82455,95.56894,4.82455,95.56894l10.51819,27.12619l-28.69464,12.73276l-9.62695-25.62601
	c-0.46579-1.23849-0.74689-2.53873-0.83441-3.85904c-0.73694-11.11948-4.38046-65.56607-5.86969-77.72803
	c-3.90359-30.298-3.28696-47.01962,3.80023-49.06305C335.44138,270.48837,341.45535,270.86795,343.77478,271.72098z"/>
<linearGradient id="SVGID_00000173842979170994764550000000219097051383134125_" gradientUnits="userSpaceOnUse" x1="349.27505" y1="429.96756" x2="328.55527" y2="569.40631" gradientTransform="matrix(1 0 0 1 0 -110)">
	<stop  offset="0.09462" style="stop-color:#02828F"/>
	<stop  offset="0.30538" style="stop-color:#02828F;stop-opacity:0.67012"/>
	<stop  offset="0.63464" style="stop-color:#02828F;stop-opacity:0.18926"/>
	<stop  offset="0.78879" style="stop-color:#02828F;stop-opacity:0"/>
</linearGradient>
<polygon style="opacity:0.5;fill:url(#SVGID_00000173842979170994764550000000219097051383134125_);enable-background:new    ;" points="
	327.3306,333.02158 329.91324,367.38989 332.27173,400.97241 342.46921,428.50949 355.38705,422.60385 343.94543,393.63281 
	327.52258,322.58765 "/>
<linearGradient id="SVGID_00000003823578725722675700000011603171371388480399_" gradientUnits="userSpaceOnUse" x1="343.55615" y1="527.58044" x2="399.9863" y2="637.83887" gradientTransform="matrix(1 0 0 1 0 -110)">
	<stop  offset="0" style="stop-color:#F5AA93"/>
	<stop  offset="0.25206" style="stop-color:#F5AE97"/>
	<stop  offset="0.49663" style="stop-color:#F6B9A3"/>
	<stop  offset="0.68462" style="stop-color:#F6C7B1"/>
	<stop  offset="0.8262" style="stop-color:#F6BAA3"/>
	<stop  offset="0.95341" style="stop-color:#F5AA93"/>
</linearGradient>
<path style="fill:url(#SVGID_00000003823578725722675700000011603171371388480399_);" d="M401.47623,519.20105l-0.03821-0.04987
	c-1.18381-1.56116-2.43207-3.08801-3.104-4.11023c-0.52463-0.82739-0.95157-1.71283-1.27219-2.63855
	c-0.35071-0.92856,0.73276-1.47504,0.73276-1.47504l0.87384-0.31067c0,0-0.94336-5.97623-8.06268-10.3924
	c-3.25183-2.01691-6.064-3.52332-8.39767-4.67764c-1.21414-1.85364-2.26273-3.81058-3.13348-5.84824
	c-2.75208-6.60538-24.05972-66.82401-24.05972-66.82401l-10.86554,4.69193l32.41275,70.64059
	c0.17352,0.62308,0.30716,1.04605,0.30716,1.04605c0.99484,2.94479,2.61389,5.64001,4.74655,7.90128
	c3.1871,3.03058,7.76306,5.40201,10.2934,9.22543c2.17966,3.29413,5.48215,7.04865,7.3396,9.43585L401.47623,519.20105z"/>
<linearGradient id="SVGID_00000143607003871104308630000001027337713113923732_" gradientUnits="userSpaceOnUse" x1="404.90628" y1="638.85529" x2="403.36847" y2="635.53534" gradientTransform="matrix(1 0 0 1 0 -110)">
	<stop  offset="0.57705" style="stop-color:#F5AA93"/>
	<stop  offset="0.89688" style="stop-color:#F5AA93"/>
</linearGradient>
<path style="fill:url(#SVGID_00000143607003871104308630000001027337713113923732_);" d="M404.78571,523.40503
	c-0.01785-0.02728-0.06183-0.07758-0.08426-0.10376l-2.40036,5.2807c0.78992,0.33502,1.4274,0.4895,1.99734,0.05493
	C405.7305,527.25256,405.93765,525.03003,404.78571,523.40503z"/>
</svg>
