<?xml version="1.0" encoding="utf-8"?>
<!-- Generator: Adobe Illustrator 26.2.1, SVG Export Plug-In . SVG Version: 6.00 Build 0)  -->
<svg version="1.1" id="Layer_1" xmlns="http://www.w3.org/2000/svg" xmlns:xlink="http://www.w3.org/1999/xlink" x="0px" y="0px"
	 viewBox="0 0 1400 500" style="enable-background:new 0 0 1400 500;" xml:space="preserve">
<style type="text/css">
	.st0{clip-path:url(#SVGID_00000098197767389368357900000002654016818254206386_);}
	.st1{fill:url(#SVGID_00000106846904527340140550000010499566076585386650_);}
	.st2{fill:#F7CAB3;}
	.st3{fill:#FFFFFF;}
	.st4{opacity:0.5;fill:url(#SVGID_00000124147395595287845200000006445950329308179895_);enable-background:new    ;}
	.st5{fill:url(#SVGID_00000096761922941008006450000012094496298403833019_);}
	.st6{fill:url(#SVGID_00000099649875476147619310000008636760123115333790_);}
	.st7{fill:url(#SVGID_00000127045285470742585800000001121376074228619930_);}
	.st8{fill:url(#SVGID_00000010307423580439012200000016749005988196591777_);}
	.st9{opacity:0.5;fill:url(#SVGID_00000070095086884138374660000008070183881643979169_);enable-background:new    ;}
	.st10{fill:#B52D25;}
	.st11{fill:#D54327;}
	.st12{fill:#911A1D;}
	.st13{fill:url(#SVGID_00000046341524875018996810000003429474366550487196_);}
	.st14{fill:url(#SVGID_00000115509520179775243110000006194790816550394280_);}
	.st15{opacity:0.5;fill:url(#SVGID_00000037680362240447462180000015932470548480156591_);enable-background:new    ;}
	.st16{opacity:0.5;fill:url(#SVGID_00000040551760866466440350000003445220221675914882_);enable-background:new    ;}
	.st17{fill:url(#SVGID_00000034783931229340145820000016710501782638344344_);}
	.st18{fill:url(#SVGID_00000054944680160104253850000000345666599877158790_);}
</style>
<g id="Layer_4">
	<g>
		<defs>
			<rect id="SVGID_1_" width="1400.99756" height="500"/>
		</defs>
		<clipPath id="SVGID_00000043442470993960208660000005522810742662711713_">
			<use xlink:href="#SVGID_1_"  style="overflow:visible;"/>
		</clipPath>
		<g style="clip-path:url(#SVGID_00000043442470993960208660000005522810742662711713_);">
			
				<linearGradient id="SVGID_00000177486731788696241090000017854800334955447680_" gradientUnits="userSpaceOnUse" x1="772.4704" y1="250.74126" x2="940.61328" y2="250.74126" gradientTransform="matrix(1 0 0 -1 0 390)">
				<stop  offset="0" style="stop-color:#005663"/>
				<stop  offset="0.04052" style="stop-color:#0E4552"/>
				<stop  offset="1" style="stop-color:#005663"/>
			</linearGradient>
			<path style="fill:url(#SVGID_00000177486731788696241090000017854800334955447680_);" d="M936.17249,84.57097
				c12.65533,33.98186-1.95819,77.69542-41.02332,104.43263c-47.50995,32.51701-100.30969,31.61038-122.55048,0.15584
				c-0.19946-0.28209-0.36359-0.96034,1.11176-1.10864c20.052-2.01555,30.36273-5.04738,76.38647-37.82523
				c44.34821-31.58459,44.31976-96.42348,72.75836-82.967C929.21259,70.26669,933.11688,76.36609,936.17249,84.57097z"/>
			<path class="st2" d="M809.04492,285.1355l26.46643,47.10632c0,0,5.77594-10.99106,6.23779-12.10403
				c0.46179-1.11295-16.73431-43.72278-16.73431-43.72278S805.86456,281.90411,809.04492,285.1355z"/>
			<path class="st3" d="M920.55426,324.48053c0,0-15.65155-39.26456-15.36383-45.49039
				c0.42627-9.59076-8.17255-95.677-8.17255-95.677c-2.3739,0.34491-4.70215,0.95265-6.94177,1.81203
				c-12.54431,4.37155-36.02356,11.59801-66.33594,8.04558c3.84387,15.50943,13.6402,63.08578,21.52588,93.56302
				c0.6261,2.88586,0.64764,5.87012,0.06323,8.76468c-0.42737,2.3082-4.43158,13.03687-7.48718,20.78903
				c-2.8772,7.29962-2.76044,16.0343-2.06024,24.79382c1.06702,13.34821,2.51562,25.92456,3.58789,34.84036
				c0.96204,7.99915,1.23944,15.25797,1.23944,15.25797L723.00665,542.87201l203.72357,1.25928l-18.68164-147.80374
				L920.55426,324.48053z"/>
			
				<linearGradient id="SVGID_00000116219277203811718590000000736144981040235963_" gradientUnits="userSpaceOnUse" x1="641.61853" y1="161.58659" x2="420.27899" y2="-300.33932" gradientTransform="matrix(1 0 0 -1 0 390)">
				<stop  offset="0.09462" style="stop-color:#02828F"/>
				<stop  offset="0.35676" style="stop-color:#5EB0B8;stop-opacity:0.85377"/>
				<stop  offset="0.70762" style="stop-color:#D2E9EB;stop-opacity:0.67169"/>
				<stop  offset="0.87194" style="stop-color:#FFFFFF;stop-opacity:0.6"/>
			</linearGradient>
			<path style="opacity:0.5;fill:url(#SVGID_00000116219277203811718590000000736144981040235963_);enable-background:new    ;" d="
				M839.43048,391.17966L180.15134,543.24292l620.58423,1.33252l50.27649-152.08286l-15.61127-54.17532
				c0,0,2.76733,30.31107,4.0498,38.29214C839.68146,378.18433,839.43048,391.17966,839.43048,391.17966z"/>
			<path class="st3" d="M829.84442,283.93503l-18.41296,10.43536l-4.97137-12.98682
				c-0.54462-1.02509-0.75128-2.19611-0.59045-3.34567c1.73724-12.42343,13.55664-76.61055,20.32141-73.35825
				c0.56836,4.54671,13.21393,34.52669,13.21393,34.52669l-13.76917,34.04839L829.84442,283.93503z"/>
			
				<linearGradient id="SVGID_00000123432652495529239810000018231425086290411710_" gradientUnits="userSpaceOnUse" x1="859.30457" y1="186.42169" x2="892.23584" y2="229.76506" gradientTransform="matrix(1 0 0 -1 0 390)">
				<stop  offset="0" style="stop-color:#F7CAB3"/>
				<stop  offset="0.13007" style="stop-color:#F7C5AE"/>
				<stop  offset="0.89688" style="stop-color:#F5AA93"/>
			</linearGradient>
			<path style="fill:url(#SVGID_00000123432652495529239810000018231425086290411710_);" d="M876.35443,182.24197l6.20886-14.32681
				c0,0-0.03925-2.26781,1.91821-2.54156c1.9574-0.27376,16.78387-2.82219,16.78387-2.82219s-6.60699,0.08881-10.85175-1.91811
				c-2.44324-1.15514-11.68652-7.10425-11.68652-7.10425l-1.59845,9.48419l-20.46027,67.24173
				c0,0,26.67651-39.69502,36.23175-46.40855C887.40021,185.62155,881.41083,185.04076,876.35443,182.24197z"/>
			<path class="st2" d="M899.50696,110.97454c0,0,2.41547,8.45407,1.70508,10.94055
				c-0.21313,1.27877-1.11401,6.58785-0.07715,8.26296c1.03693,1.67497,4.35748,5.27065,5.54736,7.50847
				c0.59583,1.12051-3.35675,2.77066-3.35675,2.77066s0.6803,2.16977,1.33203,4.19151
				c0.13489,0.53519,0.15039,1.09348,0.04541,1.63531c-0.09589,0.70674-0.05701,2.79175-0.13416,3.67513
				c-0.06427,0.73558-1.63702,12.36012-3.35675,12.57452c-4.77606,0.36385-9.5744-0.30864-14.06647-1.97144
				c-4.85449-2.04977-9.32245-4.91505-13.21051-8.47183l0.95721-27.53583L899.50696,110.97454z"/>
			
				<linearGradient id="SVGID_00000075853325914362004800000001481035684590617734_" gradientUnits="userSpaceOnUse" x1="763.91193" y1="-89.70128" x2="787.25989" y2="-89.70128" gradientTransform="matrix(0.99549 0.09487 0.09487 -0.99549 61.57483 138.22375)">
				<stop  offset="0" style="stop-color:#F7CAB3"/>
				<stop  offset="0.13007" style="stop-color:#F7C5AE"/>
				<stop  offset="0.89688" style="stop-color:#F5AA93"/>
			</linearGradient>
			<polygon style="fill:url(#SVGID_00000075853325914362004800000001481035684590617734_);" points="823.73969,287.36719 
				828.36981,284.76413 839.25195,312.68054 836.91046,318.86935 			"/>
			
				<linearGradient id="SVGID_00000081623667951576406070000003724965672299338134_" gradientUnits="userSpaceOnUse" x1="903.49457" y1="238.38107" x2="903.03284" y2="243.17644" gradientTransform="matrix(1 0 0 -1 0 390)">
				<stop  offset="0.16803" style="stop-color:#F5AA93"/>
				<stop  offset="0.54426" style="stop-color:#E47256"/>
				<stop  offset="0.74147" style="stop-color:#DD593B"/>
			</linearGradient>
			<path style="fill:url(#SVGID_00000081623667951576406070000003724965672299338134_);" d="M901.15869,148.89352l3.22357-0.85251
				c0,0,1.12775-0.01776,0.90637,1.40648c-0.1554,0.75874-0.45398,1.48093-0.87976,2.1279L901.15869,148.89352z"/>
			
				<linearGradient id="SVGID_00000054250792494687971140000010204622281610306729_" gradientUnits="userSpaceOnUse" x1="903.52155" y1="245.78169" x2="903.13037" y2="241.83128" gradientTransform="matrix(1 0 0 -1 0 390)">
				<stop  offset="0.16803" style="stop-color:#F5AA93"/>
				<stop  offset="0.33157" style="stop-color:#F39F87"/>
				<stop  offset="0.74147" style="stop-color:#ED866C"/>
			</linearGradient>
			<path style="fill:url(#SVGID_00000054250792494687971140000010204622281610306729_);" d="M904.61255,144.26505
				c0,0-1.03839,3.18983-3.45386,4.68173c1.38538-0.28416,3.35675-0.88803,3.35675-0.88803
				c0.55225-0.29204,0.67523-1.5316,0.72906-2.11205C905.16162,145.3461,904.94568,144.77159,904.61255,144.26505z"/>
			
				<linearGradient id="SVGID_00000139269836422013145000000008153924621035408810_" gradientUnits="userSpaceOnUse" x1="833.11218" y1="157.35316" x2="822.50879" y2="85.99516" gradientTransform="matrix(1 0 0 -1 0 390)">
				<stop  offset="0.09462" style="stop-color:#02828F"/>
				<stop  offset="0.30538" style="stop-color:#02828F;stop-opacity:0.67012"/>
				<stop  offset="0.63464" style="stop-color:#02828F;stop-opacity:0.18926"/>
				<stop  offset="0.78879" style="stop-color:#02828F;stop-opacity:0"/>
			</linearGradient>
			
				<polygon style="opacity:0.5;fill:url(#SVGID_00000139269836422013145000000008153924621035408810_);enable-background:new    ;" points="
				827.10162,238.70937 818.13202,273.98453 823.76282,287.32101 829.98242,284.00439 825.66248,273.20258 835.30383,249.27704 
				841.32349,236.86179 			"/>
			<path class="st10" d="M881.60425,94.63476c0,0,16.51868,5.25815,17.83234,19.29354
				c0.96527,10.31325-2.34125,18.27333-9.94659,30.64934c-5.27771,8.58832-58.37903,99.61714-58.37903,99.61714l-28.65894-6.45325
				c0,0,55.23724-62.94968,42.49432-78.88435c-14.07111-17.5954-16.86768-23.17351-10.51428-38.64714
				C851.57867,78.4496,881.60425,94.63476,881.60425,94.63476z"/>
			<path class="st11" d="M895.67023,104.39134c1.01935,1.33033,7.8692,8.26108,6.97839,19.40223
				c-1.2984,16.23812-18.19202,33.57172-18.19202,33.57172s-11.4837,66.00368-11.83521,68.81599
				c-26.48242,29.06033-57.50531,27.68077-57.50531,27.68077l65.63568-97.7755
				C880.75177,156.08656,907.34955,121.59934,895.67023,104.39134z"/>
			<path class="st12" d="M890.48462,99.74982c0,0,2.87048,0.66779,5.66937,5.15983
				c2.94482,4.72634-1.9696,22.21837-8.05115,31.89353c-2.5332,4.03018-13.04858,17.42091-13.04858,17.42091l-65.39014,75.03372
				l4.78418-33.44249l38.68573-31.92162L890.48462,99.74982z"/>
			
				<linearGradient id="SVGID_00000018208289509830608430000009085025266495924670_" gradientUnits="userSpaceOnUse" x1="829.43732" y1="266.38007" x2="888.1402" y2="266.38007" gradientTransform="matrix(1 0 0 -1 0 390)">
				<stop  offset="0.19281" style="stop-color:#005663"/>
				<stop  offset="0.43114" style="stop-color:#058793"/>
			</linearGradient>
			<path style="fill:url(#SVGID_00000018208289509830608430000009085025266495924670_);" d="M841.82043,155.73134
				c1.89783-0.89731,18.22888-12.53587,28.3446-28.09142c9.88062-15.19418,14.96741-24.35723,17.97516-30.5359
				c-5.96271-3.82849-12.93274-5.59513-20.5658-5.59513c-20.97095-0.09103-38.04529,16.83504-38.13708,37.80595
				C829.43726,141.50967,836.66919,150.0784,841.82043,155.73134z"/>
			
				<linearGradient id="SVGID_00000166641826261188936610000007147291954896884147_" gradientUnits="userSpaceOnUse" x1="772.45074" y1="260.97119" x2="906.7533" y2="260.97119" gradientTransform="matrix(1 0 0 -1 0 390)">
				<stop  offset="0.5051" style="stop-color:#93CFCC"/>
				<stop  offset="0.55582" style="stop-color:#9FD4D2"/>
				<stop  offset="0.85852" style="stop-color:#E4F3F2"/>
				<stop  offset="1" style="stop-color:#FFFFFF"/>
			</linearGradient>
			<path style="fill:url(#SVGID_00000166641826261188936610000007147291954896884147_);" d="M772.46588,188.92712
				c0,0,0.03571-1.11807,4.44702-1.03485c12.32501,0.23256,46.90588-0.03133,67.18091-13.83195
				c16.90808-11.5089,29.83789-27.99075,43.87323-64.37143c3.05481-7.91821,5.36273-13.85202,6.98059-18.34484
				c6.52344-18.11542,11.80566-22.21355,11.80566-22.21355s-4.59039,3.29097-13.8606,19.77658
				c-4.89679,8.70822-13.60413,21.18393-24.36029,36.13386c-23.0462,32.03173-36.42444,35.85104-60.52832,48.59303
				c-14.47467,7.65178-26.47498,12.56133-30.79248,13.4382c-0.90405,0.18362-3.19989,0.68224-3.99066,0.93193
				C772.27869,188.30174,772.46588,188.92712,772.46588,188.92712z"/>
			
				<linearGradient id="SVGID_00000155132018080895263670000013238684571814290858_" gradientUnits="userSpaceOnUse" x1="957.4425" y1="198.38078" x2="1052.19568" y2="-347.06378" gradientTransform="matrix(1 0 0 -1 0 390)">
				<stop  offset="0.09462" style="stop-color:#02828F"/>
				<stop  offset="0.32872" style="stop-color:#5EB0B8;stop-opacity:0.85377"/>
				<stop  offset="0.64205" style="stop-color:#D2E9EB;stop-opacity:0.67169"/>
				<stop  offset="0.78879" style="stop-color:#FFFFFF;stop-opacity:0.6"/>
			</linearGradient>
			<path style="opacity:0.5;fill:url(#SVGID_00000155132018080895263670000013238684571814290858_);enable-background:new    ;" d="
				M892.11853,224.7847c0,0-2.84082,47.67834-1.52777,64.19528c0.44086,5.54608,11.91302,21.64581,13.82166,37.73318
				c2.35156,19.81992-10.34662,71.9118-10.34662,71.9118l-44.47217,145.06216l338.09558,0.44421L908.14319,396.12592
				l11.82391-68.18741c0,0-14.35065-41.20474-14.06635-50.29807C906.25366,266.34848,892.11853,224.7847,892.11853,224.7847z"/>
			<path class="st2" d="M961.89441,373.08032c0,0-5.74469-9.8862-6.867-11.79248c-0.49463-0.84564-1.21289-1.53848-2.07581-2.00226
				c-0.73663-0.37033-1.45032-0.78467-2.13715-1.24078c-2.15234-1.49182-6.07373-4.23593-9.20435-6.88458
				c-1.52289-1.2883-3.02972-3.91333-4.34296-6.76746l-18.10669-67.44537l-19.71051,7.78833
				c-0.15466,2.06903,0.34143,4.13464,1.41888,5.90775l28.06885,61.37662c0.64166,2.47803,0.24701,3.1369,1.15369,4.88153
				c1.10034,2.11703,6.66144,3.15439,11.82794,5.06625c3.33612,1.23456,4.55212,4.56418,5.13,5.56168
				c0.77155,1.90527,1.43646,3.85208,1.99164,5.8313c0,0-2.73059,7.81067-2.97296,9.31924
				c-0.24231,1.50858,1.63464,0.76291,2.44336-0.04758c0.80872-0.81052,3.50854-7.05701,4.18317-9.03174
				c0.43182-1.26416-0.24316-5.16788-0.24316-5.16788l2.6897,5.26498c0,0-0.5249,6.67697-0.99988,8.3743
				c-0.47504,1.69733-0.57153,4.66971,0.13892,5.21237c0.71039,0.54266,1.41986,0.27567,2.01782-0.55679
				c0.5979-0.83243,2.79474-10.06207,2.79474-10.06207s1.91357,8.41904,2.26215,9.77921
				c0.39069,1.30566,1.24353,2.42438,2.39911,3.147c0.60864,0.34479,1.38159,0.13089,1.72632-0.47775
				c0.09534-0.16818,0.15082-0.35596,0.16235-0.54892L961.89441,373.08032z"/>
			<path class="st3" d="M904.49048,183.0611c3.00909,1.10667,9.06232,3.37497,9.3465,16.30472
				c0.74072,33.70229,3.71478,73.58575,3.71478,73.58575l8.09875,20.88651l-22.09418,9.80389l-7.41254-19.73138
				c-0.35864-0.95361-0.57507-1.95477-0.64246-2.97137c-0.56744-8.56174-3.37286-50.48428-4.51953-59.84869
				c-3.00568-23.32872-2.53088-36.20396,2.92609-37.77734C898.07397,182.11201,902.70459,182.40428,904.49048,183.0611z"/>
			
				<linearGradient id="SVGID_00000140695727644891858600000002681636708645273475_" gradientUnits="userSpaceOnUse" x1="908.72552" y1="169.79022" x2="892.77179" y2="62.42579" gradientTransform="matrix(1 0 0 -1 0 390)">
				<stop  offset="0.09462" style="stop-color:#02828F"/>
				<stop  offset="0.30538" style="stop-color:#02828F;stop-opacity:0.67012"/>
				<stop  offset="0.63464" style="stop-color:#02828F;stop-opacity:0.18926"/>
				<stop  offset="0.78879" style="stop-color:#02828F;stop-opacity:0"/>
			</linearGradient>
			
				<polygon style="opacity:0.5;fill:url(#SVGID_00000140695727644891858600000002681636708645273475_);enable-background:new    ;" points="
				891.82886,230.26105 893.81744,256.72382 895.63342,282.58154 903.48523,303.78442 913.43164,299.23721 904.62189,276.93024 
				891.97668,222.22719 			"/>
			
				<linearGradient id="SVGID_00000080919389939866329000000011243823379549828505_" gradientUnits="userSpaceOnUse" x1="904.32214" y1="94.63067" x2="947.77197" y2="9.73439" gradientTransform="matrix(1 0 0 -1 0 390)">
				<stop  offset="0" style="stop-color:#F5AA93"/>
				<stop  offset="0.25206" style="stop-color:#F5AE97"/>
				<stop  offset="0.49663" style="stop-color:#F6B9A3"/>
				<stop  offset="0.68462" style="stop-color:#F6C7B1"/>
				<stop  offset="0.8262" style="stop-color:#F6BAA3"/>
				<stop  offset="0.95341" style="stop-color:#F5AA93"/>
			</linearGradient>
			<path style="fill:url(#SVGID_00000080919389939866329000000011243823379549828505_);" d="M948.91919,373.61472l-0.02942-0.03839
				c-0.9115-1.20206-1.87262-2.37769-2.39001-3.16476c-0.40393-0.63708-0.73267-1.31888-0.97955-2.03165
				c-0.27002-0.71497,0.56421-1.13574,0.56421-1.13574l0.67285-0.2392c0,0-0.72638-4.60156-6.20807-8.00189
				c-2.50385-1.55298-4.66913-2.71286-6.466-3.60168c-0.93488-1.42725-1.74225-2.93405-2.41272-4.50299
				c-2.11902-5.08597-18.52539-51.45285-18.52539-51.45285l-8.36621,3.61267l24.95703,54.39154
				c0.13361,0.47974,0.23651,0.80542,0.23651,0.80542c0.76599,2.26743,2.01263,4.34268,3.65472,6.0838
				c2.45398,2.33347,5.97736,4.15939,7.92566,7.10333c1.67828,2.53644,4.22113,5.42731,5.65131,7.26538L948.91919,373.61472z"/>
			
				<linearGradient id="SVGID_00000088133722315041459330000008786622778842707115_" gradientUnits="userSpaceOnUse" x1="951.56024" y1="8.95176" x2="950.37616" y2="11.50803" gradientTransform="matrix(1 0 0 -1 0 390)">
				<stop  offset="0.57705" style="stop-color:#F5AA93"/>
				<stop  offset="0.89688" style="stop-color:#F5AA93"/>
			</linearGradient>
			<path style="fill:url(#SVGID_00000088133722315041459330000008786622778842707115_);" d="M951.46741,376.85168
				c-0.01373-0.021-0.04761-0.05975-0.06488-0.0799l-1.84821,4.06601c0.60822,0.25793,1.09906,0.37689,1.5379,0.04227
				C952.19489,379.81418,952.35437,378.10291,951.46741,376.85168z"/>
		</g>
	</g>
</g>
</svg>
