<?xml version="1.0" encoding="utf-8"?>
<!-- Generator: Adobe Illustrator 26.2.1, SVG Export Plug-In . SVG Version: 6.00 Build 0)  -->
<svg version="1.1" id="Layer_1" xmlns="http://www.w3.org/2000/svg" xmlns:xlink="http://www.w3.org/1999/xlink" x="0px" y="0px"
	 viewBox="0 0 414.00003 736" style="enable-background:new 0 0 414.00003 736;" xml:space="preserve">
<style type="text/css">
	.st0{fill:none;}
	.st1{opacity:0.9;fill:#467F89;enable-background:new    ;}
	.st2{opacity:0.9;fill:#AF3619;enable-background:new    ;}
	.st3{opacity:0.9;fill:#ECAF91;enable-background:new    ;}
	.st4{opacity:0.9;fill:#F1B99F;enable-background:new    ;}
	.st5{opacity:0.95;fill:#F1B99F;enable-background:new    ;}
	.st6{opacity:0.87;fill:#152032;enable-background:new    ;}
	.st7{fill:url(#SVGID_1_);}
	.st8{fill:url(#SVGID_00000129896288551318748510000003881408821959141248_);}
	.st9{fill:url(#SVGID_00000151535869502303904300000000989368713318930049_);}
	.st10{fill:url(#SVGID_00000097496898463345795110000009205172031055696563_);}
	.st11{fill:url(#SVGID_00000176018127145722886880000011641787946528983205_);}
	.st12{fill:url(#SVGID_00000057846284589628373720000017508863691475482540_);}
	.st13{fill:url(#SVGID_00000042717529979181248270000003373716229256299949_);}
	.st14{fill:url(#SVGID_00000132081093975331090950000004355559532974949306_);}
	.st15{fill:url(#SVGID_00000042005260728662182850000014295467352571831702_);}
	.st16{fill:url(#SVGID_00000147919249151210939150000007392985816408199072_);}
	.st17{fill:url(#SVGID_00000133505792442230588720000009488738126265693875_);}
	.st18{fill:url(#SVGID_00000178176757541364232640000014251768700808192428_);}
	.st19{fill:url(#SVGID_00000130630494831917160590000015894732038869714101_);}
	.st20{fill:url(#SVGID_00000018238496571040425500000000847594251070800004_);}
	.st21{fill:url(#SVGID_00000012432689845665533330000013995565330564019380_);}
	.st22{fill:url(#SVGID_00000183954206074201391620000000939498914238534585_);}
	.st23{fill:url(#SVGID_00000035510371923903543910000002695359269622767509_);}
	.st24{fill:url(#SVGID_00000124134207915580089560000005898541482166946217_);}
	.st25{fill:url(#SVGID_00000111173229032838817540000005196131162708467106_);}
	.st26{fill:url(#SVGID_00000076570785417613877300000006711084764552439449_);}
	.st27{fill:url(#SVGID_00000175313192191615285710000015371995696546799754_);}
	.st28{fill:url(#SVGID_00000011717217425204999960000000259737711131191204_);}
	.st29{fill:url(#SVGID_00000111882744805033824700000004146075163688653962_);}
	.st30{fill:url(#SVGID_00000059288358991707198700000002436287691604893827_);}
	.st31{fill:url(#SVGID_00000087375073645834184960000002749239170041166502_);}
	.st32{fill:url(#SVGID_00000179606570501841457120000008157745538159611008_);}
	.st33{fill:url(#SVGID_00000098934149846815604250000012775267249812683447_);}
	.st34{fill:url(#SVGID_00000165193948322714524090000015561236874207038603_);}
	.st35{fill:url(#SVGID_00000085956341009347575610000001460577654450132356_);}
	.st36{fill:url(#SVGID_00000070827860352275187680000011128071276464600240_);}
	.st37{fill:url(#SVGID_00000036245306856753612030000014785712899132131222_);}
	.st38{fill:url(#SVGID_00000055692501447704116850000002740591806610019516_);}
	.st39{fill:url(#SVGID_00000090289925858294873610000003463591710217715846_);}
	.st40{fill:url(#SVGID_00000152981163331878442150000002191342606436776123_);}
	.st41{fill:url(#SVGID_00000082357960725621841370000008529308950025182109_);}
	.st42{fill:url(#SVGID_00000039093216652174456820000011189989556492399489_);}
	.st43{fill:url(#SVGID_00000094612535672359308420000002669475977419580308_);}
	.st44{fill:url(#SVGID_00000127036488628824134140000000336872311353196936_);}
	.st45{fill:url(#SVGID_00000056394887431767166010000013322078443079157905_);}
	.st46{fill:url(#SVGID_00000067918275837883148780000000332132764037223335_);}
	.st47{fill:url(#SVGID_00000071525424187856006280000008207050427851566760_);}
	.st48{fill:url(#SVGID_00000012463629136281725090000014063736399150307237_);}
	.st49{fill:url(#SVGID_00000086691850341147617180000009140729709615106698_);}
	.st50{fill:url(#SVGID_00000137816131042425217450000002735028410494956684_);}
	.st51{fill:url(#SVGID_00000117638484250028572780000000769432071545013658_);}
	.st52{fill:url(#SVGID_00000183931722216230288420000010244952965640286376_);}
	.st53{fill:url(#SVGID_00000085953549422017273810000007517178949524346768_);}
	.st54{fill:url(#SVGID_00000150816548466612167960000012658660360731156356_);}
	.st55{fill:url(#SVGID_00000043438870329401970250000010430967618646001804_);}
	.st56{opacity:0.35;fill:url(#SVGID_00000033364062617641586480000014357170199278824835_);enable-background:new    ;}
	.st57{opacity:0.45;fill:url(#SVGID_00000049217470189957042980000006686986784142748838_);enable-background:new    ;}
	.st58{opacity:0.3;fill:url(#SVGID_00000037662254464093204670000013046425339100950427_);enable-background:new    ;}
	.st59{fill:#1E1E1C;}
</style>
<path class="st0" d="M-830.92535,683.34296"/>
<path class="st0" d="M988.60956,683.34296"/>
<path class="st0" d="M988.60956,33.97179"/>
<rect x="79.09703" y="26.58847" class="st1" width="28.85705" height="303.58151"/>
<polygon class="st1" points="135.58142,324.59274 106.72514,324.78064 104.45355,26.6861 133.30984,26.4982 "/>
<polygon class="st2" points="163.87712,332.89267 133.60318,332.40463 131.43642,24.34942 164.834,24.37174 "/>
<rect x="160.99927" y="24.496" class="st2" width="28.85705" height="280.88907"/>
<polygon class="st3" points="241.0571,292.41684 212.20023,292.01993 212.20023,22.70047 241.0571,22.70047 "/>
<polygon class="st4" points="86.30891,338.75421 57.4582,339.46924 54.42386,39.66065 83.27953,39.41135 "/>
<polygon class="st5" points="59.29504,335.36639 30.43628,335.7236 31.71065,43.15637 60.56758,43.26365 "/>
<rect x="188.07578" y="42.03709" class="st3" width="28.85705" height="245.14494"/>
<polygon class="st6" points="32.98828,683.15222 195.74725,683.15222 164.72699,720.76917 0,720.76917 "/>
<polygon class="st6" points="146.42334,683.6344 378.5849,683.6344 414.00003,724.22491 127.90057,724.22491 "/>
<linearGradient id="SVGID_1_" gradientUnits="userSpaceOnUse" x1="265.92175" y1="375.79504" x2="266.20123" y2="370.57745" gradientTransform="matrix(1 0 0 1 0 2)">
	<stop  offset="0" style="stop-color:#E6F0DC"/>
	<stop  offset="1" style="stop-color:#19223D"/>
</linearGradient>
<polyline class="st7" points="275.34943,372.61447 259.19214,372.61447 257.1933,369.92224 261.46118,369.7804 275.34943,372.61447 
	"/>
<linearGradient id="SVGID_00000114036022729567020130000012636745386569397182_" gradientUnits="userSpaceOnUse" x1="350.39746" y1="525.01202" x2="301.01904" y2="538.22595" gradientTransform="matrix(1 0 0 1 0 2)">
	<stop  offset="0" style="stop-color:#E6F0DC"/>
	<stop  offset="1" style="stop-color:#19223D"/>
</linearGradient>
<polygon style="fill:url(#SVGID_00000114036022729567020130000012636745386569397182_);" points="274.35797,372.61209 
	374.86035,698.40814 362.79956,698.09497 262.54187,372.5802 "/>
<linearGradient id="SVGID_00000108273708490776435990000006645876309582504834_" gradientUnits="userSpaceOnUse" x1="356.0307" y1="523.7066" x2="323.43219" y2="533.87732" gradientTransform="matrix(1 0 0 1 0 2)">
	<stop  offset="0" style="stop-color:#E6F0DC"/>
	<stop  offset="1" style="stop-color:#19223D"/>
</linearGradient>
<polygon style="fill:url(#SVGID_00000108273708490776435990000006645876309582504834_);" points="374.86035,698.40814 
	376.52289,697.3338 275.34943,372.61447 274.35797,372.61209 "/>
<linearGradient id="SVGID_00000049929987039103688780000015878660103585307272_" gradientUnits="userSpaceOnUse" x1="285.42123" y1="438.85931" x2="283.48532" y2="429.17947" gradientTransform="matrix(1 0 0 1 0 2)">
	<stop  offset="0" style="stop-color:#E6F0DC"/>
	<stop  offset="1" style="stop-color:#19223D"/>
</linearGradient>
<polygon style="fill:url(#SVGID_00000049929987039103688780000015878660103585307272_);" points="279.81415,429.99509 
	291.54822,429.68585 291.72595,432.89771 275.65466,433.83417 276.02533,430.08835 "/>
<linearGradient id="SVGID_00000088126816554419604350000013947315808864366213_" gradientUnits="userSpaceOnUse" x1="255.03534" y1="544.9657" x2="225.88025" y2="538.36151" gradientTransform="matrix(1 0 0 1 0 2)">
	<stop  offset="0" style="stop-color:#E6F0DC"/>
	<stop  offset="1" style="stop-color:#19223D"/>
</linearGradient>
<polygon style="fill:url(#SVGID_00000088126816554419604350000013947315808864366213_);" points="196.81995,691.80115 
	198.84113,690.67981 258.02136,394.61847 258.02136,389.61975 "/>
<linearGradient id="SVGID_00000044869247100841104400000013227258425931618722_" gradientUnits="userSpaceOnUse" x1="253.52356" y1="538.7323" x2="205.0097" y2="527.77759" gradientTransform="matrix(1 0 0 1 0 2)">
	<stop  offset="0" style="stop-color:#E6F0DC"/>
	<stop  offset="1" style="stop-color:#19223D"/>
</linearGradient>
<polygon style="fill:url(#SVGID_00000044869247100841104400000013227258425931618722_);" points="252.80511,376.05823 
	190.90875,691.10535 196.81995,691.80115 258.02136,389.61975 "/>
<linearGradient id="SVGID_00000043442089811966471260000010301958513960821392_" gradientUnits="userSpaceOnUse" x1="233.97554" y1="466.14935" x2="225.27583" y2="395.88257" gradientTransform="matrix(1 0 0 1 0 2)">
	<stop  offset="0" style="stop-color:#E6F0DC"/>
	<stop  offset="1" style="stop-color:#19223D"/>
</linearGradient>
<polygon style="fill:url(#SVGID_00000043442089811966471260000010301958513960821392_);" points="272.25311,437.14883 
	187.08319,433.43408 187.56696,424.43451 271.58289,427.87033 "/>
<linearGradient id="SVGID_00000078014453056705271160000006494506690596352653_" gradientUnits="userSpaceOnUse" x1="331.12976" y1="650.79901" x2="359.28644" y2="650.79901" gradientTransform="matrix(1 0 0 1 0 2)">
	<stop  offset="0" style="stop-color:#E6F0DC"/>
	<stop  offset="1" style="stop-color:#19223D"/>
</linearGradient>
<polygon style="fill:url(#SVGID_00000078014453056705271160000006494506690596352653_);" points="343.84247,656.5791 
	359.28644,649.46521 347.68469,649.01892 331.12976,655.22424 "/>
<linearGradient id="SVGID_00000091713238170234738570000003204753989402417338_" gradientUnits="userSpaceOnUse" x1="353.94016" y1="660.74054" x2="351.59293" y2="652.22101" gradientTransform="matrix(1 0 0 1 0 2)">
	<stop  offset="0" style="stop-color:#E6F0DC"/>
	<stop  offset="1" style="stop-color:#19223D"/>
</linearGradient>
<polygon style="fill:url(#SVGID_00000091713238170234738570000003204753989402417338_);" points="359.28644,649.46521 
	359.44586,653.30432 344.40833,660.82385 343.84247,656.5791 "/>
<linearGradient id="SVGID_00000178923595358399383840000017649084990183953852_" gradientUnits="userSpaceOnUse" x1="323.93042" y1="593.47137" x2="341.66077" y2="593.47137" gradientTransform="matrix(1 0 0 1 0 2)">
	<stop  offset="0" style="stop-color:#E6F0DC"/>
	<stop  offset="1" style="stop-color:#19223D"/>
</linearGradient>
<path style="fill:url(#SVGID_00000178923595358399383840000017649084990183953852_);" d="M323.93042,594.27155
	c0.79987,0,6.37567-2.23975,6.37567-2.23975h11.35468l-15.65063,6.87915L323.93042,594.27155z"/>
<linearGradient id="SVGID_00000062187961794541659990000013491598536548049304_" gradientUnits="userSpaceOnUse" x1="336.42386" y1="603.78271" x2="333.9437" y2="594.74103" gradientTransform="matrix(1 0 0 1 0 2)">
	<stop  offset="0" style="stop-color:#E6F0DC"/>
	<stop  offset="1" style="stop-color:#19223D"/>
</linearGradient>
<polygon style="fill:url(#SVGID_00000062187961794541659990000013491598536548049304_);" points="341.66113,592.03198 
	341.88666,595.21436 326.53271,602.56738 326.00989,598.91077 "/>
<linearGradient id="SVGID_00000060029659010527153590000005104995231534983045_" gradientUnits="userSpaceOnUse" x1="308.89221" y1="536.19836" x2="324.57056" y2="536.19836" gradientTransform="matrix(1 0 0 1 0 2)">
	<stop  offset="0" style="stop-color:#E6F0DC"/>
	<stop  offset="1" style="stop-color:#19223D"/>
</linearGradient>
<polygon style="fill:url(#SVGID_00000060029659010527153590000005104995231534983045_);" points="309.43018,537.28381 
	313.03253,536.51233 324.57056,536.35852 308.89221,540.03821 "/>
<linearGradient id="SVGID_00000028323757829057345200000005623813583298048385_" gradientUnits="userSpaceOnUse" x1="320.00351" y1="548.02307" x2="317.41812" y2="536.68732" gradientTransform="matrix(1 0 0 1 0 2)">
	<stop  offset="0" style="stop-color:#E6F0DC"/>
	<stop  offset="1" style="stop-color:#19223D"/>
</linearGradient>
<polygon style="fill:url(#SVGID_00000028323757829057345200000005623813583298048385_);" points="311.35327,543.20544 
	324.78571,539.65009 324.57056,536.35852 309.98413,539.78156 "/>
<linearGradient id="SVGID_00000183942145213483528850000017638088122476639920_" gradientUnits="userSpaceOnUse" x1="301.38101" y1="489.86948" x2="299.44498" y2="480.18961" gradientTransform="matrix(1 0 0 1 0 2)">
	<stop  offset="0" style="stop-color:#E6F0DC"/>
	<stop  offset="1" style="stop-color:#19223D"/>
</linearGradient>
<polygon style="fill:url(#SVGID_00000183942145213483528850000017638088122476639920_);" points="295.7738,481.00461 
	307.50787,480.69617 307.68555,483.90802 291.61438,484.84451 291.98413,481.09866 "/>
<linearGradient id="SVGID_00000103946034474543348860000016557259084278102691_" gradientUnits="userSpaceOnUse" x1="269.67041" y1="423.95779" x2="273.49548" y2="423.95779" gradientTransform="matrix(1 0 0 1 0 2)">
	<stop  offset="0" style="stop-color:#E2EAB3"/>
	<stop  offset="1" style="stop-color:#004D53"/>
</linearGradient>
<circle style="fill:url(#SVGID_00000103946034474543348860000016557259084278102691_);" cx="271.58295" cy="425.95779" r="1.91254"/>
<linearGradient id="SVGID_00000100348556633569354450000008984626503322937737_" gradientUnits="userSpaceOnUse" x1="195.02289" y1="665.90021" x2="190.61823" y2="649.84644" gradientTransform="matrix(1 0 0 1 0 2)">
	<stop  offset="0" style="stop-color:#E6F0DC"/>
	<stop  offset="1" style="stop-color:#19223D"/>
</linearGradient>
<polygon style="fill:url(#SVGID_00000100348556633569354450000008984626503322937737_);" points="180.67065,655.64984 
	204.20642,647.80511 202.83881,654.2583 178.87024,662.59479 "/>
<linearGradient id="SVGID_00000013914272972830304560000006140308618110065848_" gradientUnits="userSpaceOnUse" x1="180.15662" y1="649.11621" x2="204.20642" y2="649.11621" gradientTransform="matrix(1 0 0 1 0 2)">
	<stop  offset="0" style="stop-color:#E6F0DC"/>
	<stop  offset="1" style="stop-color:#19223D"/>
</linearGradient>
<polygon style="fill:url(#SVGID_00000013914272972830304560000006140308618110065848_);" points="204.20642,647.80511 
	200.73395,647.03284 180.15662,653.59204 182.21924,655.19952 "/>
<linearGradient id="SVGID_00000054947952315133666470000017411172892726401712_" gradientUnits="userSpaceOnUse" x1="205.65685" y1="609.77441" x2="203.2227" y2="594.82184" gradientTransform="matrix(1 0 0 1 0 2)">
	<stop  offset="0" style="stop-color:#E6F0DC"/>
	<stop  offset="1" style="stop-color:#19223D"/>
</linearGradient>
<polygon style="fill:url(#SVGID_00000054947952315133666470000017411172892726401712_);" points="192.63184,604.84912 
	213.48737,601.09692 214.75214,594.56006 192.88843,598.16162 "/>
<linearGradient id="SVGID_00000042702119455956520860000008304958980654853257_" gradientUnits="userSpaceOnUse" x1="192.63184" y1="593.91095" x2="214.75214" y2="593.91095" gradientTransform="matrix(1 0 0 1 0 2)">
	<stop  offset="0" style="stop-color:#E6F0DC"/>
	<stop  offset="1" style="stop-color:#19223D"/>
</linearGradient>
<polygon style="fill:url(#SVGID_00000042702119455956520860000008304958980654853257_);" points="214.75214,594.56006 
	211.53711,593.66022 192.63184,596.36121 192.88843,598.16162 "/>
<linearGradient id="SVGID_00000121268813297496039390000015391916003075152059_" gradientUnits="userSpaceOnUse" x1="216.73393" y1="553.35474" x2="215.92259" y2="538.28619" gradientTransform="matrix(1 0 0 1 0 2)">
	<stop  offset="0" style="stop-color:#E6F0DC"/>
	<stop  offset="1" style="stop-color:#19223D"/>
</linearGradient>
<path style="fill:url(#SVGID_00000121268813297496039390000015391916003075152059_);" d="M205.62103,547.87506
	c2.31494,0,19.61707-1.78955,19.61707-1.78955l1.34625-6.69867l-20.70618,1.28613L205.62103,547.87506z"/>
<linearGradient id="SVGID_00000043443452401744035640000015499384222030511020_" gradientUnits="userSpaceOnUse" x1="201.86266" y1="537.57977" x2="226.58441" y2="537.57977" gradientTransform="matrix(1 0 0 1 0 2)">
	<stop  offset="0" style="stop-color:#E6F0DC"/>
	<stop  offset="1" style="stop-color:#19223D"/>
</linearGradient>
<path style="fill:url(#SVGID_00000043443452401744035640000015499384222030511020_);" d="M226.58441,539.38684l-5.01581-0.90027
	c0,0-20.57758,1.15753-19.67725,1.15753c1.35541,0.23059,2.68909,0.57477,3.98688,1.02887L226.58441,539.38684z"/>
<linearGradient id="SVGID_00000116232873852855847280000006764965489995502748_" gradientUnits="userSpaceOnUse" x1="226.72458" y1="501.5293" x2="226.84048" y2="483.09933" gradientTransform="matrix(1 0 0 1 0 2)">
	<stop  offset="0" style="stop-color:#E6F0DC"/>
	<stop  offset="1" style="stop-color:#19223D"/>
</linearGradient>
<path style="fill:url(#SVGID_00000116232873852855847280000006764965489995502748_);" d="M218.48199,492.3157
	c1.54333,0,17.1051-0.38583,17.1051-0.38583l1.15747-6.94492l-19.80591-0.12863L218.48199,492.3157z"/>
<linearGradient id="SVGID_00000067220540689466119150000000784770363253964194_" gradientUnits="userSpaceOnUse" x1="268.4053" y1="379.40247" x2="268.4053" y2="366.32037" gradientTransform="matrix(1 0 0 1 0 2)">
	<stop  offset="0" style="stop-color:#E6F0DC"/>
	<stop  offset="1" style="stop-color:#19223D"/>
</linearGradient>
<polygon style="fill:url(#SVGID_00000067220540689466119150000000784770363253964194_);" points="261.46118,365.52927 
	275.26178,369.5126 275.34943,372.61447 261.46118,369.7804 "/>
<linearGradient id="SVGID_00000010304394635937056560000016114921905412735626_" gradientUnits="userSpaceOnUse" x1="273.55908" y1="545.0119" x2="343.24542" y2="528.89697" gradientTransform="matrix(1 0 0 1 0 2)">
	<stop  offset="0" style="stop-color:#E6F0DC"/>
	<stop  offset="1" style="stop-color:#19223D"/>
</linearGradient>
<polygon style="fill:url(#SVGID_00000010304394635937056560000016114921905412735626_);" points="344.48163,707.50415 
	251.06683,376.40573 261.46118,369.7804 356.77838,707.79663 "/>
<linearGradient id="SVGID_00000138569665531192252660000017398070815499852428_" gradientUnits="userSpaceOnUse" x1="347.95148" y1="523.76569" x2="305.14905" y2="538.12018" gradientTransform="matrix(1 0 0 1 0 2)">
	<stop  offset="0" style="stop-color:#E6F0DC"/>
	<stop  offset="1" style="stop-color:#19223D"/>
</linearGradient>
<polygon style="fill:url(#SVGID_00000138569665531192252660000017398070815499852428_);" points="356.77838,707.79663 
	358.88159,706.51904 263.08942,370.11273 261.46118,369.7804 "/>
<linearGradient id="SVGID_00000161622977618576368770000004188876721722700934_" gradientUnits="userSpaceOnUse" x1="285.62994" y1="481.45807" x2="289.45502" y2="481.45807" gradientTransform="matrix(1 0 0 1 0 2)">
	<stop  offset="0" style="stop-color:#E6F0DC"/>
	<stop  offset="1" style="stop-color:#19223D"/>
</linearGradient>
<circle style="fill:url(#SVGID_00000161622977618576368770000004188876721722700934_);" cx="287.54248" cy="483.45807" r="1.91254"/>
<linearGradient id="SVGID_00000154388142459880330980000002144184068069376911_" gradientUnits="userSpaceOnUse" x1="271.58295" y1="430.44791" x2="275.40802" y2="430.44791" gradientTransform="matrix(1 0 0 1 0 2)">
	<stop  offset="0" style="stop-color:#E6F0DC"/>
	<stop  offset="1" style="stop-color:#19223D"/>
</linearGradient>
<circle style="fill:url(#SVGID_00000154388142459880330980000002144184068069376911_);" cx="273.49548" cy="432.44791" r="1.91254"/>
<linearGradient id="SVGID_00000155854162572027747010000013869421193438895541_" gradientUnits="userSpaceOnUse" x1="302.40601" y1="539.86359" x2="306.23108" y2="539.86359" gradientTransform="matrix(1 0 0 1 0 2)">
	<stop  offset="0" style="stop-color:#E6F0DC"/>
	<stop  offset="1" style="stop-color:#19223D"/>
</linearGradient>
<circle style="fill:url(#SVGID_00000155854162572027747010000013869421193438895541_);" cx="304.31854" cy="541.86359" r="1.91254"/>
<linearGradient id="SVGID_00000036932022571682293700000002182142842502520984_" gradientUnits="userSpaceOnUse" x1="318.94397" y1="599.16602" x2="322.76904" y2="599.16602" gradientTransform="matrix(1 0 0 1 0 2)">
	<stop  offset="0" style="stop-color:#E6F0DC"/>
	<stop  offset="1" style="stop-color:#19223D"/>
</linearGradient>
<circle style="fill:url(#SVGID_00000036932022571682293700000002182142842502520984_);" cx="320.85651" cy="601.16602" r="1.91254"/>
<linearGradient id="SVGID_00000029019116548542381070000009761786184966668703_" gradientUnits="userSpaceOnUse" x1="335.98669" y1="657.88904" x2="339.81177" y2="657.88904" gradientTransform="matrix(1 0 0 1 0 2)">
	<stop  offset="0" style="stop-color:#E6F0DC"/>
	<stop  offset="1" style="stop-color:#19223D"/>
</linearGradient>
<circle style="fill:url(#SVGID_00000029019116548542381070000009761786184966668703_);" cx="337.89923" cy="659.88904" r="1.91254"/>
<linearGradient id="SVGID_00000150096440632209214580000003619430155559914412_" gradientUnits="userSpaceOnUse" x1="266.86865" y1="465.36377" x2="268.98779" y2="481.52225" gradientTransform="matrix(1 0 0 1 0 2)">
	<stop  offset="0" style="stop-color:#E6F0DC"/>
	<stop  offset="1" style="stop-color:#19223D"/>
</linearGradient>
<path style="fill:url(#SVGID_00000150096440632209214580000003619430155559914412_);" d="M250.02338,472.38043
	c4.17285,0,34.7735-3.12961,34.7735-3.12961l0.42322,3.0863l-34.99365,3.08633L250.02338,472.38043z"/>
<linearGradient id="SVGID_00000090997372863016269920000003034616259180392096_" gradientUnits="userSpaceOnUse" x1="282.14911" y1="466.40271" x2="283.0545" y2="468.7009" gradientTransform="matrix(1 0 0 1 0 2)">
	<stop  offset="0" style="stop-color:#E6F0DC"/>
	<stop  offset="1" style="stop-color:#19223D"/>
</linearGradient>
<circle style="fill:url(#SVGID_00000090997372863016269920000003034616259180392096_);" cx="283.13745" cy="470.91144" r="0.59962"/>
<linearGradient id="SVGID_00000093151484987177909410000000845925434960914868_" gradientUnits="userSpaceOnUse" x1="184.43738" y1="529.94043" x2="252.9411" y2="544.89301" gradientTransform="matrix(1 0 0 1 0 2)">
	<stop  offset="0" style="stop-color:#E6F0DC"/>
	<stop  offset="1" style="stop-color:#19223D"/>
</linearGradient>
<polygon style="fill:url(#SVGID_00000093151484987177909410000000845925434960914868_);" points="239.93933,372.5802 
	163.08997,698.75568 170.39191,699.79889 246.54633,375.01498 "/>
<linearGradient id="SVGID_00000078014088383995750020000016795839907047004322_" gradientUnits="userSpaceOnUse" x1="240.14655" y1="544.00159" x2="204.42047" y2="534.30847" gradientTransform="matrix(1 0 0 1 0 2)">
	<stop  offset="0" style="stop-color:#E6F0DC"/>
	<stop  offset="1" style="stop-color:#19223D"/>
</linearGradient>
<polygon style="fill:url(#SVGID_00000078014088383995750020000016795839907047004322_);" points="170.39191,699.79889 
	172.61395,698.17938 248.63208,376.7532 246.54633,375.01498 "/>
<linearGradient id="SVGID_00000112592360243489787680000013281845986549894587_" gradientUnits="userSpaceOnUse" x1="237.58849" y1="464.46625" x2="234.47496" y2="480.81232" gradientTransform="matrix(1 0 0 1 0 2)">
	<stop  offset="0" style="stop-color:#E6F0DC"/>
	<stop  offset="1" style="stop-color:#19223D"/>
</linearGradient>
<polygon style="fill:url(#SVGID_00000112592360243489787680000013281845986549894587_);" points="220.46576,467.16415 
	253.50085,472.64185 252.80511,475.42331 219.77075,470.29391 "/>
<linearGradient id="SVGID_00000177474622706827348330000014214555952984153013_" gradientUnits="userSpaceOnUse" x1="294.14679" y1="396.78265" x2="233.64093" y2="354.70673" gradientTransform="matrix(1 0 0 1 0 2)">
	<stop  offset="0" style="stop-color:#E6F0DC"/>
	<stop  offset="1" style="stop-color:#19223D"/>
</linearGradient>
<polygon style="fill:url(#SVGID_00000177474622706827348330000014214555952984153013_);" points="261.46118,365.52927 
	261.46118,369.7804 237.51172,369.92224 237.40173,365.87357 "/>
<linearGradient id="SVGID_00000146466118293840817710000017091593145091666076_" gradientUnits="userSpaceOnUse" x1="293.19574" y1="400.1514" x2="231.24738" y2="357.07239" gradientTransform="matrix(1 0 0 1 0 2)">
	<stop  offset="0" style="stop-color:#E6F0DC"/>
	<stop  offset="1" style="stop-color:#19223D"/>
</linearGradient>
<polygon style="fill:url(#SVGID_00000146466118293840817710000017091593145091666076_);" points="237.51172,369.91986 
	243.03882,377.57492 261.46118,377.57492 261.46118,369.7804 "/>
<linearGradient id="SVGID_00000120539614958966487890000009500788393420702599_" gradientUnits="userSpaceOnUse" x1="220.54315" y1="464.5062" x2="221.44849" y2="466.80435" gradientTransform="matrix(1 0 0 1 0 2)">
	<stop  offset="0" style="stop-color:#E6F0DC"/>
	<stop  offset="1" style="stop-color:#19223D"/>
</linearGradient>
<circle style="fill:url(#SVGID_00000120539614958966487890000009500788393420702599_);" cx="221.53143" cy="469.01492" r="0.59962"/>
<linearGradient id="SVGID_00000142134441826148975550000015320172806481792923_" gradientUnits="userSpaceOnUse" x1="250.67786" y1="469.27859" x2="251.58325" y2="471.57678" gradientTransform="matrix(1 0 0 1 0 2)">
	<stop  offset="0" style="stop-color:#E6F0DC"/>
	<stop  offset="1" style="stop-color:#19223D"/>
</linearGradient>
<circle style="fill:url(#SVGID_00000142134441826148975550000015320172806481792923_);" cx="251.6662" cy="473.78732" r="0.59962"/>
<linearGradient id="SVGID_00000172401906300428741120000007486017457409602217_" gradientUnits="userSpaceOnUse" x1="113.73536" y1="679.39929" x2="119.206" y2="689.40033" gradientTransform="matrix(1 0 0 1 0 2)">
	<stop  offset="0" style="stop-color:#E6F0DC"/>
	<stop  offset="1" style="stop-color:#19223D"/>
</linearGradient>
<path style="fill:url(#SVGID_00000172401906300428741120000007486017457409602217_);" d="M109.9574,702.73383h-3.64008
	c-0.409,0.01117-0.8017-0.16071-1.07098-0.46863c-0.41736-0.6347-0.5575-1.41223-0.388-2.15265
	c0.04626-0.32538,0.133-1.44073,0.23346-2.7323c0.15649-2.0127,0.35132-4.51782,0.54999-6.17621
	c0.10016-0.83728,0.72852-1.46259,1.86755-1.85858c0.35815-0.12463,4.57538-1.60553,9.04016-3.1734
	c5.84814-2.05359,12.4765-4.38129,12.78473-4.48712c0.40802-0.13989,0.4975-0.42511,0.5542-1.05334
	c0.00659-0.07373,0.013-0.14301,0.02063-0.20599c0.09967-0.82159,0.3537-3.11127,0.35626-3.13434l1.20959,0.13416
	c-0.00256,0.02307-0.25714,2.31897-0.3576,3.14673c-0.00629,0.05164-0.01129,0.10834-0.01672,0.16876
	c0.03931,0.92017-0.51227,1.763-1.37122,2.09528c-0.30408,0.10443-6.93036,2.43127-12.77655,4.48425
	c-4.65955,1.63629-8.68365,3.04926-9.04358,3.17462c-0.45557,0.15839-1.00891,0.435-1.05902,0.8537
	c-0.19556,1.63342-0.38934,4.12439-0.54504,6.12592c-0.11035,1.41968-0.19012,2.44537-0.24182,2.80908
	c-0.10242,0.39459-0.06635,0.81244,0.10217,1.18359c0.01605,0.01849,0.04285,0.04944,0.15179,0.04944h3.64008V702.73383z"/>
<linearGradient id="SVGID_00000049939832831737838480000010757424057150162317_" gradientUnits="userSpaceOnUse" x1="142.30542" y1="546.44958" x2="149.22589" y2="547.22638" gradientTransform="matrix(1 0 0 1 0 2)">
	<stop  offset="0" style="stop-color:#19223D"/>
	<stop  offset="0.03115" style="stop-color:#423F47"/>
	<stop  offset="0.06741" style="stop-color:#6B5B50"/>
	<stop  offset="0.10472" style="stop-color:#8C7258"/>
	<stop  offset="0.14273" style="stop-color:#A6845E"/>
	<stop  offset="0.18176" style="stop-color:#B89163"/>
	<stop  offset="0.22239" style="stop-color:#C39965"/>
	<stop  offset="0.26722" style="stop-color:#C79B66"/>
	<stop  offset="1" style="stop-color:#19223D"/>
</linearGradient>
<path style="fill:url(#SVGID_00000049939832831737838480000010757424057150162317_);" d="M155.16595,447.74265
	c0,0,0.17468-0.52612,2.32611-0.21756c1.82977,0.26239,2.04602,0.79617,2.04602,0.79617L137.04742,650.4942l-5.45569-0.99194
	L155.16595,447.74265z"/>
<linearGradient id="SVGID_00000047739324758681019710000001167856911803424159_" gradientUnits="userSpaceOnUse" x1="129.2106" y1="693.55298" x2="129.2106" y2="708.85529" gradientTransform="matrix(1 0 0 1 0 2)">
	<stop  offset="0" style="stop-color:#152032"/>
	<stop  offset="0.01287" style="stop-color:#2A2E3B"/>
	<stop  offset="0.0444" style="stop-color:#574C4F"/>
	<stop  offset="0.07812" style="stop-color:#7F6761"/>
	<stop  offset="0.11354" style="stop-color:#A17D70"/>
	<stop  offset="0.15114" style="stop-color:#BC8F7C"/>
	<stop  offset="0.19172" style="stop-color:#D19D85"/>
	<stop  offset="0.23671" style="stop-color:#E0A78C"/>
	<stop  offset="0.28963" style="stop-color:#E9AD90"/>
	<stop  offset="0.37004" style="stop-color:#ECAF91"/>
	<stop  offset="1" style="stop-color:#152032"/>
</linearGradient>
<path style="fill:url(#SVGID_00000047739324758681019710000001167856911803424159_);" d="M109.9931,696.55804
	c-1.2417,0-2.24829,2.49255-2.24829,5.5672s1.00659,5.56714,2.24829,5.56714h40.68329v-11.13434H109.9931z"/>
<linearGradient id="SVGID_00000083768550916307825750000017100449225823317378_" gradientUnits="userSpaceOnUse" x1="161.58803" y1="710.06696" x2="141.80493" y2="692.04236" gradientTransform="matrix(1 0 0 1 0 2)">
	<stop  offset="0" style="stop-color:#F1E688"/>
	<stop  offset="1" style="stop-color:#19223D"/>
</linearGradient>
<ellipse style="fill:url(#SVGID_00000083768550916307825750000017100449225823317378_);" cx="150.67639" cy="702.12524" rx="2.24829" ry="5.56717"/>
<linearGradient id="SVGID_00000112592353997404658910000017144794523126847627_" gradientUnits="userSpaceOnUse" x1="129.74158" y1="661.15778" x2="136.08453" y2="661.84723" gradientTransform="matrix(1 0 0 1 0 2)">
	<stop  offset="0" style="stop-color:#19223D"/>
	<stop  offset="0.20314" style="stop-color:#E6F0DC"/>
	<stop  offset="1" style="stop-color:#19223D"/>
</linearGradient>
<path style="fill:url(#SVGID_00000112592353997404658910000017144794523126847627_);" d="M131.45874,649.47809l-1.65173,27.88031
	l2.03674,0.2514l5.3526-27.0885c0,0-0.21869-0.6438-2.69495-1.04321C131.80646,649.0434,131.45874,649.47809,131.45874,649.47809z"
	/>
<linearGradient id="SVGID_00000183939012428467327540000010459867388208102054_" gradientUnits="userSpaceOnUse" x1="70.08167" y1="684.05939" x2="101.29419" y2="684.05939" gradientTransform="matrix(1 0 0 1 0 2)">
	<stop  offset="0" style="stop-color:#F1B99F"/>
	<stop  offset="1" style="stop-color:#19223D"/>
</linearGradient>
<path style="fill:url(#SVGID_00000183939012428467327540000010459867388208102054_);" d="M70.08167,667.31781v35.53113h0.00012
	c0.00623,1.07825,6.99084,1.95209,15.60614,1.95209c8.61536,0,15.59998-0.87384,15.60614-1.95209h0.00012v-35.53113H70.08167z"/>
<linearGradient id="SVGID_00000020371531250774723420000004014631365584580756_" gradientUnits="userSpaceOnUse" x1="73.01923" y1="665.2196" x2="109.98785" y2="665.2196" gradientTransform="matrix(1 0 0 1 0 2)">
	<stop  offset="0" style="stop-color:#E6F0DC"/>
	<stop  offset="1" style="stop-color:#19223D"/>
</linearGradient>
<ellipse style="fill:url(#SVGID_00000020371531250774723420000004014631365584580756_);" cx="85.68793" cy="667.2196" rx="15.60626" ry="1.47229"/>
<linearGradient id="SVGID_00000107578878554318318590000002296498705996561539_" gradientUnits="userSpaceOnUse" x1="98.7478" y1="665.21954" x2="71.95819" y2="665.21954" gradientTransform="matrix(1 0 0 1 0 2)">
	<stop  offset="0" style="stop-color:#E6F0DC"/>
	<stop  offset="1" style="stop-color:#19223D"/>
</linearGradient>
<ellipse style="fill:url(#SVGID_00000107578878554318318590000002296498705996561539_);" cx="85.68799" cy="667.21954" rx="14.68274" ry="0.97934"/>
<linearGradient id="SVGID_00000050640001269429849210000000105904308907027864_" gradientUnits="userSpaceOnUse" x1="91.6272" y1="651.50421" x2="102.4939" y2="658.11121" gradientTransform="matrix(1 0 0 1 0 2)">
	<stop  offset="0" style="stop-color:#EF8583"/>
	<stop  offset="1" style="stop-color:#19223D"/>
</linearGradient>
<path style="fill:url(#SVGID_00000050640001269429849210000000105904308907027864_);" d="M103.64941,644.24335
	c-1.71429-0.5802-2.526,0.01172-2.526,0.01172s-9.09216,17.59009-12.79144,23.89624
	c1.46973-0.04395,3.58624-0.12915,4.20874-0.17163l12.67914-21.5769C105.23529,645.4137,104.59509,644.53345,103.64941,644.24335z"
	/>
<linearGradient id="SVGID_00000046330055837760401820000011554607339160615067_" gradientUnits="userSpaceOnUse" x1="264.27039" y1="369.552" x2="261.31476" y2="369.552" gradientTransform="matrix(1 0 0 1 0 2)">
	<stop  offset="0" style="stop-color:#E2EAB3"/>
	<stop  offset="0.55733" style="stop-color:#8F856C"/>
	<stop  offset="1" style="stop-color:#655848"/>
</linearGradient>
<rect x="261.19128" y="365.52921" style="fill:url(#SVGID_00000046330055837760401820000011554607339160615067_);" width="0.27008" height="12.04559"/>
<linearGradient id="SVGID_00000036231142522632109240000006581697963533365387_" gradientUnits="userSpaceOnUse" x1="2.074" y1="204.41312" x2="209.55363" y2="174.93851" gradientTransform="matrix(0.76681 0.64187 -0.64187 0.76681 208.89513 83.46372)">
	<stop  offset="0" style="stop-color:#FFFDF8;stop-opacity:0"/>
	<stop  offset="0.13273" style="stop-color:#FDF8F2;stop-opacity:0.02695"/>
	<stop  offset="0.28491" style="stop-color:#F7E8E0;stop-opacity:0.10573"/>
	<stop  offset="0.44669" style="stop-color:#ECCEC3;stop-opacity:0.23641"/>
	<stop  offset="0.61521" style="stop-color:#DEAA9A;stop-opacity:0.41923"/>
	<stop  offset="0.78897" style="stop-color:#CB7B65;stop-opacity:0.65431"/>
	<stop  offset="0.96468" style="stop-color:#B54226;stop-opacity:0.93767"/>
	<stop  offset="1" style="stop-color:#B03618"/>
</linearGradient>
<polyline style="opacity:0.35;fill:url(#SVGID_00000036231142522632109240000006581697963533365387_);enable-background:new    ;" points="
	-6.59146,593.17737 376.49789,21.18237 11.01057,55.20929 "/>
<linearGradient id="SVGID_00000078003214209351249010000003366305536859288723_" gradientUnits="userSpaceOnUse" x1="-765.37292" y1="507.60385" x2="-514.32288" y2="589.39191" gradientTransform="matrix(-0.99939 -0.0349 0.0349 -0.99939 -674.17963 774.74304)">
	<stop  offset="0.41007" style="stop-color:#FFFDF8;stop-opacity:0"/>
	<stop  offset="0.48952" style="stop-color:#FDF8F2;stop-opacity:0.02635"/>
	<stop  offset="0.57911" style="stop-color:#F7E8E1;stop-opacity:0.10364"/>
	<stop  offset="0.67369" style="stop-color:#EDCFC4;stop-opacity:0.23203"/>
	<stop  offset="0.77167" style="stop-color:#DEAB9C;stop-opacity:0.4116"/>
	<stop  offset="0.87234" style="stop-color:#CC7D68;stop-opacity:0.64258"/>
	<stop  offset="0.97385" style="stop-color:#B6462A;stop-opacity:0.92107"/>
	<stop  offset="1" style="stop-color:#B03618"/>
</linearGradient>
<polyline style="opacity:0.45;fill:url(#SVGID_00000078003214209351249010000003366305536859288723_);enable-background:new    ;" points="
	61.91034,590.77551 344.42804,30.00694 0,0 0,604.84912 "/>
<linearGradient id="SVGID_00000142174632237067031970000001526738313980539801_" gradientUnits="userSpaceOnUse" x1="1376.22009" y1="863.26782" x2="1601.13635" y2="904.52435" gradientTransform="matrix(-0.83784 0.54592 -0.531 -0.84756 1767.83252 353.79489)">
	<stop  offset="0.06513" style="stop-color:#B03618;stop-opacity:0"/>
	<stop  offset="0.4449" style="stop-color:#B13719;stop-opacity:0.00794"/>
	<stop  offset="0.58169" style="stop-color:#B33C1E;stop-opacity:0.0367"/>
	<stop  offset="0.67922" style="stop-color:#B74527;stop-opacity:0.08681"/>
	<stop  offset="0.75808" style="stop-color:#BE5133;stop-opacity:0.15838"/>
	<stop  offset="0.82565" style="stop-color:#C66244;stop-opacity:0.25167"/>
	<stop  offset="0.88546" style="stop-color:#CF7557;stop-opacity:0.36684"/>
	<stop  offset="0.93957" style="stop-color:#DB8D6F;stop-opacity:0.50415"/>
	<stop  offset="0.9877" style="stop-color:#E8A88A;stop-opacity:0.65823"/>
	<stop  offset="0.99918" style="stop-color:#ECAF91;stop-opacity:0.7"/>
</linearGradient>
<polyline style="opacity:0.3;fill:url(#SVGID_00000142174632237067031970000001526738313980539801_);enable-background:new    ;" points="
	107.64213,736 136.4236,53.83702 -6.69874,99.29434 "/>
<path class="st59" d="M48.98945,184.94276h2.02723v31.14563h18.65955v1.75082H48.9894L48.98945,184.94276z"/>
<path class="st59" d="M73.59181,201.62172v16.21748h-2.02724v-32.89644h2.02724v14.92815h21.00932v-14.92813h2.02723v32.89644
	h-2.02723v-16.21748H73.59181V201.62172z"/>
<path class="st59" d="M111.83118,216.08839h0.09235l11.37992-31.14563h2.02724l-12.30164,32.89644h-2.34975L98.424,184.94276
	h2.11929L111.83118,216.08839z"/>
<path class="st59" d="M48.57461,233.77385h6.22016v4.42273h0.09204c1.30783-3.04488,4.28851-5.03183,7.60217-5.06769
	c0.48477,0.00537,0.96605,0.08293,1.42801,0.23012v6.08148c-0.77374-0.15405-1.56081-0.23116-2.34975-0.23013
	c-4.83755,0-6.45,3.40956-6.45,7.64818v10.73494h-6.54263V233.77385z"/>
<path class="st59" d="M69.81374,247.27338c0.1841,4.19261,2.16534,6.03546,5.85136,6.03546
	c2.62589,0,4.74552-1.61273,5.16005-3.08737h5.7593c-1.84315,5.66725-5.7593,8.017-11.1498,8.017
	c-7.51008,0-12.16325-5.16035-12.16325-12.53178c0-7.14128,4.92962-12.57779,12.16325-12.57779
	c8.10874,0,12.07121,6.8185,11.56433,14.14449H69.81374z M80.45664,243.12621c-0.59894-3.31689-2.02725-5.06769-5.20638-5.06769
	c-4.23866,0-5.29844,3.22484-5.43652,5.06769H80.45664z"/>
<path class="st59" d="M88.97871,233.77385h6.17383v3.22485h0.09206c1.60263-2.45265,4.35015-3.91321,7.27966-3.86981
	c2.99471,0,5.66695,1.05919,6.95718,3.96185c1.58539-2.43633,4.28085-3.92213,7.1873-3.96185
	c5.06801,0,8.70799,2.34973,8.70799,8.52327v15.94131h-6.54266v-13.49951c0-3.17883-0.27645-5.80531-4.00818-5.80531
	c-3.686,0-4.37701,3.08736-4.37701,6.03545v13.26938h-6.54234v-13.36145c0-2.76395,0.1841-5.94339-3.96248-5.94339
	c-1.28992,0-4.42302,0.82967-4.42302,5.48312v13.82172h-6.54234V233.77385z"/>
<path class="st59" d="M140.02629,233.12889c7.5098,0,12.34769,4.97563,12.34769,12.57779
	c0,7.55614-4.83789,12.53178-12.34769,12.53178c-7.46407,0-12.30162-4.97565-12.30162-12.53178
	C127.72467,238.10452,132.56223,233.12889,140.02629,233.12889z M140.02629,253.30884c4.46907,0,5.80504-3.77838,5.80504-7.60216
	c0-3.82439-1.33597-7.64816-5.80504-7.64816c-4.42302,0-5.75928,3.82376-5.75928,7.64816
	C134.26701,249.53047,135.60327,253.30884,140.02629,253.30884L140.02629,253.30884z"/>
<path class="st59" d="M154.53783,233.77385h6.22017v3.31689h0.13806c1.55983-2.51016,4.32484-4.01498,7.27968-3.96185
	c6.95688,0,8.70769,3.91583,8.70769,9.8132v14.65141h-6.54239v-13.45352c0-3.91583-1.10582-5.85133-4.1926-5.85133
	c-3.54764,0-5.06799,1.98152-5.06799,6.81909v12.48573h-6.54262V233.77385z"/>
<path class="st59" d="M196.78566,254.55275h-0.09204c-1.52037,2.57988-4.14658,3.68571-7.23363,3.68571
	c-7.18733,0-10.68892-6.12752-10.68892-12.76251c0-6.40367,3.54764-12.34706,10.55084-12.34706
	c2.81029,0,5.57489,1.19789,7.04921,3.54764h0.09207v-11.97948h6.54234v32.89642h-6.21988V254.55275z M191.07269,238.05852
	c-4.28494,0-5.75931,3.73172-5.75931,7.60214c0,3.73174,1.70477,7.64818,5.75931,7.64818c4.28465,0,5.62093-3.77837,5.62093-7.6942
	C196.69362,241.74422,195.31133,238.05852,191.07269,238.05852z"/>
<path class="st59" d="M212.58737,230.08754h-6.54231v-5.39049h6.54231V230.08754z M206.04506,233.77385h6.54231v23.81963h-6.54231
	V233.77385z"/>
<path class="st59" d="M215.62784,242.20508h13.86803v5.62062h-13.86803V242.20508z"/>
<path class="st59" d="M48.759,264.45135h6.54234v32.89612H48.759V264.45135z"/>
<path class="st59" d="M58.11105,280.85355c0.36882-6.08148,5.85136-7.97037,11.19582-7.97037
	c4.7458,0,10.45877,1.0592,10.45877,6.77249v12.39395c0,2.16565,0.23043,4.33011,0.82937,5.29785h-6.63469
	c-0.24615-0.74643-0.4008-1.51999-0.46055-2.30371c-2.0733,2.16565-5.06801,2.94931-8.0167,2.94931
	c-4.56142,0-8.10905-2.25769-8.10905-7.1413c0.09206-10.8273,16.12575-5.02258,15.84927-10.36703
	c0-2.76395-1.9352-3.22485-4.23892-3.22485c-2.53385,0-4.10056,1.01379-4.33068,3.59366H58.11105z M73.2233,285.6911
	c-1.10582,0.96777-3.40955,1.01379-5.43681,1.3826c-2.02724,0.3685-3.87012,1.10492-3.87012,3.50192
	c0,2.39578,1.8892,3.04013,4.00851,3.04013c5.11401,0,5.29842-4.00787,5.29842-5.48315V285.6911z"/>
<path class="st59" d="M88.14993,287.02768c0.1841,4.19229,2.16534,6.03574,5.85136,6.03574
	c2.62589,0,4.74551-1.61331,5.16005-3.08734h5.7593c-1.84315,5.66724-5.7593,8.01697-11.14978,8.01697
	c-7.51011,0-12.16328-5.16095-12.16328-12.53207c0-7.14127,4.92962-12.57779,12.16328-12.57779
	c8.10874,0,12.07119,6.81851,11.56431,14.1445H88.14993z M98.79282,282.88049c-0.59894-3.31689-2.02723-5.06769-5.20638-5.06769
	c-4.23864,0-5.29844,3.22482-5.43652,5.06769H98.79282z"/>
<path class="st59" d="M107.13048,273.52814h6.22015v3.31689h0.13808c1.55982-2.51016,4.32484-4.01498,7.27968-3.96185
	c6.95687,0,8.70768,3.91583,8.70768,9.8132v14.65109h-6.54234v-13.45322c0-3.91583-1.10584-5.85135-4.1926-5.85135
	c-3.54763,0-5.06801,1.98154-5.06801,6.81909v12.48544h-6.54265V273.52814z"/>
</svg>
